<svg width="24" height="24" viewBox="0 0 24 24" fill="none" xmlns="http://www.w3.org/2000/svg">
<g clip-path="url(#clip0_3_3049)">
<mask id="path-1-outside-1_3_3049" maskUnits="userSpaceOnUse" x="-0.580391" y="-1.01147" width="25" height="26" fill="black">
<rect fill="white" x="-0.580391" y="-1.01147" width="25" height="26"/>
<path d="M23.175 16.08H22.7662C22.6879 15.8197 22.5823 15.5683 22.4512 15.33L22.74 15.0413C22.8153 14.9648 22.8576 14.8618 22.8576 14.7544C22.8576 14.647 22.8153 14.544 22.74 14.4675L21.9 13.6163C21.8231 13.5418 21.7202 13.5002 21.6131 13.5002C21.5061 13.5002 21.4032 13.5418 21.3262 13.6163L21.0375 13.905C20.8007 13.771 20.549 13.6652 20.2875 13.59V13.185C20.2875 13.1312 20.2768 13.0779 20.256 13.0283C20.2351 12.9787 20.2046 12.9337 20.1662 12.896C20.1278 12.8583 20.0823 12.8286 20.0323 12.8087C19.9823 12.7888 19.9288 12.779 19.875 12.78H18.6862C18.5788 12.78 18.4758 12.8227 18.3999 12.8986C18.3239 12.9746 18.2812 13.0776 18.2812 13.185V13.5938C18.0198 13.669 17.768 13.7747 17.5312 13.9088L17.25 13.62C17.1735 13.5447 17.0705 13.5024 16.9631 13.5024C16.8558 13.5024 16.7527 13.5447 16.6762 13.62L15.8362 14.46C15.7986 14.4973 15.7687 14.5417 15.7483 14.5906C15.7279 14.6396 15.7174 14.692 15.7174 14.745C15.7174 14.798 15.7279 14.8505 15.7483 14.8994C15.7687 14.9483 15.7986 14.9927 15.8362 15.03L16.125 15.3188C16.0583 15.4405 15.9982 15.5656 15.945 15.6938L14.5762 15.195L14.0325 14.4075V12.825L14.0925 12.765C14.4401 12.3502 14.651 11.8381 14.6962 11.2988L14.7225 11.0363C15.1762 10.8788 15.4012 10.1438 15.5062 9.53627C15.5662 9.21002 15.7125 8.21627 15.405 7.70627C15.4075 7.5165 15.4563 7.33021 15.5471 7.16356C15.638 6.99692 15.7681 6.85497 15.9262 6.75002C15.9784 6.7157 16.0211 6.66892 16.0506 6.61391C16.08 6.55891 16.0953 6.49742 16.095 6.43502C16.05 3.39377 15.345 1.73252 13.9312 1.36127C11.3062 -1.33873 6.05625 0.761271 5.835 0.851271C5.78064 0.876757 5.73319 0.914924 5.69664 0.962561C5.6601 1.0102 5.63553 1.06591 5.625 1.12502C5.61545 1.18592 5.62106 1.24824 5.64134 1.30645C5.66162 1.36466 5.69593 1.41698 5.74125 1.45877L5.91 1.60502C4.785 2.50877 4.2 4.09502 4.20375 6.33752C4.20416 6.4359 4.24322 6.53017 4.3125 6.60002C4.60878 6.94401 4.79207 7.37081 4.8375 7.82252C4.5675 8.29877 4.6875 9.15377 4.7625 9.53627C4.8525 10.02 5.085 10.8525 5.57625 11.0363H5.595L5.62125 11.2913C5.66339 11.827 5.87037 12.3366 6.21375 12.75C6.2775 12.825 6.34875 12.9 6.42375 12.975V14.2163C6.39221 14.2435 6.36333 14.2736 6.3375 14.3063L5.72625 15.1875L2.325 16.4363H2.2725C1.82285 16.6209 1.43609 16.9314 1.15868 17.3306C0.881282 17.7297 0.725044 18.2005 0.708747 18.6863L0.419997 23.5613C0.417718 23.6114 0.425504 23.6614 0.442895 23.7084C0.460286 23.7554 0.486928 23.7985 0.521247 23.835C0.590483 23.9057 0.684833 23.9461 0.783747 23.9475L10.125 24H19.2787C19.3782 24 19.4736 23.9605 19.5439 23.8902C19.6142 23.8199 19.6537 23.7245 19.6537 23.625V21.375H19.875C19.9824 21.375 20.0854 21.3324 20.1614 21.2564C20.2373 21.1804 20.28 21.0774 20.28 20.97V20.565C20.5415 20.4898 20.7932 20.3841 21.03 20.25L21.3187 20.5425C21.3957 20.617 21.4986 20.6586 21.6056 20.6586C21.7127 20.6586 21.8156 20.617 21.8925 20.5425L22.7287 19.7063C22.7672 19.6688 22.7977 19.6238 22.8183 19.5742C22.839 19.5246 22.8493 19.4713 22.8487 19.4175C22.8454 19.3117 22.8041 19.2105 22.7325 19.1325L22.4437 18.8438C22.5741 18.6052 22.6797 18.3539 22.7587 18.0938H23.175C23.2821 18.0928 23.3846 18.0498 23.4603 17.9741C23.536 17.8983 23.579 17.7959 23.58 17.6888V16.5C23.5815 16.4457 23.5722 16.3917 23.5525 16.341C23.5329 16.2904 23.5033 16.2441 23.4656 16.205C23.4279 16.1659 23.3828 16.1347 23.3329 16.1133C23.283 16.0918 23.2293 16.0805 23.175 16.08ZM7.15125 13.6125C7.55773 13.9122 7.98648 14.1805 8.43375 14.415C8.61307 14.5094 8.81236 14.5595 9.015 14.5613H11.265C11.4665 14.56 11.6647 14.5098 11.8425 14.415C12.349 14.1518 12.832 13.8457 13.2862 13.5V14.2125L13.2525 14.2388L13.215 14.2763L13.0612 14.4713L10.1475 17.415L7.26375 14.445L7.15125 14.3438V13.6125ZM12.4425 19.2375L10.6912 17.8875L13.5487 15L13.9537 15.5888L13.0162 17.8388L12.4425 19.2375ZM6.675 1.96877C6.72352 1.93894 6.76461 1.89845 6.79515 1.85036C6.82569 1.80228 6.84487 1.74787 6.85125 1.69127C6.85556 1.63396 6.84665 1.57642 6.82519 1.52311C6.80373 1.46979 6.77031 1.42212 6.7275 1.38377L6.675 1.33502C8.07 0.888771 11.6737 2.12193e-05 13.4737 1.94627C13.5264 2.00195 13.5942 2.04105 13.6687 2.05877C14.73 2.27627 15.3 3.69377 15.3637 6.26627C15.0312 6.53721 14.8053 6.91717 14.7262 7.33877C14.7262 7.24877 14.7262 7.16252 14.7037 7.07627C14.6812 6.99002 14.7037 6.90752 14.685 6.82877C14.6662 6.75002 14.655 6.63752 14.64 6.54377C14.625 6.45002 14.64 6.39002 14.6062 6.31502C14.5725 6.24002 14.5612 6.14252 14.5387 6.05627C14.5257 5.98647 14.5081 5.91758 14.4862 5.85002C14.46 5.76377 14.43 5.68877 14.4 5.60627C14.37 5.52377 14.355 5.48252 14.3287 5.42252C14.3025 5.36252 14.2537 5.27252 14.2162 5.20127C14.1787 5.13002 14.1637 5.09252 14.1337 5.04002C14.1037 4.98752 14.0362 4.89752 13.9875 4.82627C13.9387 4.75502 13.9312 4.73627 13.8975 4.69502C13.8365 4.62024 13.7714 4.54888 13.7025 4.48127C13.6762 4.45127 13.65 4.41752 13.62 4.38752C13.5199 4.29048 13.4134 4.20028 13.3012 4.11752C13.2434 4.07609 13.1749 4.05197 13.1039 4.04798C13.0328 4.044 12.9621 4.06031 12.9 4.09502C12.9 4.09502 11.6512 4.80377 9.195 4.50002C8.80742 4.44933 8.4145 4.45564 8.02875 4.51877C6.99 4.69502 5.76 5.35127 5.60625 7.43252H5.49375C5.40679 6.97924 5.20976 6.55427 4.92 6.19502C4.9425 4.06877 5.53125 2.64377 6.675 1.96877ZM6.27375 10.5938C6.26429 10.5294 6.23823 10.4685 6.19812 10.4172C6.15801 10.3659 6.10524 10.326 6.045 10.3013C6.00221 10.2835 5.9563 10.2746 5.91 10.275C5.86283 10.2749 5.81596 10.2825 5.77125 10.2975C5.58886 9.97127 5.47408 9.61161 5.43375 9.24002C5.35209 8.90112 5.35209 8.54767 5.43375 8.20877L5.4675 8.17877C5.59306 8.16506 5.72007 8.17395 5.8425 8.20502C5.89577 8.21594 5.95078 8.21514 6.00371 8.20268C6.05664 8.19022 6.10623 8.1664 6.14904 8.13287C6.19185 8.09934 6.22685 8.05689 6.25162 8.00848C6.27639 7.96007 6.29034 7.90686 6.2925 7.85252C6.2925 6.28502 6.885 5.45627 8.1225 5.22752C8.4406 5.17824 8.76439 5.17824 9.0825 5.22752C11.1862 5.47877 12.5025 5.04752 13.0087 4.82627C13.6762 5.42252 13.98 6.32627 13.98 7.74002C13.9791 7.83102 14.0113 7.91923 14.0707 7.98823C14.13 8.05722 14.2124 8.10229 14.3025 8.11502L14.7862 8.17127C14.8863 8.89571 14.7811 9.63368 14.4825 10.3013C14.43 10.283 14.3741 10.2766 14.3189 10.2826C14.2636 10.2885 14.2103 10.3067 14.163 10.3358C14.1156 10.3648 14.0753 10.4041 14.0449 10.4506C14.0146 10.4972 13.995 10.5499 13.9875 10.605L13.9275 11.235C13.8936 11.6259 13.7419 11.9972 13.4925 12.3C13.3604 12.4514 13.2175 12.593 13.065 12.7238C12.579 13.1347 12.0481 13.4894 11.4825 13.7813C11.4097 13.8199 11.3287 13.8405 11.2462 13.8413H9C8.91643 13.8401 8.83428 13.8196 8.76 13.7813C8.21925 13.4996 7.70904 13.1628 7.2375 12.7763C7.06347 12.6297 6.90168 12.4692 6.75375 12.2963C6.50146 11.9966 6.34934 11.6255 6.31875 11.235L6.27375 10.5938ZM6.75 14.9775L9.585 17.895L9.5025 17.9588L7.84125 19.2338L6.89625 16.9838L6.32625 15.6075L6.75 14.9775ZM1.43625 18.75C1.4424 18.4079 1.54534 18.0745 1.73316 17.7884C1.92098 17.5024 2.18599 17.2754 2.4975 17.1338H2.55L5.7 15.9863L6.27 17.3625L7.2225 19.65C7.27584 19.7882 7.37697 19.9026 7.5075 19.9725L7.60125 20.01H7.63875H7.6725C7.70991 20.0137 7.74759 20.0137 7.785 20.01H7.8225C7.8693 20.0065 7.91572 19.999 7.96125 19.9875H8.01C8.06469 19.9654 8.11635 19.9364 8.16375 19.9013L8.53875 19.6163L9.7725 18.6675V23.25H4.5V21.9C4.47967 21.8189 4.43284 21.747 4.36694 21.6955C4.30104 21.6441 4.21984 21.6162 4.13625 21.6162C4.05265 21.6162 3.97146 21.6441 3.90555 21.6955C3.83965 21.747 3.79282 21.8189 3.7725 21.9V23.25H1.17L1.43625 18.75ZM18.915 23.25H16.29V21.915C16.2684 21.8356 16.2213 21.7655 16.1559 21.7155C16.0905 21.6655 16.0104 21.6384 15.9281 21.6384C15.8458 21.6384 15.7658 21.6655 15.7004 21.7155C15.635 21.7655 15.5878 21.8356 15.5662 21.915V23.2688H10.5V18.6675L12.0712 19.875L12.12 19.9125C12.1665 19.948 12.2184 19.9759 12.2737 19.995H12.315C12.3627 20.008 12.4118 20.0155 12.4612 20.0175H12.4912C12.5344 20.0171 12.5773 20.0108 12.6187 19.9988H12.6412C12.6814 19.9877 12.7204 19.9726 12.7575 19.9538C12.888 19.8838 12.9891 19.7694 13.0425 19.6313L13.7062 18.0375L14.565 15.9675L15.105 16.1663C15.0579 16.2016 15.0198 16.2475 14.9937 16.3002C14.9677 16.353 14.9544 16.4112 14.955 16.47V17.6588C14.9534 17.7143 14.9632 17.7697 14.9838 17.8213C15.0044 17.873 15.0352 17.9199 15.0746 17.9592C15.1139 17.9985 15.1608 18.0294 15.2125 18.05C15.2641 18.0705 15.3194 18.0803 15.375 18.0788H15.7837C15.8628 18.3389 15.9684 18.5902 16.0987 18.8288L15.81 19.1175C15.7347 19.194 15.6924 19.297 15.6924 19.4044C15.6924 19.5118 15.7347 19.6148 15.81 19.6913L16.65 20.5313C16.7269 20.6057 16.8298 20.6474 16.9369 20.6474C17.0439 20.6474 17.1468 20.6057 17.2237 20.5313L17.5125 20.2425C17.7493 20.3766 18.001 20.4823 18.2625 20.5575V20.9663C18.2619 21.0214 18.2726 21.076 18.2939 21.1269C18.3152 21.1777 18.3466 21.2237 18.3863 21.2619C18.426 21.3002 18.473 21.33 18.5246 21.3494C18.5762 21.3689 18.6312 21.3776 18.6862 21.375H18.915V23.25ZM22.8525 17.3288H22.5C22.4072 17.3287 22.3172 17.3608 22.2454 17.4196C22.1737 17.4784 22.1245 17.5603 22.1062 17.6513C22.0321 18.0054 21.8921 18.3425 21.6937 18.645C21.637 18.7248 21.6114 18.8227 21.6217 18.9201C21.6321 19.0174 21.6777 19.1077 21.75 19.1738L21.99 19.4138L21.615 19.7888L21.375 19.5563C21.3082 19.4919 21.2219 19.4514 21.1296 19.4412C21.0373 19.431 20.9443 19.4517 20.865 19.5C20.5638 19.6993 20.2281 19.8405 19.875 19.9163C19.784 19.9359 19.7025 19.986 19.6438 20.0583C19.5852 20.1306 19.553 20.2207 19.5525 20.3138V20.6513H19.0087V20.3138C19.0083 20.2207 18.9761 20.1306 18.9174 20.0583C18.8588 19.986 18.7772 19.9359 18.6862 19.9163C18.3319 19.8409 17.9948 19.6997 17.6925 19.5C17.6136 19.4512 17.5208 19.4299 17.4286 19.4394C17.3363 19.4489 17.2498 19.4887 17.1825 19.5525L16.9425 19.7925L16.5675 19.4175L16.8075 19.1775C16.8734 19.1122 16.9147 19.0261 16.9243 18.9338C16.9339 18.8415 16.9111 18.7487 16.86 18.6713C16.6609 18.3677 16.521 18.0293 16.4475 17.6738C16.4285 17.5835 16.379 17.5025 16.3073 17.4444C16.2356 17.3863 16.146 17.3548 16.0537 17.355H15.7125V16.8075H16.0537C16.1432 16.8067 16.2298 16.7759 16.2998 16.7202C16.3697 16.6645 16.4191 16.587 16.44 16.5C16.5142 16.1459 16.6541 15.8088 16.8525 15.5063C16.9036 15.4288 16.9264 15.3361 16.9168 15.2438C16.9072 15.1515 16.8659 15.0653 16.8 15L16.56 14.76L16.935 14.385L17.175 14.625C17.2417 14.6901 17.3287 14.7303 17.4214 14.7392C17.5142 14.7481 17.6072 14.725 17.685 14.6738C17.9879 14.4711 18.3263 14.3273 18.6825 14.25C18.7742 14.2311 18.8566 14.1814 18.916 14.109C18.9753 14.0367 19.0081 13.9461 19.0087 13.8525V13.5H19.5487V13.8375C19.5459 13.9337 19.577 14.0278 19.6367 14.1032C19.6964 14.1787 19.7808 14.2306 19.875 14.25C20.2289 14.3229 20.566 14.4615 20.8687 14.6588C20.947 14.7081 21.0397 14.7294 21.1317 14.7191C21.2237 14.7089 21.3094 14.6678 21.375 14.6025L21.615 14.3625L21.99 14.7375L21.75 15C21.6841 15.0653 21.6428 15.1515 21.6332 15.2438C21.6236 15.3361 21.6464 15.4288 21.6975 15.5063C21.9029 15.8068 22.0481 16.1443 22.125 16.5C22.1446 16.591 22.1947 16.6726 22.267 16.7312C22.3393 16.7898 22.4294 16.8221 22.5225 16.8225H22.8637L22.8525 17.3288Z"/>
</mask>
<path d="M23.175 16.08H22.7662C22.6879 15.8197 22.5823 15.5683 22.4512 15.33L22.74 15.0413C22.8153 14.9648 22.8576 14.8618 22.8576 14.7544C22.8576 14.647 22.8153 14.544 22.74 14.4675L21.9 13.6163C21.8231 13.5418 21.7202 13.5002 21.6131 13.5002C21.5061 13.5002 21.4032 13.5418 21.3262 13.6163L21.0375 13.905C20.8007 13.771 20.549 13.6652 20.2875 13.59V13.185C20.2875 13.1312 20.2768 13.0779 20.256 13.0283C20.2351 12.9787 20.2046 12.9337 20.1662 12.896C20.1278 12.8583 20.0823 12.8286 20.0323 12.8087C19.9823 12.7888 19.9288 12.779 19.875 12.78H18.6862C18.5788 12.78 18.4758 12.8227 18.3999 12.8986C18.3239 12.9746 18.2812 13.0776 18.2812 13.185V13.5938C18.0198 13.669 17.768 13.7747 17.5312 13.9088L17.25 13.62C17.1735 13.5447 17.0705 13.5024 16.9631 13.5024C16.8558 13.5024 16.7527 13.5447 16.6762 13.62L15.8362 14.46C15.7986 14.4973 15.7687 14.5417 15.7483 14.5906C15.7279 14.6396 15.7174 14.692 15.7174 14.745C15.7174 14.798 15.7279 14.8505 15.7483 14.8994C15.7687 14.9483 15.7986 14.9927 15.8362 15.03L16.125 15.3188C16.0583 15.4405 15.9982 15.5656 15.945 15.6938L14.5762 15.195L14.0325 14.4075V12.825L14.0925 12.765C14.4401 12.3502 14.651 11.8381 14.6962 11.2988L14.7225 11.0363C15.1762 10.8788 15.4012 10.1438 15.5062 9.53627C15.5662 9.21002 15.7125 8.21627 15.405 7.70627C15.4075 7.5165 15.4563 7.33021 15.5471 7.16356C15.638 6.99692 15.7681 6.85497 15.9262 6.75002C15.9784 6.7157 16.0211 6.66892 16.0506 6.61391C16.08 6.55891 16.0953 6.49742 16.095 6.43502C16.05 3.39377 15.345 1.73252 13.9312 1.36127C11.3062 -1.33873 6.05625 0.761271 5.835 0.851271C5.78064 0.876757 5.73319 0.914924 5.69664 0.962561C5.6601 1.0102 5.63553 1.06591 5.625 1.12502C5.61545 1.18592 5.62106 1.24824 5.64134 1.30645C5.66162 1.36466 5.69593 1.41698 5.74125 1.45877L5.91 1.60502C4.785 2.50877 4.2 4.09502 4.20375 6.33752C4.20416 6.4359 4.24322 6.53017 4.3125 6.60002C4.60878 6.94401 4.79207 7.37081 4.8375 7.82252C4.5675 8.29877 4.6875 9.15377 4.7625 9.53627C4.8525 10.02 5.085 10.8525 5.57625 11.0363H5.595L5.62125 11.2913C5.66339 11.827 5.87037 12.3366 6.21375 12.75C6.2775 12.825 6.34875 12.9 6.42375 12.975V14.2163C6.39221 14.2435 6.36333 14.2736 6.3375 14.3063L5.72625 15.1875L2.325 16.4363H2.2725C1.82285 16.6209 1.43609 16.9314 1.15868 17.3306C0.881282 17.7297 0.725044 18.2005 0.708747 18.6863L0.419997 23.5613C0.417718 23.6114 0.425504 23.6614 0.442895 23.7084C0.460286 23.7554 0.486928 23.7985 0.521247 23.835C0.590483 23.9057 0.684833 23.9461 0.783747 23.9475L10.125 24H19.2787C19.3782 24 19.4736 23.9605 19.5439 23.8902C19.6142 23.8199 19.6537 23.7245 19.6537 23.625V21.375H19.875C19.9824 21.375 20.0854 21.3324 20.1614 21.2564C20.2373 21.1804 20.28 21.0774 20.28 20.97V20.565C20.5415 20.4898 20.7932 20.3841 21.03 20.25L21.3187 20.5425C21.3957 20.617 21.4986 20.6586 21.6056 20.6586C21.7127 20.6586 21.8156 20.617 21.8925 20.5425L22.7287 19.7063C22.7672 19.6688 22.7977 19.6238 22.8183 19.5742C22.839 19.5246 22.8493 19.4713 22.8487 19.4175C22.8454 19.3117 22.8041 19.2105 22.7325 19.1325L22.4437 18.8438C22.5741 18.6052 22.6797 18.3539 22.7587 18.0938H23.175C23.2821 18.0928 23.3846 18.0498 23.4603 17.9741C23.536 17.8983 23.579 17.7959 23.58 17.6888V16.5C23.5815 16.4457 23.5722 16.3917 23.5525 16.341C23.5329 16.2904 23.5033 16.2441 23.4656 16.205C23.4279 16.1659 23.3828 16.1347 23.3329 16.1133C23.283 16.0918 23.2293 16.0805 23.175 16.08ZM7.15125 13.6125C7.55773 13.9122 7.98648 14.1805 8.43375 14.415C8.61307 14.5094 8.81236 14.5595 9.015 14.5613H11.265C11.4665 14.56 11.6647 14.5098 11.8425 14.415C12.349 14.1518 12.832 13.8457 13.2862 13.5V14.2125L13.2525 14.2388L13.215 14.2763L13.0612 14.4713L10.1475 17.415L7.26375 14.445L7.15125 14.3438V13.6125ZM12.4425 19.2375L10.6912 17.8875L13.5487 15L13.9537 15.5888L13.0162 17.8388L12.4425 19.2375ZM6.675 1.96877C6.72352 1.93894 6.76461 1.89845 6.79515 1.85036C6.82569 1.80228 6.84487 1.74787 6.85125 1.69127C6.85556 1.63396 6.84665 1.57642 6.82519 1.52311C6.80373 1.46979 6.77031 1.42212 6.7275 1.38377L6.675 1.33502C8.07 0.888771 11.6737 2.12193e-05 13.4737 1.94627C13.5264 2.00195 13.5942 2.04105 13.6687 2.05877C14.73 2.27627 15.3 3.69377 15.3637 6.26627C15.0312 6.53721 14.8053 6.91717 14.7262 7.33877C14.7262 7.24877 14.7262 7.16252 14.7037 7.07627C14.6812 6.99002 14.7037 6.90752 14.685 6.82877C14.6662 6.75002 14.655 6.63752 14.64 6.54377C14.625 6.45002 14.64 6.39002 14.6062 6.31502C14.5725 6.24002 14.5612 6.14252 14.5387 6.05627C14.5257 5.98647 14.5081 5.91758 14.4862 5.85002C14.46 5.76377 14.43 5.68877 14.4 5.60627C14.37 5.52377 14.355 5.48252 14.3287 5.42252C14.3025 5.36252 14.2537 5.27252 14.2162 5.20127C14.1787 5.13002 14.1637 5.09252 14.1337 5.04002C14.1037 4.98752 14.0362 4.89752 13.9875 4.82627C13.9387 4.75502 13.9312 4.73627 13.8975 4.69502C13.8365 4.62024 13.7714 4.54888 13.7025 4.48127C13.6762 4.45127 13.65 4.41752 13.62 4.38752C13.5199 4.29048 13.4134 4.20028 13.3012 4.11752C13.2434 4.07609 13.1749 4.05197 13.1039 4.04798C13.0328 4.044 12.9621 4.06031 12.9 4.09502C12.9 4.09502 11.6512 4.80377 9.195 4.50002C8.80742 4.44933 8.4145 4.45564 8.02875 4.51877C6.99 4.69502 5.76 5.35127 5.60625 7.43252H5.49375C5.40679 6.97924 5.20976 6.55427 4.92 6.19502C4.9425 4.06877 5.53125 2.64377 6.675 1.96877ZM6.27375 10.5938C6.26429 10.5294 6.23823 10.4685 6.19812 10.4172C6.15801 10.3659 6.10524 10.326 6.045 10.3013C6.00221 10.2835 5.9563 10.2746 5.91 10.275C5.86283 10.2749 5.81596 10.2825 5.77125 10.2975C5.58886 9.97127 5.47408 9.61161 5.43375 9.24002C5.35209 8.90112 5.35209 8.54767 5.43375 8.20877L5.4675 8.17877C5.59306 8.16506 5.72007 8.17395 5.8425 8.20502C5.89577 8.21594 5.95078 8.21514 6.00371 8.20268C6.05664 8.19022 6.10623 8.1664 6.14904 8.13287C6.19185 8.09934 6.22685 8.05689 6.25162 8.00848C6.27639 7.96007 6.29034 7.90686 6.2925 7.85252C6.2925 6.28502 6.885 5.45627 8.1225 5.22752C8.4406 5.17824 8.76439 5.17824 9.0825 5.22752C11.1862 5.47877 12.5025 5.04752 13.0087 4.82627C13.6762 5.42252 13.98 6.32627 13.98 7.74002C13.9791 7.83102 14.0113 7.91923 14.0707 7.98823C14.13 8.05722 14.2124 8.10229 14.3025 8.11502L14.7862 8.17127C14.8863 8.89571 14.7811 9.63368 14.4825 10.3013C14.43 10.283 14.3741 10.2766 14.3189 10.2826C14.2636 10.2885 14.2103 10.3067 14.163 10.3358C14.1156 10.3648 14.0753 10.4041 14.0449 10.4506C14.0146 10.4972 13.995 10.5499 13.9875 10.605L13.9275 11.235C13.8936 11.6259 13.7419 11.9972 13.4925 12.3C13.3604 12.4514 13.2175 12.593 13.065 12.7238C12.579 13.1347 12.0481 13.4894 11.4825 13.7813C11.4097 13.8199 11.3287 13.8405 11.2462 13.8413H9C8.91643 13.8401 8.83428 13.8196 8.76 13.7813C8.21925 13.4996 7.70904 13.1628 7.2375 12.7763C7.06347 12.6297 6.90168 12.4692 6.75375 12.2963C6.50146 11.9966 6.34934 11.6255 6.31875 11.235L6.27375 10.5938ZM6.75 14.9775L9.585 17.895L9.5025 17.9588L7.84125 19.2338L6.89625 16.9838L6.32625 15.6075L6.75 14.9775ZM1.43625 18.75C1.4424 18.4079 1.54534 18.0745 1.73316 17.7884C1.92098 17.5024 2.18599 17.2754 2.4975 17.1338H2.55L5.7 15.9863L6.27 17.3625L7.2225 19.65C7.27584 19.7882 7.37697 19.9026 7.5075 19.9725L7.60125 20.01H7.63875H7.6725C7.70991 20.0137 7.74759 20.0137 7.785 20.01H7.8225C7.8693 20.0065 7.91572 19.999 7.96125 19.9875H8.01C8.06469 19.9654 8.11635 19.9364 8.16375 19.9013L8.53875 19.6163L9.7725 18.6675V23.25H4.5V21.9C4.47967 21.8189 4.43284 21.747 4.36694 21.6955C4.30104 21.6441 4.21984 21.6162 4.13625 21.6162C4.05265 21.6162 3.97146 21.6441 3.90555 21.6955C3.83965 21.747 3.79282 21.8189 3.7725 21.9V23.25H1.17L1.43625 18.75ZM18.915 23.25H16.29V21.915C16.2684 21.8356 16.2213 21.7655 16.1559 21.7155C16.0905 21.6655 16.0104 21.6384 15.9281 21.6384C15.8458 21.6384 15.7658 21.6655 15.7004 21.7155C15.635 21.7655 15.5878 21.8356 15.5662 21.915V23.2688H10.5V18.6675L12.0712 19.875L12.12 19.9125C12.1665 19.948 12.2184 19.9759 12.2737 19.995H12.315C12.3627 20.008 12.4118 20.0155 12.4612 20.0175H12.4912C12.5344 20.0171 12.5773 20.0108 12.6187 19.9988H12.6412C12.6814 19.9877 12.7204 19.9726 12.7575 19.9538C12.888 19.8838 12.9891 19.7694 13.0425 19.6313L13.7062 18.0375L14.565 15.9675L15.105 16.1663C15.0579 16.2016 15.0198 16.2475 14.9937 16.3002C14.9677 16.353 14.9544 16.4112 14.955 16.47V17.6588C14.9534 17.7143 14.9632 17.7697 14.9838 17.8213C15.0044 17.873 15.0352 17.9199 15.0746 17.9592C15.1139 17.9985 15.1608 18.0294 15.2125 18.05C15.2641 18.0705 15.3194 18.0803 15.375 18.0788H15.7837C15.8628 18.3389 15.9684 18.5902 16.0987 18.8288L15.81 19.1175C15.7347 19.194 15.6924 19.297 15.6924 19.4044C15.6924 19.5118 15.7347 19.6148 15.81 19.6913L16.65 20.5313C16.7269 20.6057 16.8298 20.6474 16.9369 20.6474C17.0439 20.6474 17.1468 20.6057 17.2237 20.5313L17.5125 20.2425C17.7493 20.3766 18.001 20.4823 18.2625 20.5575V20.9663C18.2619 21.0214 18.2726 21.076 18.2939 21.1269C18.3152 21.1777 18.3466 21.2237 18.3863 21.2619C18.426 21.3002 18.473 21.33 18.5246 21.3494C18.5762 21.3689 18.6312 21.3776 18.6862 21.375H18.915V23.25ZM22.8525 17.3288H22.5C22.4072 17.3287 22.3172 17.3608 22.2454 17.4196C22.1737 17.4784 22.1245 17.5603 22.1062 17.6513C22.0321 18.0054 21.8921 18.3425 21.6937 18.645C21.637 18.7248 21.6114 18.8227 21.6217 18.9201C21.6321 19.0174 21.6777 19.1077 21.75 19.1738L21.99 19.4138L21.615 19.7888L21.375 19.5563C21.3082 19.4919 21.2219 19.4514 21.1296 19.4412C21.0373 19.431 20.9443 19.4517 20.865 19.5C20.5638 19.6993 20.2281 19.8405 19.875 19.9163C19.784 19.9359 19.7025 19.986 19.6438 20.0583C19.5852 20.1306 19.553 20.2207 19.5525 20.3138V20.6513H19.0087V20.3138C19.0083 20.2207 18.9761 20.1306 18.9174 20.0583C18.8588 19.986 18.7772 19.9359 18.6862 19.9163C18.3319 19.8409 17.9948 19.6997 17.6925 19.5C17.6136 19.4512 17.5208 19.4299 17.4286 19.4394C17.3363 19.4489 17.2498 19.4887 17.1825 19.5525L16.9425 19.7925L16.5675 19.4175L16.8075 19.1775C16.8734 19.1122 16.9147 19.0261 16.9243 18.9338C16.9339 18.8415 16.9111 18.7487 16.86 18.6713C16.6609 18.3677 16.521 18.0293 16.4475 17.6738C16.4285 17.5835 16.379 17.5025 16.3073 17.4444C16.2356 17.3863 16.146 17.3548 16.0537 17.355H15.7125V16.8075H16.0537C16.1432 16.8067 16.2298 16.7759 16.2998 16.7202C16.3697 16.6645 16.4191 16.587 16.44 16.5C16.5142 16.1459 16.6541 15.8088 16.8525 15.5063C16.9036 15.4288 16.9264 15.3361 16.9168 15.2438C16.9072 15.1515 16.8659 15.0653 16.8 15L16.56 14.76L16.935 14.385L17.175 14.625C17.2417 14.6901 17.3287 14.7303 17.4214 14.7392C17.5142 14.7481 17.6072 14.725 17.685 14.6738C17.9879 14.4711 18.3263 14.3273 18.6825 14.25C18.7742 14.2311 18.8566 14.1814 18.916 14.109C18.9753 14.0367 19.0081 13.9461 19.0087 13.8525V13.5H19.5487V13.8375C19.5459 13.9337 19.577 14.0278 19.6367 14.1032C19.6964 14.1787 19.7808 14.2306 19.875 14.25C20.2289 14.3229 20.566 14.4615 20.8687 14.6588C20.947 14.7081 21.0397 14.7294 21.1317 14.7191C21.2237 14.7089 21.3094 14.6678 21.375 14.6025L21.615 14.3625L21.99 14.7375L21.75 15C21.6841 15.0653 21.6428 15.1515 21.6332 15.2438C21.6236 15.3361 21.6464 15.4288 21.6975 15.5063C21.9029 15.8068 22.0481 16.1443 22.125 16.5C22.1446 16.591 22.1947 16.6726 22.267 16.7312C22.3393 16.7898 22.4294 16.8221 22.5225 16.8225H22.8637L22.8525 17.3288Z" fill="#F9F9F9"/>
<path d="M14.4186 10.6491L14.6586 10.3791L14.5764 10.306L14.3364 10.576L14.4186 10.6491ZM23.175 16.08L23.176 15.97H23.175V16.08ZM22.7662 16.08L22.6609 16.1117L22.6845 16.19H22.7662V16.08ZM22.4512 15.33L22.3735 15.2522L22.3151 15.3106L22.3549 15.383L22.4512 15.33ZM22.74 15.0413L22.8178 15.1191L22.8184 15.1185L22.74 15.0413ZM22.8576 14.7544H22.7476H22.8576ZM22.74 14.4675L22.8184 14.3903L22.8183 14.3903L22.74 14.4675ZM21.9 13.6163L21.9783 13.539L21.9765 13.5372L21.9 13.6163ZM21.3262 13.6163L21.2497 13.5372L21.2485 13.5385L21.3262 13.6163ZM21.0375 13.905L20.9833 14.0007L21.0561 14.042L21.1153 13.9828L21.0375 13.905ZM20.2875 13.59H20.1775V13.6728L20.2571 13.6957L20.2875 13.59ZM20.2875 13.185L20.1775 13.185V13.185H20.2875ZM19.875 12.78V12.89L19.877 12.89L19.875 12.78ZM18.2812 13.185H18.1712H18.2812ZM18.2812 13.5938L18.3117 13.6995L18.3912 13.6766V13.5938H18.2812ZM17.5312 13.9088L17.4524 13.9855L17.5116 14.0463L17.5854 14.0045L17.5312 13.9088ZM17.25 13.62L17.3288 13.5433L17.3272 13.5417L17.25 13.62ZM16.9631 13.5024V13.6124V13.5024ZM16.6762 13.62L16.599 13.5417L16.5985 13.5422L16.6762 13.62ZM15.8362 14.46L15.9137 14.5382L15.914 14.5378L15.8362 14.46ZM15.8362 15.03L15.914 14.9522L15.9137 14.9519L15.8362 15.03ZM16.125 15.3188L16.2215 15.3716L16.2611 15.2993L16.2028 15.241L16.125 15.3188ZM15.945 15.6938L15.9073 15.7971L16.0062 15.8331L16.0466 15.736L15.945 15.6938ZM14.5762 15.195L14.4857 15.2575L14.5056 15.2864L14.5386 15.2984L14.5762 15.195ZM14.0325 14.4075H13.9225V14.4418L13.942 14.47L14.0325 14.4075ZM14.0325 12.825L13.9547 12.7472L13.9225 12.7795V12.825H14.0325ZM14.0925 12.765L14.1706 12.8431L14.1768 12.8357L14.0925 12.765ZM14.6962 11.2988L14.5868 11.2878L14.5866 11.2896L14.6962 11.2988ZM14.7225 11.0363L14.6864 10.9324L14.62 10.9554L14.613 11.0253L14.7225 11.0363ZM15.5062 9.53627L15.3981 9.51637L15.3979 9.51754L15.5062 9.53627ZM15.405 7.70627L15.295 7.70481L15.2946 7.73619L15.3108 7.76307L15.405 7.70627ZM15.9262 6.75002L15.8657 6.65815L15.8654 6.65837L15.9262 6.75002ZM16.095 6.43502L16.205 6.43449L16.205 6.43339L16.095 6.43502ZM13.9312 1.36127L13.8524 1.43795L13.8737 1.45989L13.9033 1.46766L13.9312 1.36127ZM5.835 0.851271L5.79349 0.74924L5.7883 0.751674L5.835 0.851271ZM5.625 1.12502L5.51668 1.10572L5.51632 1.10798L5.625 1.12502ZM5.74125 1.45877L5.66664 1.53967L5.6692 1.5419L5.74125 1.45877ZM5.91 1.60502L5.97889 1.69078L6.08165 1.60822L5.98204 1.5219L5.91 1.60502ZM4.20375 6.33752L4.09375 6.33771L4.09375 6.33798L4.20375 6.33752ZM4.3125 6.60002L4.39605 6.52806L4.3906 6.52256L4.3125 6.60002ZM4.8375 7.82252L4.93319 7.87677L4.95045 7.84633L4.94694 7.81151L4.8375 7.82252ZM4.7625 9.53627L4.87065 9.51615L4.87044 9.51511L4.7625 9.53627ZM5.57625 11.0363L5.53771 11.1393L5.55635 11.1463H5.57625V11.0363ZM5.595 11.0363L5.70442 11.025L5.69425 10.9263H5.595V11.0363ZM5.62125 11.2913L5.73094 11.2826L5.73067 11.28L5.62125 11.2913ZM6.21375 12.75L6.12912 12.8203L6.12993 12.8213L6.21375 12.75ZM6.42375 12.975H6.53375V12.9295L6.50153 12.8972L6.42375 12.975ZM6.42375 14.2163L6.49558 14.2996L6.53375 14.2667V14.2163H6.42375ZM6.3375 14.3063L6.25104 14.2379L6.24711 14.2436L6.3375 14.3063ZM5.72625 15.1875L5.76416 15.2908L5.79681 15.2788L5.81663 15.2502L5.72625 15.1875ZM2.325 16.4363V16.5463H2.34455L2.36291 16.5395L2.325 16.4363ZM2.2725 16.4363V16.3263H2.25079L2.23072 16.3345L2.2725 16.4363ZM0.708747 18.6863L0.81859 18.6928L0.818685 18.69L0.708747 18.6863ZM0.419997 23.5613L0.310179 23.5548L0.31011 23.5563L0.419997 23.5613ZM0.521247 23.835L0.441042 23.9103L0.44268 23.912L0.521247 23.835ZM0.783747 23.9475L0.78218 24.0575L0.783128 24.0575L0.783747 23.9475ZM10.125 24L10.1244 24.11H10.125V24ZM19.6537 21.375V21.265H19.5437V21.375H19.6537ZM19.875 21.375V21.485V21.375ZM20.28 20.565L20.2496 20.4593L20.17 20.4822V20.565H20.28ZM21.03 20.25L21.1083 20.1727L21.0491 20.1128L20.9758 20.1543L21.03 20.25ZM21.3187 20.5425L21.2404 20.6198L21.2422 20.6216L21.3187 20.5425ZM21.8925 20.5425L21.969 20.6216L21.9703 20.6203L21.8925 20.5425ZM22.7287 19.7063L22.652 19.6275L22.651 19.6285L22.7287 19.7063ZM22.8487 19.4175L22.9588 19.4164L22.9587 19.414L22.8487 19.4175ZM22.7325 19.1325L22.8136 19.0581L22.8103 19.0547L22.7325 19.1325ZM22.4437 18.8438L22.3472 18.791L22.3077 18.8633L22.366 18.9216L22.4437 18.8438ZM22.7587 18.0938V17.9838H22.6772L22.6535 18.0618L22.7587 18.0938ZM23.175 18.0938V18.2038L23.176 18.2038L23.175 18.0938ZM23.58 17.6888L23.69 17.6898V17.6888H23.58ZM23.58 16.5L23.47 16.497V16.5H23.58ZM7.15125 13.6125L7.21652 13.524L7.04125 13.3948V13.6125H7.15125ZM8.43375 14.415L8.48498 14.3177L8.48483 14.3176L8.43375 14.415ZM9.015 14.5613L9.01406 14.6713H9.015V14.5613ZM11.265 14.5613V14.6713L11.2657 14.6713L11.265 14.5613ZM11.8425 14.415L11.7918 14.3174L11.7908 14.3179L11.8425 14.415ZM13.2862 13.5H13.3962V13.2781L13.2196 13.4125L13.2862 13.5ZM13.2862 14.2125L13.3538 14.2993L13.3962 14.2663V14.2125H13.2862ZM13.2525 14.2388L13.1844 14.1513L13.1747 14.161L13.2525 14.2388ZM13.215 14.2763L13.1367 14.1979L13.1286 14.2082L13.215 14.2763ZM13.0612 14.4713L13.1399 14.5491L13.1476 14.5394L13.0612 14.4713ZM10.1475 17.415L10.0686 17.4916L10.1467 17.5721L10.2257 17.4924L10.1475 17.415ZM7.26375 14.445L7.34284 14.3682L7.33733 14.3633L7.26375 14.445ZM7.15125 14.3438H7.04125V14.3928L7.07766 14.4255L7.15125 14.3438ZM12.4425 19.2375L12.3753 19.3246L12.4895 19.4127L12.5443 19.2793L12.4425 19.2375ZM10.6912 17.8875L10.6131 17.8101L10.5255 17.8986L10.6241 17.9746L10.6912 17.8875ZM13.5487 15L13.6394 14.9377L13.564 14.8282L13.4706 14.9226L13.5487 15ZM13.9537 15.5888L14.0553 15.6311L14.0783 15.5758L14.0444 15.5264L13.9537 15.5888ZM13.0162 17.8388L12.9147 17.7965L12.9145 17.797L13.0162 17.8388ZM6.675 1.96877L6.73091 2.06352L6.73261 2.06248L6.675 1.96877ZM6.85125 1.69127L6.96063 1.70359L6.96094 1.69953L6.85125 1.69127ZM6.7275 1.38377L6.65264 1.46439L6.65411 1.46571L6.7275 1.38377ZM6.675 1.33502L6.64148 1.23025L6.46225 1.28758L6.60015 1.41563L6.675 1.33502ZM13.4737 1.94627L13.393 2.02096L13.3938 2.02186L13.4737 1.94627ZM13.6687 2.05877L13.6433 2.16584L13.6467 2.16653L13.6687 2.05877ZM15.3637 6.26627L15.4332 6.35155L15.475 6.31748L15.4737 6.26355L15.3637 6.26627ZM14.7262 7.33877H14.6162L14.8344 7.35905L14.7262 7.33877ZM14.5387 6.05627L14.4304 6.07656L14.4323 6.08404L14.5387 6.05627ZM14.4862 5.85002L14.381 5.88205L14.3816 5.88394L14.4862 5.85002ZM13.8975 4.69502L13.8123 4.76457L13.8124 4.76468L13.8975 4.69502ZM13.7025 4.48127L13.6195 4.55392L13.6254 4.55977L13.7025 4.48127ZM13.62 4.38752L13.6978 4.30973L13.6966 4.30855L13.62 4.38752ZM13.3012 4.11752L13.3666 4.029L13.3653 4.02809L13.3012 4.11752ZM12.9 4.09502L12.8463 3.99899L12.8457 3.99936L12.9 4.09502ZM9.195 4.50002L9.18073 4.6091L9.1815 4.60919L9.195 4.50002ZM8.02875 4.51877L8.01098 4.41021L8.01035 4.41032L8.02875 4.51877ZM5.60625 7.43252V7.54252H5.70842L5.71595 7.44062L5.60625 7.43252ZM5.49375 7.43252L5.38572 7.45324L5.40284 7.54252H5.49375V7.43252ZM4.92 6.19502L4.81 6.19386L4.80959 6.23334L4.83438 6.26408L4.92 6.19502ZM6.27375 10.5938L6.38379 10.586L6.38258 10.5778L6.27375 10.5938ZM6.045 10.3013L6.0029 10.4029L6.00326 10.403L6.045 10.3013ZM5.91 10.275L5.90967 10.385L5.91094 10.385L5.91 10.275ZM5.77125 10.2975L5.67523 10.3512L5.71978 10.4309L5.80631 10.4018L5.77125 10.2975ZM5.43375 9.24002L5.54401 9.22805L5.54069 9.21425L5.43375 9.24002ZM5.43375 8.20877L5.36067 8.12656L5.33489 8.14947L5.32681 8.183L5.43375 8.20877ZM5.4675 8.17877L5.45555 8.06942L5.42066 8.07323L5.39442 8.09656L5.4675 8.17877ZM5.8425 8.20502L5.81541 8.31176L5.82041 8.31278L5.8425 8.20502ZM6.2925 7.85252L6.4025 7.85688V7.85252H6.2925ZM8.1225 5.22752L8.10565 5.11877L8.1025 5.11935L8.1225 5.22752ZM9.0825 5.22752L9.06564 5.33629L9.06945 5.33675L9.0825 5.22752ZM13.0087 4.82627L13.082 4.74423L13.0294 4.69721L12.9647 4.72548L13.0087 4.82627ZM13.98 7.74002L14.09 7.7411V7.74002H13.98ZM14.3025 8.11502L14.2871 8.22397L14.2898 8.22428L14.3025 8.11502ZM14.7862 8.17127L14.8952 8.15622L14.8836 8.07185L14.799 8.06201L14.7862 8.17127ZM14.4825 10.3013L14.4463 10.4051L14.5417 10.4384L14.5829 10.3462L14.4825 10.3013ZM13.9875 10.605L13.8784 10.5902L13.878 10.5946L13.9875 10.605ZM13.9275 11.235L13.818 11.2246L13.8179 11.2255L13.9275 11.235ZM13.4925 12.3L13.5754 12.3724L13.5774 12.37L13.4925 12.3ZM13.065 12.7238L13.136 12.8078L13.1366 12.8073L13.065 12.7238ZM11.4825 13.7813L11.4321 13.6835L11.4309 13.6841L11.4825 13.7813ZM11.2462 13.8413V13.9513L11.2473 13.9513L11.2462 13.8413ZM9 13.8413L8.99847 13.9513H9V13.8413ZM8.76 13.7813L8.70918 13.8788L8.70958 13.879L8.76 13.7813ZM7.2375 12.7763L7.16663 12.8604L7.16776 12.8613L7.2375 12.7763ZM6.75375 12.2963L6.6696 12.3671L6.67017 12.3678L6.75375 12.2963ZM6.31875 11.235L6.20901 11.2427L6.20908 11.2436L6.31875 11.235ZM6.75 14.9775L6.82889 14.9009L6.7344 14.8036L6.65872 14.9161L6.75 14.9775ZM9.585 17.895L9.65226 17.9821L9.74975 17.9067L9.66389 17.8184L9.585 17.895ZM9.5025 17.9588L9.56947 18.046L9.56976 18.0458L9.5025 17.9588ZM7.84125 19.2338L7.73983 19.2764L7.79506 19.4079L7.90822 19.321L7.84125 19.2338ZM6.89625 16.9838L6.79462 17.0259L6.79483 17.0264L6.89625 16.9838ZM6.32625 15.6075L6.23497 15.5461L6.20204 15.5951L6.22462 15.6496L6.32625 15.6075ZM1.43625 18.75L1.54615 18.7565L1.54623 18.752L1.43625 18.75ZM2.4975 17.1338V17.0238H2.47366L2.45197 17.0336L2.4975 17.1338ZM2.55 17.1338V17.2438H2.56941L2.58765 17.2371L2.55 17.1338ZM5.7 15.9863L5.80163 15.9442L5.76132 15.8469L5.66235 15.8829L5.7 15.9863ZM6.27 17.3625L6.16837 17.4046L6.16845 17.4048L6.27 17.3625ZM7.2225 19.65L7.32515 19.6104L7.32404 19.6077L7.2225 19.65ZM7.5075 19.9725L7.45523 20.0701L7.46664 20.0747L7.5075 19.9725ZM7.60125 20.01L7.56039 20.1122L7.58006 20.12H7.60125V20.01ZM7.6725 20.01L7.68326 19.9H7.6725V20.01ZM7.785 20.01V19.8995L7.77428 19.9005L7.785 20.01ZM7.8225 20.01V20.1203L7.83079 20.1197L7.8225 20.01ZM7.96125 19.9875V19.8775H7.94764L7.93445 19.8808L7.96125 19.9875ZM8.01 19.9875V20.0975H8.03141L8.05126 20.0895L8.01 19.9875ZM8.16375 19.9013L8.22926 19.9896L8.23031 19.9888L8.16375 19.9013ZM8.53875 19.6163L8.60531 19.7039L8.6058 19.7035L8.53875 19.6163ZM9.7725 18.6675H9.8825V18.4442L9.70544 18.5803L9.7725 18.6675ZM9.7725 23.25V23.36H9.8825V23.25H9.7725ZM4.5 23.25H4.39V23.36H4.5V23.25ZM4.5 21.9H4.61V21.8864L4.6067 21.8733L4.5 21.9ZM3.7725 21.9L3.6658 21.8733L3.6625 21.8864V21.9H3.7725ZM3.7725 23.25V23.36H3.8825V23.25H3.7725ZM1.17 23.25L1.06019 23.2435L1.0533 23.36H1.17V23.25ZM18.915 23.25V23.36H19.025V23.25H18.915ZM16.29 23.25H16.18V23.36H16.29V23.25ZM16.29 21.915H16.4V21.9003L16.3961 21.8862L16.29 21.915ZM15.5662 21.915L15.4601 21.8862L15.4562 21.9003V21.915H15.5662ZM15.5662 23.2688V23.3788H15.6762V23.2688H15.5662ZM10.5 23.2688H10.39V23.3788H10.5V23.2688ZM10.5 18.6675L10.567 18.5803L10.39 18.4443V18.6675H10.5ZM12.0712 19.875L12.1383 19.7878L12.1383 19.7878L12.0712 19.875ZM12.12 19.9125L12.0529 19.9997L12.0533 20L12.12 19.9125ZM12.2737 19.995L12.2377 20.099L12.2552 20.105H12.2737V19.995ZM12.315 19.995L12.3438 19.8889L12.3297 19.885H12.315V19.995ZM12.4612 20.0175L12.4568 20.1275H12.4612V20.0175ZM12.4912 20.0175V20.1275L12.4924 20.1275L12.4912 20.0175ZM12.6187 19.9988V19.8888H12.6031L12.5882 19.8931L12.6187 19.9988ZM12.6412 19.9988V20.1088H12.6561L12.6705 20.1048L12.6412 19.9988ZM12.7575 19.9538L12.8073 20.0519L12.8094 20.0507L12.7575 19.9538ZM13.0425 19.6313L12.9409 19.589L12.9399 19.5916L13.0425 19.6313ZM13.7062 18.0375L13.8078 18.0798L13.8079 18.0797L13.7062 18.0375ZM14.565 15.9675L14.603 15.8643L14.5039 15.8278L14.4634 15.9254L14.565 15.9675ZM15.105 16.1663L15.171 16.2543L15.3328 16.1329L15.143 16.063L15.105 16.1663ZM14.955 16.47H15.065L15.065 16.4689L14.955 16.47ZM14.955 17.6588L15.065 17.6618V17.6588H14.955ZM15.375 18.0788V17.9687L15.3719 17.9688L15.375 18.0788ZM15.7837 18.0788L15.889 18.0468L15.8653 17.9688H15.7837V18.0788ZM16.0987 18.8288L16.1765 18.9066L16.2348 18.8483L16.1953 18.776L16.0987 18.8288ZM15.81 19.1175L15.7322 19.0397L15.7316 19.0403L15.81 19.1175ZM15.6924 19.4044H15.8024H15.6924ZM15.81 19.6913L15.7316 19.7685L15.7322 19.7691L15.81 19.6913ZM16.65 20.5313L16.5722 20.6091L16.5735 20.6103L16.65 20.5313ZM17.2237 20.5313L17.3003 20.6103L17.3015 20.6091L17.2237 20.5313ZM17.5125 20.2425L17.5667 20.1468L17.4939 20.1056L17.4347 20.1647L17.5125 20.2425ZM18.2625 20.5575H18.3725V20.4747L18.2929 20.4518L18.2625 20.5575ZM18.2625 20.9663L18.3725 20.9674V20.9663H18.2625ZM18.6862 21.375V21.2649L18.6812 21.2651L18.6862 21.375ZM18.915 21.375H19.025V21.265H18.915V21.375ZM22.8525 17.3288V17.4388H22.9601L22.9625 17.3312L22.8525 17.3288ZM22.5 17.3288L22.4999 17.4388H22.5V17.3288ZM22.1062 17.6513L22.2139 17.6738L22.2141 17.6729L22.1062 17.6513ZM21.6937 18.645L21.7834 18.7088L21.7857 18.7053L21.6937 18.645ZM21.75 19.1738L21.8279 19.0959L21.8242 19.0926L21.75 19.1738ZM21.99 19.4138L22.0678 19.4916L22.1456 19.4138L22.0678 19.336L21.99 19.4138ZM21.615 19.7888L21.5385 19.8678L21.6162 19.9431L21.6928 19.8666L21.615 19.7888ZM21.375 19.5563L21.4515 19.4773L21.4513 19.4771L21.375 19.5563ZM20.865 19.5L20.8077 19.406L20.8043 19.4083L20.865 19.5ZM19.875 19.9163L19.8519 19.8087L19.8518 19.8087L19.875 19.9163ZM19.5525 20.3138L19.4425 20.3132V20.3138H19.5525ZM19.5525 20.6513V20.7613H19.6625V20.6513H19.5525ZM19.0087 20.6513H18.8987V20.7613H19.0087V20.6513ZM19.0087 20.3138H19.1187L19.1187 20.3132L19.0087 20.3138ZM18.6862 19.9163L18.7095 19.8087L18.7091 19.8087L18.6862 19.9163ZM17.6925 19.5L17.7532 19.4082L17.7504 19.4065L17.6925 19.5ZM17.1825 19.5525L17.1068 19.4727L17.1047 19.4747L17.1825 19.5525ZM16.9425 19.7925L16.8647 19.8703L16.9425 19.9481L17.0203 19.8703L16.9425 19.7925ZM16.5675 19.4175L16.4897 19.3397L16.4119 19.4175L16.4897 19.4953L16.5675 19.4175ZM16.8075 19.1775L16.7301 19.0994L16.7297 19.0997L16.8075 19.1775ZM16.86 18.6713L16.768 18.7316L16.7682 18.7319L16.86 18.6713ZM16.4475 17.6738L16.5552 17.6515L16.5551 17.6512L16.4475 17.6738ZM16.0537 17.355V17.465L16.054 17.465L16.0537 17.355ZM15.7125 17.355H15.6025V17.465H15.7125V17.355ZM15.7125 16.8075V16.6975H15.6025V16.8075H15.7125ZM16.0537 16.8075V16.9175L16.0548 16.9175L16.0537 16.8075ZM16.44 16.5L16.547 16.5257L16.5477 16.5226L16.44 16.5ZM16.8525 15.5063L16.7607 15.4457L16.7605 15.446L16.8525 15.5063ZM16.8 15L16.7222 15.0778L16.7226 15.0782L16.8 15ZM16.56 14.76L16.4822 14.6822L16.4044 14.76L16.4822 14.8378L16.56 14.76ZM16.935 14.385L17.0128 14.3072L16.935 14.2295L16.8572 14.3072L16.935 14.385ZM17.175 14.625L17.0972 14.7028L17.0982 14.7038L17.175 14.625ZM17.685 14.6738L17.7455 14.7657L17.7462 14.7652L17.685 14.6738ZM18.6825 14.25L18.6603 14.1423L18.6592 14.1425L18.6825 14.25ZM19.0087 13.8525L19.1187 13.8533V13.8525H19.0087ZM19.0087 13.5V13.39H18.8987V13.5H19.0087ZM19.5487 13.5H19.6587V13.39H19.5487V13.5ZM19.5487 13.8375L19.6587 13.8408V13.8375H19.5487ZM19.875 14.25L19.8972 14.1423L19.8972 14.1423L19.875 14.25ZM20.8687 14.6588L20.8087 14.751L20.8101 14.7519L20.8687 14.6588ZM21.375 14.6025L21.4526 14.6805L21.4528 14.6803L21.375 14.6025ZM21.615 14.3625L21.6928 14.2847L21.615 14.207L21.5372 14.2847L21.615 14.3625ZM21.99 14.7375L22.0712 14.8117L22.1422 14.7341L22.0678 14.6597L21.99 14.7375ZM21.75 15L21.8275 15.0783L21.8312 15.0742L21.75 15ZM21.6975 15.5063L21.6057 15.5669L21.6067 15.5683L21.6975 15.5063ZM22.125 16.5L22.2325 16.4768L22.2325 16.4768L22.125 16.5ZM22.5225 16.8225L22.5219 16.9325H22.5225V16.8225ZM22.8637 16.8225L22.9737 16.825L22.9762 16.7125H22.8637V16.8225ZM23.175 15.97H22.7662V16.19H23.175V15.97ZM22.8716 16.0483C22.791 15.7806 22.6824 15.522 22.5476 15.277L22.3549 15.383C22.4822 15.6145 22.5848 15.8588 22.6609 16.1117L22.8716 16.0483ZM22.529 15.4078L22.8178 15.1191L22.6622 14.9635L22.3735 15.2522L22.529 15.4078ZM22.8184 15.1185C22.914 15.0214 22.9676 14.8906 22.9676 14.7544H22.7476C22.7476 14.8329 22.7167 14.9082 22.6616 14.9641L22.8184 15.1185ZM22.9676 14.7544C22.9676 14.6182 22.914 14.4874 22.8184 14.3903L22.6616 14.5447C22.7167 14.6006 22.7476 14.6759 22.7476 14.7544H22.9676ZM22.8183 14.3903L21.9783 13.539L21.8217 13.6935L22.6617 14.5448L22.8183 14.3903ZM21.9765 13.5372C21.879 13.4429 21.7487 13.3902 21.6131 13.3902V13.6102C21.6916 13.6102 21.7671 13.6407 21.8235 13.6953L21.9765 13.5372ZM21.6131 13.3902C21.4775 13.3902 21.3472 13.4429 21.2497 13.5372L21.4027 13.6953C21.4592 13.6407 21.5346 13.6102 21.6131 13.6102V13.3902ZM21.2485 13.5385L20.9597 13.8272L21.1153 13.9828L21.404 13.6941L21.2485 13.5385ZM21.0917 13.8093C20.8474 13.671 20.5877 13.5619 20.3179 13.4843L20.2571 13.6957C20.5103 13.7686 20.754 13.8709 20.9833 14.0007L21.0917 13.8093ZM20.3975 13.59V13.185H20.1775V13.59H20.3975ZM20.3975 13.185C20.3975 13.1166 20.3839 13.0488 20.3574 12.9857L20.1545 13.0708C20.1697 13.107 20.1775 13.1458 20.1775 13.185L20.3975 13.185ZM20.3574 12.9857C20.3309 12.9226 20.2921 12.8654 20.2433 12.8175L20.0892 12.9745C20.1171 13.0019 20.1394 13.0347 20.1545 13.0708L20.3574 12.9857ZM20.2433 12.8175C20.1945 12.7695 20.1366 12.7318 20.073 12.7065L19.9916 12.9109C20.028 12.9254 20.0612 12.947 20.0892 12.9745L20.2433 12.8175ZM20.073 12.7065C20.0094 12.6812 19.9414 12.6688 19.873 12.67L19.877 12.89C19.9162 12.8893 19.9552 12.8964 19.9916 12.9109L20.073 12.7065ZM19.875 12.67H18.6862V12.89H19.875V12.67ZM18.6862 12.67C18.5497 12.67 18.4187 12.7243 18.3221 12.8209L18.4777 12.9764C18.533 12.9211 18.608 12.89 18.6862 12.89V12.67ZM18.3221 12.8209C18.2255 12.9174 18.1712 13.0484 18.1712 13.185H18.3912C18.3912 13.1068 18.4223 13.0317 18.4777 12.9764L18.3221 12.8209ZM18.1712 13.185V13.5938H18.3912V13.185H18.1712ZM18.2508 13.4881C17.9811 13.5657 17.7213 13.6747 17.4771 13.813L17.5854 14.0045C17.8147 13.8747 18.0585 13.7723 18.3117 13.6995L18.2508 13.4881ZM17.61 13.832L17.3288 13.5433L17.1712 13.6968L17.4524 13.9855L17.61 13.832ZM17.3272 13.5417C17.2301 13.446 17.0994 13.3924 16.9631 13.3924V13.6124C17.0416 13.6124 17.1169 13.6433 17.1728 13.6984L17.3272 13.5417ZM16.9631 13.3924C16.8269 13.3924 16.6961 13.446 16.599 13.5417L16.7535 13.6984C16.8093 13.6433 16.8847 13.6124 16.9631 13.6124V13.3924ZM16.5985 13.5422L15.7585 14.3822L15.914 14.5378L16.754 13.6978L16.5985 13.5422ZM15.7588 14.3819C15.7109 14.4294 15.6728 14.486 15.6468 14.5483L15.8499 14.633C15.8647 14.5975 15.8864 14.5652 15.9137 14.5382L15.7588 14.3819ZM15.6468 14.5483C15.6208 14.6106 15.6074 14.6775 15.6074 14.745H15.8274C15.8274 14.7066 15.8351 14.6685 15.8499 14.633L15.6468 14.5483ZM15.6074 14.745C15.6074 14.8125 15.6208 14.8794 15.6468 14.9417L15.8499 14.8571C15.8351 14.8216 15.8274 14.7835 15.8274 14.745H15.6074ZM15.6468 14.9417C15.6728 15.0041 15.7109 15.0606 15.7588 15.1082L15.9137 14.9519C15.8864 14.9248 15.8647 14.8926 15.8499 14.8571L15.6468 14.9417ZM15.7585 15.1078L16.0472 15.3966L16.2028 15.241L15.914 14.9522L15.7585 15.1078ZM16.0285 15.2659C15.96 15.3911 15.8982 15.5198 15.8434 15.6516L16.0466 15.736C16.0983 15.6115 16.1567 15.4899 16.2215 15.3716L16.0285 15.2659ZM15.9827 15.5904L14.6139 15.0917L14.5386 15.2984L15.9073 15.7971L15.9827 15.5904ZM14.6668 15.1325L14.123 14.345L13.942 14.47L14.4857 15.2575L14.6668 15.1325ZM14.1425 14.4075V12.825H13.9225V14.4075H14.1425ZM14.1103 12.9028L14.1703 12.8428L14.0147 12.6872L13.9547 12.7472L14.1103 12.9028ZM14.1768 12.8357C14.539 12.4035 14.7587 11.8699 14.8059 11.308L14.5866 11.2896C14.5432 11.8063 14.3412 12.2969 14.0082 12.6944L14.1768 12.8357ZM14.8057 11.3097L14.832 11.0472L14.613 11.0253L14.5868 11.2878L14.8057 11.3097ZM14.7586 11.1402C15.0295 11.0462 15.2158 10.7874 15.3454 10.5003C15.4769 10.2089 15.5614 9.86298 15.6146 9.55501L15.3979 9.51754C15.3461 9.81706 15.2655 10.1424 15.1449 10.4098C15.0223 10.6814 14.8693 10.8689 14.6864 10.9324L14.7586 11.1402ZM15.6144 9.55617C15.645 9.39003 15.6977 9.05341 15.7034 8.69193C15.7091 8.33556 15.6699 7.93261 15.4992 7.64947L15.3108 7.76307C15.4476 7.98993 15.489 8.33886 15.4834 8.68842C15.478 9.03288 15.4275 9.35626 15.3981 9.51637L15.6144 9.55617ZM15.515 7.70773C15.5173 7.53586 15.5615 7.36714 15.6437 7.21621L15.4506 7.11092C15.3512 7.29328 15.2978 7.49714 15.295 7.70481L15.515 7.70773ZM15.6437 7.21621C15.726 7.06529 15.8439 6.93672 15.9871 6.84167L15.8654 6.65837C15.6924 6.77321 15.55 6.92856 15.4506 7.11092L15.6437 7.21621ZM15.9867 6.84189C16.0541 6.7975 16.1094 6.737 16.1475 6.66586L15.9536 6.56197C15.9328 6.60084 15.9026 6.6339 15.8657 6.65815L15.9867 6.84189ZM16.1475 6.66586C16.1856 6.59472 16.2054 6.51519 16.205 6.43449L15.985 6.43555C15.9852 6.47965 15.9744 6.5231 15.9536 6.56197L16.1475 6.66586ZM16.205 6.43339C16.1824 4.90687 15.9943 3.71476 15.6276 2.85379C15.2593 1.9891 14.7069 1.45124 13.9592 1.25488L13.9033 1.46766C14.5693 1.64256 15.0763 2.12094 15.4252 2.94C15.7757 3.76279 15.9626 4.92193 15.985 6.43665L16.205 6.43339ZM14.0101 1.28459C12.6606 -0.103493 10.6464 -0.249081 8.9687 -0.0492063C7.2861 0.151251 5.90772 0.702937 5.79355 0.749379L5.87644 0.953164C5.98353 0.909606 7.34077 0.366292 8.99473 0.169249C10.6536 -0.0283764 12.5769 0.126035 13.8524 1.43795L14.0101 1.28459ZM5.7883 0.751674C5.718 0.784636 5.65663 0.833997 5.60937 0.895608L5.78392 1.02951C5.80975 0.99585 5.84328 0.968879 5.88169 0.950869L5.7883 0.751674ZM5.60937 0.895608C5.5621 0.957219 5.53032 1.02928 5.5167 1.10572L5.73329 1.14432C5.74073 1.10255 5.7581 1.06318 5.78392 1.02951L5.60937 0.895608ZM5.51632 1.10798C5.50398 1.18675 5.51124 1.26734 5.53746 1.34263L5.74522 1.27027C5.73089 1.22913 5.72692 1.18509 5.73367 1.14206L5.51632 1.10798ZM5.53746 1.34263C5.56368 1.41792 5.60807 1.48559 5.66667 1.53963L5.81582 1.37791C5.7838 1.34838 5.75955 1.3114 5.74522 1.27027L5.53746 1.34263ZM5.6692 1.5419L5.83795 1.68815L5.98204 1.5219L5.81329 1.37565L5.6692 1.5419ZM5.84111 1.51927C4.67889 2.45291 4.08997 4.07941 4.09375 6.33771L4.31375 6.33734C4.31002 4.11063 4.8911 2.56463 5.97889 1.69078L5.84111 1.51927ZM4.09375 6.33798C4.09428 6.46522 4.1448 6.58715 4.2344 6.67748L4.3906 6.52256C4.34164 6.4732 4.31404 6.40658 4.31375 6.33706L4.09375 6.33798ZM4.22915 6.67181C4.5107 6.99869 4.68488 7.40427 4.72805 7.83353L4.94694 7.81151C4.89926 7.33734 4.70685 6.88932 4.39584 6.52823L4.22915 6.67181ZM4.74181 7.76827C4.59179 8.03288 4.55493 8.39039 4.56064 8.71648C4.56642 9.04643 4.61638 9.36273 4.65455 9.55744L4.87044 9.51511C4.83362 9.32731 4.78608 9.02487 4.7806 8.71263C4.77507 8.39653 4.8132 8.08842 4.93319 7.87677L4.74181 7.76827ZM4.65435 9.55639C4.70013 9.80245 4.78273 10.141 4.91854 10.4438C5.05197 10.7413 5.24871 11.0312 5.53771 11.1393L5.61478 10.9332C5.41254 10.8576 5.2474 10.6394 5.11927 10.3538C4.99351 10.0734 4.91486 9.75384 4.87064 9.51615L4.65435 9.55639ZM5.57625 11.1463H5.595V10.9263H5.57625V11.1463ZM5.48558 11.0475L5.51183 11.3025L5.73067 11.28L5.70442 11.025L5.48558 11.0475ZM5.51159 11.2999C5.55551 11.8583 5.77124 12.3894 6.12913 12.8203L6.29836 12.6797C5.9695 12.2838 5.77127 11.7958 5.73091 11.2826L5.51159 11.2999ZM6.12993 12.8213C6.19631 12.8993 6.2698 12.9766 6.34596 13.0528L6.50153 12.8972C6.42769 12.8234 6.35869 12.7507 6.29756 12.6788L6.12993 12.8213ZM6.31375 12.975V14.2163H6.53375V12.975H6.31375ZM6.35191 14.133C6.31509 14.1647 6.28137 14.1999 6.25121 14.238L6.42379 14.3745C6.44529 14.3473 6.46932 14.3222 6.49558 14.2996L6.35191 14.133ZM6.24711 14.2436L5.63586 15.1248L5.81663 15.2502L6.42788 14.369L6.24711 14.2436ZM5.68834 15.0843L2.28709 16.333L2.36291 16.5395L5.76416 15.2908L5.68834 15.0843ZM2.325 16.3263H2.2725V16.5463H2.325V16.3263ZM2.23072 16.3345C1.76147 16.5272 1.35785 16.8513 1.06836 17.2678L1.24901 17.3934C1.51432 17.0116 1.88423 16.7146 2.31428 16.538L2.23072 16.3345ZM1.06836 17.2678C0.778864 17.6843 0.615816 18.1756 0.598808 18.6826L0.818685 18.69C0.834272 18.2253 0.9837 17.7751 1.24901 17.3934L1.06836 17.2678ZM0.598939 18.6798L0.310189 23.5548L0.529804 23.5678L0.818554 18.6928L0.598939 18.6798ZM0.31011 23.5563C0.307163 23.621 0.317234 23.6857 0.339726 23.7466L0.546065 23.6702C0.533775 23.637 0.528273 23.6017 0.529883 23.5663L0.31011 23.5563ZM0.339726 23.7466C0.362218 23.8074 0.396675 23.8631 0.44106 23.9103L0.601433 23.7597C0.577182 23.7339 0.558354 23.7035 0.546065 23.6702L0.339726 23.7466ZM0.44268 23.912C0.532226 24.0034 0.654252 24.0557 0.78218 24.0575L0.785313 23.8375C0.715414 23.8365 0.64874 23.808 0.599813 23.758L0.44268 23.912ZM0.783128 24.0575L10.1244 24.11L10.1256 23.89L0.784365 23.8375L0.783128 24.0575ZM10.125 24.11H19.2787V23.89H10.125V24.11ZM19.2787 24.11C19.4074 24.11 19.5307 24.0589 19.6217 23.968L19.4661 23.8124C19.4164 23.8621 19.349 23.89 19.2787 23.89V24.11ZM19.6217 23.968C19.7127 23.877 19.7637 23.7537 19.7637 23.625H19.5437C19.5437 23.6953 19.5158 23.7627 19.4661 23.8124L19.6217 23.968ZM19.7637 23.625V21.375H19.5437V23.625H19.7637ZM19.6537 21.485H19.875V21.265H19.6537V21.485ZM19.875 21.485C20.0116 21.485 20.1426 21.4308 20.2392 21.3342L20.0836 21.1786C20.0283 21.2339 19.9532 21.265 19.875 21.265V21.485ZM20.2392 21.3342C20.3357 21.2376 20.39 21.1066 20.39 20.97H20.17C20.17 21.0483 20.1389 21.1233 20.0836 21.1786L20.2392 21.3342ZM20.39 20.97V20.565H20.17V20.97H20.39ZM20.3104 20.6707C20.5802 20.5931 20.8399 20.484 21.0842 20.3457L20.9758 20.1543C20.7465 20.2841 20.5028 20.3865 20.2496 20.4593L20.3104 20.6707ZM20.9517 20.3273L21.2405 20.6198L21.397 20.4652L21.1083 20.1727L20.9517 20.3273ZM21.2422 20.6216C21.3397 20.7159 21.47 20.7686 21.6056 20.7686V20.5486C21.5271 20.5486 21.4517 20.5181 21.3952 20.4635L21.2422 20.6216ZM21.6056 20.7686C21.7412 20.7686 21.8715 20.7159 21.969 20.6216L21.816 20.4635C21.7596 20.5181 21.6841 20.5486 21.6056 20.5486V20.7686ZM21.9703 20.6203L22.8065 19.7841L22.651 19.6285L21.8147 20.4647L21.9703 20.6203ZM22.8055 19.785C22.8547 19.7371 22.8936 19.6798 22.9199 19.6164L22.7168 19.532C22.7018 19.5679 22.6798 19.6004 22.652 19.6275L22.8055 19.785ZM22.9199 19.6164C22.9462 19.553 22.9595 19.485 22.9587 19.4164L22.7388 19.4187C22.7392 19.4575 22.7317 19.4961 22.7168 19.532L22.9199 19.6164ZM22.9587 19.414C22.9545 19.2818 22.9029 19.1556 22.8135 19.0581L22.6515 19.2069C22.7053 19.2655 22.7363 19.3415 22.7388 19.421L22.9587 19.414ZM22.8103 19.0547L22.5215 18.766L22.366 18.9216L22.6547 19.2103L22.8103 19.0547ZM22.5403 18.8965C22.6743 18.6514 22.7828 18.3931 22.864 18.1258L22.6535 18.0618C22.5766 18.3147 22.474 18.5591 22.3472 18.791L22.5403 18.8965ZM22.7587 18.2038H23.175V17.9838H22.7587V18.2038ZM23.176 18.2038C23.3119 18.2025 23.442 18.148 23.5381 18.0518L23.3825 17.8963C23.3272 17.9516 23.2523 17.9831 23.174 17.9838L23.176 18.2038ZM23.5381 18.0518C23.6342 17.9557 23.6888 17.8257 23.69 17.6898L23.47 17.6878C23.4693 17.7661 23.4379 17.8409 23.3825 17.8963L23.5381 18.0518ZM23.69 17.6888V16.5H23.47V17.6888H23.69ZM23.69 16.5031C23.6919 16.4341 23.68 16.3655 23.6551 16.3013L23.45 16.3808C23.4643 16.4178 23.4711 16.4573 23.47 16.497L23.69 16.5031ZM23.6551 16.3013C23.6302 16.237 23.5927 16.1783 23.5448 16.1287L23.3865 16.2814C23.414 16.31 23.4356 16.3438 23.45 16.3808L23.6551 16.3013ZM23.5448 16.1287C23.497 16.079 23.4397 16.0395 23.3764 16.0122L23.2894 16.2143C23.3259 16.23 23.3589 16.2528 23.3865 16.2814L23.5448 16.1287ZM23.3764 16.0122C23.313 15.985 23.2449 15.9706 23.176 15.97L23.174 16.19C23.2137 16.1904 23.253 16.1986 23.2894 16.2143L23.3764 16.0122ZM7.08597 13.7011C7.49696 14.0041 7.93044 14.2753 8.38266 14.5124L8.48483 14.3176C8.04251 14.0857 7.61851 13.8204 7.21652 13.524L7.08597 13.7011ZM8.38251 14.5124C8.57736 14.6149 8.79389 14.6694 9.01406 14.6713L9.01593 14.4513C8.83083 14.4497 8.64879 14.4039 8.48498 14.3177L8.38251 14.5124ZM9.015 14.6713H11.265V14.4513H9.015V14.6713ZM11.2657 14.6713C11.485 14.6699 11.7007 14.6152 11.8942 14.5121L11.7908 14.3179C11.6286 14.4043 11.448 14.4501 11.2643 14.4513L11.2657 14.6713ZM11.8932 14.5126C12.4053 14.2465 12.8936 13.937 13.3529 13.5876L13.2196 13.4125C12.7704 13.7543 12.2927 14.0571 11.7918 14.3174L11.8932 14.5126ZM13.1762 13.5V14.2125H13.3962V13.5H13.1762ZM13.2187 14.1257L13.185 14.1519L13.32 14.3256L13.3538 14.2993L13.2187 14.1257ZM13.1747 14.161L13.1372 14.1985L13.2928 14.3541L13.3303 14.3166L13.1747 14.161ZM13.1286 14.2082L12.9749 14.4032L13.1476 14.5394L13.3014 14.3444L13.1286 14.2082ZM12.9831 14.3939L10.0693 17.3376L10.2257 17.4924L13.1394 14.5487L12.9831 14.3939ZM10.2264 17.3384L7.34267 14.3684L7.18483 14.5216L10.0686 17.4916L10.2264 17.3384ZM7.33733 14.3633L7.22483 14.262L7.07766 14.4255L7.19016 14.5268L7.33733 14.3633ZM7.26125 14.3438V13.6125H7.04125V14.3438H7.26125ZM12.5097 19.1504L10.7584 17.8004L10.6241 17.9746L12.3753 19.3246L12.5097 19.1504ZM10.7694 17.9649L13.6269 15.0774L13.4706 14.9226L10.6131 17.8101L10.7694 17.9649ZM13.4581 15.0624L13.8631 15.6511L14.0444 15.5264L13.6394 14.9377L13.4581 15.0624ZM13.8522 15.5465L12.9147 17.7965L13.1178 17.8811L14.0553 15.6311L13.8522 15.5465ZM12.9145 17.797L12.3407 19.1958L12.5443 19.2793L13.118 17.8805L12.9145 17.797ZM6.73261 2.06248C6.79536 2.0239 6.84851 1.97153 6.88801 1.90934L6.7023 1.79139C6.68072 1.82537 6.65168 1.85398 6.61739 1.87506L6.73261 2.06248ZM6.88801 1.90934C6.9275 1.84715 6.95231 1.77679 6.96056 1.70358L6.74194 1.67896C6.73743 1.71896 6.72388 1.75741 6.7023 1.79139L6.88801 1.90934ZM6.96094 1.69953C6.96652 1.62541 6.95499 1.551 6.92724 1.48204L6.72314 1.56417C6.73831 1.60185 6.74461 1.64251 6.74156 1.68301L6.96094 1.69953ZM6.92724 1.48204C6.89949 1.41308 6.85626 1.35143 6.80089 1.30183L6.65411 1.46571C6.68436 1.49281 6.70798 1.5265 6.72314 1.56417L6.92724 1.48204ZM6.80235 1.30316L6.74985 1.25441L6.60015 1.41563L6.65265 1.46438L6.80235 1.30316ZM6.70851 1.43979C7.40162 1.21807 8.64003 0.887709 9.92543 0.85342C11.2135 0.819059 12.5249 1.08233 13.393 2.02096L13.5545 1.87158C12.6226 0.863966 11.2321 0.598484 9.91956 0.633498C8.60434 0.668583 7.34337 1.00572 6.64148 1.23025L6.70851 1.43979ZM13.3938 2.02186C13.4612 2.09309 13.5479 2.14312 13.6433 2.16579L13.6942 1.95175C13.6405 1.93898 13.5916 1.9108 13.5537 1.87068L13.3938 2.02186ZM13.6467 2.16653C14.1277 2.26511 14.5128 2.63648 14.7883 3.32048C15.0642 4.0058 15.222 4.98809 15.2538 6.269L15.4737 6.26355C15.4417 4.97196 15.2826 3.95925 14.9923 3.23831C14.7015 2.51606 14.2711 2.06993 13.6908 1.95101L13.6467 2.16653ZM15.2943 6.18099C14.9416 6.46835 14.702 6.87134 14.6181 7.31849L14.8344 7.35905C14.9087 6.963 15.1208 6.60607 15.4332 6.35155L15.2943 6.18099ZM14.8362 7.33877C14.8362 7.25103 14.8368 7.15063 14.8102 7.04851L14.5973 7.10404C14.6157 7.17442 14.6162 7.24651 14.6162 7.33877H14.8362ZM14.8102 7.04851C14.8031 7.02136 14.8025 6.99288 14.803 6.95096C14.8034 6.91344 14.8051 6.85847 14.792 6.80329L14.578 6.85425C14.5836 6.87782 14.5835 6.90348 14.583 6.94846C14.5825 6.98904 14.5819 7.04493 14.5973 7.10404L14.8102 7.04851ZM14.792 6.80329C14.7744 6.72928 14.7654 6.63145 14.7486 6.52639L14.5314 6.56115C14.5446 6.6436 14.5581 6.77076 14.578 6.85425L14.792 6.80329ZM14.7486 6.52639C14.7422 6.4863 14.7428 6.4592 14.7399 6.41524C14.7372 6.37333 14.7312 6.32463 14.7066 6.26988L14.5059 6.36016C14.5151 6.38042 14.5184 6.39921 14.5204 6.42949C14.5222 6.45772 14.5228 6.50749 14.5314 6.56115L14.7486 6.52639ZM14.7066 6.26988C14.6946 6.24322 14.6852 6.20932 14.6757 6.16612C14.6671 6.12722 14.6571 6.07399 14.6452 6.0285L14.4323 6.08404C14.4429 6.12481 14.4498 6.16345 14.4609 6.21361C14.471 6.25947 14.4842 6.31183 14.5059 6.36016L14.7066 6.26988ZM14.6469 6.03604C14.6329 5.9616 14.6142 5.88814 14.5909 5.8161L14.3816 5.88394C14.4021 5.94701 14.4184 6.01133 14.4306 6.07651L14.6469 6.03604ZM14.5915 5.81799C14.5641 5.728 14.5319 5.64724 14.5034 5.56868L14.2966 5.64386C14.3281 5.7303 14.3559 5.79954 14.381 5.88205L14.5915 5.81799ZM14.5034 5.56868C14.4735 5.48645 14.4574 5.44208 14.4295 5.37843L14.228 5.46661C14.2526 5.52297 14.2665 5.5611 14.2966 5.64386L14.5034 5.56868ZM14.4295 5.37843C14.4012 5.31367 14.3495 5.21822 14.3136 5.15004L14.1189 5.2525C14.158 5.32683 14.2038 5.41138 14.228 5.46661L14.4295 5.37843ZM14.3136 5.15004C14.2957 5.1161 14.2834 5.09048 14.2709 5.06517C14.2585 5.03984 14.246 5.01481 14.2293 4.98545L14.0382 5.0946C14.0515 5.11773 14.0615 5.1377 14.0734 5.16206C14.0854 5.18644 14.0993 5.2152 14.1189 5.2525L14.3136 5.15004ZM14.2293 4.98545C14.1965 4.92806 14.1213 4.82706 14.0783 4.76416L13.8967 4.88839C13.9512 4.96798 14.011 5.04698 14.0382 5.0946L14.2293 4.98545ZM14.0783 4.76416C14.0375 4.70462 14.0198 4.67074 13.9826 4.62537L13.8124 4.76468C13.8427 4.80181 13.84 4.80543 13.8967 4.88839L14.0783 4.76416ZM13.9827 4.62548C13.9191 4.54756 13.8513 4.47321 13.7796 4.40277L13.6254 4.55977C13.6914 4.62455 13.7538 4.69292 13.8123 4.76457L13.9827 4.62548ZM13.7853 4.40884C13.7649 4.38556 13.731 4.34294 13.6978 4.30974L13.5422 4.4653C13.569 4.4921 13.5876 4.51698 13.6197 4.55371L13.7853 4.40884ZM13.6966 4.30855C13.5929 4.20808 13.4827 4.11469 13.3666 4.029L13.2359 4.20604C13.3442 4.28587 13.4469 4.37289 13.5434 4.4665L13.6966 4.30855ZM13.3653 4.02809C13.2905 3.9745 13.2019 3.94331 13.1101 3.93816L13.0977 4.15781C13.1479 4.16063 13.1963 4.17767 13.2372 4.20695L13.3653 4.02809ZM13.1101 3.93816C13.0182 3.933 12.9267 3.9541 12.8463 3.99899L12.9536 4.19105C12.9975 4.16652 13.0475 4.15499 13.0977 4.15781L13.1101 3.93816ZM12.9 4.09502C12.8457 3.99936 12.8457 3.99933 12.8458 3.99931C12.8458 3.99931 12.8458 3.99929 12.8458 3.99928C12.8459 3.99926 12.8459 3.99926 12.8459 3.99927C12.8458 3.99928 12.8457 3.99934 12.8456 3.99943C12.8452 3.99963 12.8446 3.99999 12.8436 4.00051C12.8417 4.00156 12.8386 4.00324 12.8342 4.00551C12.8256 4.01006 12.8121 4.01697 12.7937 4.02581C12.7571 4.04349 12.7011 4.06893 12.6259 4.09878C12.4755 4.15847 12.2482 4.23582 11.9445 4.30411C11.3373 4.44062 10.4237 4.54114 9.2085 4.39085L9.1815 4.60919C10.4225 4.76266 11.3615 4.66067 11.9927 4.51875C12.3082 4.44781 12.5466 4.36696 12.7071 4.30326C12.7873 4.27141 12.8481 4.24385 12.8893 4.22396C12.91 4.21401 12.9257 4.20598 12.9365 4.2003C12.9419 4.19746 12.9461 4.1952 12.9491 4.19358C12.9506 4.19277 12.9517 4.19212 12.9526 4.19163C12.953 4.19139 12.9534 4.19119 12.9537 4.19103C12.9538 4.19095 12.9539 4.19089 12.954 4.19083C12.9541 4.1908 12.9542 4.19076 12.9542 4.19075C12.9542 4.19072 12.9543 4.19069 12.9 4.09502ZM9.20926 4.39095C8.81104 4.33886 8.40733 4.34535 8.01098 4.41022L8.04651 4.62733C8.42167 4.56593 8.80379 4.55979 9.18073 4.60909L9.20926 4.39095ZM8.01035 4.41032C7.47669 4.50087 6.88615 4.71597 6.40873 5.18261C5.92978 5.65074 5.57504 6.36193 5.49655 7.42442L5.71595 7.44062C5.79121 6.42186 6.12834 5.7643 6.56251 5.33994C6.99821 4.91407 7.54206 4.71292 8.04715 4.62722L8.01035 4.41032ZM5.60625 7.32252H5.49375V7.54252H5.60625V7.32252ZM5.60178 7.4118C5.51143 6.94081 5.3067 6.49925 5.00562 6.12596L4.83438 6.26408C5.11282 6.6093 5.30216 7.01767 5.38572 7.45324L5.60178 7.4118ZM5.02999 6.19619C5.05234 4.0839 5.63705 2.70905 6.7309 2.0635L6.61909 1.87404C5.42544 2.57849 4.83265 4.05365 4.81 6.19386L5.02999 6.19619ZM6.38258 10.5778C6.37035 10.4945 6.33664 10.4158 6.28477 10.3495L6.11147 10.485C6.13981 10.5212 6.15823 10.5642 6.16491 10.6097L6.38258 10.5778ZM6.28477 10.3495C6.23289 10.2831 6.16464 10.2314 6.08673 10.1995L6.00326 10.403C6.04583 10.4205 6.08312 10.4487 6.11147 10.485L6.28477 10.3495ZM6.08709 10.1996C6.03067 10.1763 5.97012 10.1645 5.90905 10.165L5.91094 10.385C5.94249 10.3847 5.97376 10.3908 6.0029 10.4029L6.08709 10.1996ZM5.91032 10.165C5.85112 10.1648 5.79229 10.1744 5.73618 10.1933L5.80631 10.4018C5.83962 10.3906 5.87454 10.3849 5.90967 10.385L5.91032 10.165ZM5.86726 10.2438C5.69209 9.93049 5.58184 9.58505 5.5431 9.22815L5.32439 9.25189C5.36631 9.63817 5.48564 10.012 5.67523 10.3512L5.86726 10.2438ZM5.54069 9.21425C5.46311 8.89229 5.46311 8.5565 5.54069 8.23454L5.32681 8.183C5.24107 8.53884 5.24107 8.90995 5.32681 9.26579L5.54069 9.21425ZM5.50683 8.29099L5.54058 8.26099L5.39442 8.09656L5.36067 8.12656L5.50683 8.29099ZM5.47944 8.28812C5.59195 8.27583 5.70574 8.2838 5.81543 8.31164L5.86956 8.0984C5.7344 8.06409 5.59418 8.05428 5.45555 8.06942L5.47944 8.28812ZM5.82041 8.31278C5.88931 8.3269 5.96045 8.32587 6.02891 8.30976L5.97851 8.09561C5.9411 8.10441 5.90223 8.10498 5.86458 8.09726L5.82041 8.31278ZM6.02891 8.30976C6.09737 8.29364 6.16151 8.26283 6.21687 8.21946L6.08121 8.04627C6.05096 8.06997 6.01591 8.0868 5.97851 8.09561L6.02891 8.30976ZM6.21687 8.21946C6.27224 8.17609 6.31751 8.1212 6.34955 8.05859L6.1537 7.95837C6.13619 7.99258 6.11146 8.02258 6.08121 8.04627L6.21687 8.21946ZM6.34955 8.05859C6.38158 7.99598 6.39962 7.92716 6.40241 7.85688L6.18258 7.84816C6.18106 7.88656 6.1712 7.92417 6.1537 7.95837L6.34955 8.05859ZM6.4025 7.85252C6.4025 7.08081 6.54863 6.50728 6.83349 6.10116C7.11617 5.69814 7.54531 5.44608 8.14249 5.33569L8.1025 5.11935C7.46219 5.23771 6.97633 5.5144 6.65338 5.97482C6.33261 6.43214 6.1825 7.05673 6.1825 7.85252H6.4025ZM8.13934 5.33622C8.44628 5.28867 8.75871 5.28867 9.06565 5.33622L9.09934 5.11882C8.77007 5.0678 8.43492 5.0678 8.10565 5.11882L8.13934 5.33622ZM9.06945 5.33675C11.1943 5.59051 12.5302 5.15548 13.0528 4.92707L12.9647 4.72548C12.4748 4.93956 11.1782 5.36703 9.09554 5.1183L9.06945 5.33675ZM12.9355 4.90831C13.5691 5.47432 13.87 6.34005 13.87 7.74002H14.09C14.09 6.31249 13.7834 5.37072 13.082 4.74423L12.9355 4.90831ZM13.87 7.73894C13.8688 7.85663 13.9105 7.97072 13.9873 8.05995L14.1541 7.9165C14.1121 7.86775 14.0894 7.80541 14.09 7.7411L13.87 7.73894ZM13.9873 8.05995C14.064 8.14918 14.1706 8.20747 14.2871 8.22394L14.3179 8.0061C14.2542 7.9971 14.196 7.96526 14.1541 7.9165L13.9873 8.05995ZM14.2898 8.22428L14.7735 8.28053L14.799 8.06201L14.3152 8.00576L14.2898 8.22428ZM14.6773 8.18632C14.7745 8.89036 14.6723 9.60757 14.3821 10.2564L14.5829 10.3462C14.8899 9.6598 14.9981 8.90105 14.8952 8.15622L14.6773 8.18632ZM14.5187 10.1974C14.4508 10.1737 14.3785 10.1655 14.307 10.1732L14.3307 10.3919C14.3697 10.3877 14.4092 10.3922 14.4463 10.4051L14.5187 10.1974ZM14.307 10.1732C14.2356 10.1809 14.1667 10.2044 14.1054 10.242L14.2205 10.4295C14.254 10.409 14.2916 10.3961 14.3307 10.3919L14.307 10.1732ZM14.1054 10.242C14.0442 10.2796 13.992 10.3304 13.9528 10.3906L14.1371 10.5107C14.1585 10.4778 14.187 10.4501 14.2205 10.4295L14.1054 10.242ZM13.9528 10.3906C13.9135 10.4508 13.8881 10.519 13.8785 10.5902L14.0965 10.6198C14.1018 10.5809 14.1156 10.5436 14.1371 10.5107L13.9528 10.3906ZM13.878 10.5946L13.818 11.2246L14.037 11.2455L14.097 10.6155L13.878 10.5946ZM13.8179 11.2255C13.7859 11.5942 13.6428 11.9445 13.4076 12.2301L13.5774 12.37C13.841 12.05 14.0013 11.6575 14.0371 11.2445L13.8179 11.2255ZM13.4096 12.2277C13.281 12.3751 13.1419 12.513 12.9934 12.6402L13.1366 12.8073C13.2932 12.6731 13.4398 12.5277 13.5754 12.3723L13.4096 12.2277ZM12.994 12.6398C12.5143 13.0454 11.9903 13.3955 11.4321 13.6835L11.5329 13.879C12.1059 13.5834 12.6437 13.224 13.136 12.8078L12.994 12.6398ZM11.4309 13.6841C11.3737 13.7145 11.31 13.7307 11.2452 13.7313L11.2473 13.9513C11.3473 13.9503 11.4457 13.9254 11.5341 13.8784L11.4309 13.6841ZM11.2462 13.7313H9V13.9513H11.2462V13.7313ZM9.00152 13.7313C8.93498 13.7304 8.86956 13.714 8.81041 13.6835L8.70958 13.879C8.79899 13.9251 8.89788 13.9499 8.99847 13.9513L9.00152 13.7313ZM8.81081 13.6837C8.27678 13.4055 7.77291 13.0729 7.30723 12.6912L7.16776 12.8613C7.64516 13.2527 8.16171 13.5936 8.70918 13.8788L8.81081 13.6837ZM7.30836 12.6921C7.1389 12.5494 6.98137 12.3931 6.83733 12.2248L6.67017 12.3678C6.82199 12.5452 6.98803 12.71 7.16663 12.8604L7.30836 12.6921ZM6.83789 12.2254C6.6004 11.9434 6.45721 11.594 6.42841 11.2264L6.20908 11.2436C6.24147 11.657 6.40251 12.0499 6.6696 12.3671L6.83789 12.2254ZM6.42848 11.2273L6.38348 10.5861L6.16402 10.6015L6.20902 11.2427L6.42848 11.2273ZM6.67111 15.0542L9.50611 17.9717L9.66389 17.8184L6.82889 14.9009L6.67111 15.0542ZM9.51774 17.808L9.43524 17.8717L9.56976 18.0458L9.65226 17.9821L9.51774 17.808ZM9.43552 17.8715L7.77427 19.1465L7.90822 19.321L9.56947 18.046L9.43552 17.8715ZM7.94266 19.1912L6.99766 16.9412L6.79483 17.0264L7.73983 19.2764L7.94266 19.1912ZM6.99787 16.9417L6.42788 15.5654L6.22462 15.6496L6.79462 17.0259L6.99787 16.9417ZM6.41752 15.6689L6.84127 15.0389L6.65872 14.9161L6.23497 15.5461L6.41752 15.6689ZM1.54623 18.752C1.55201 18.4306 1.6487 18.1175 1.82511 17.8488L1.64121 17.7281C1.44199 18.0315 1.33279 18.3851 1.32626 18.748L1.54623 18.752ZM1.82511 17.8488C2.00153 17.5801 2.25044 17.3669 2.54303 17.2339L2.45197 17.0336C2.12154 17.1839 1.84044 17.4247 1.64121 17.7281L1.82511 17.8488ZM2.4975 17.2438H2.55V17.0238H2.4975V17.2438ZM2.58765 17.2371L5.73765 16.0896L5.66235 15.8829L2.51235 17.0304L2.58765 17.2371ZM5.59837 16.0284L6.16837 17.4046L6.37162 17.3204L5.80163 15.9442L5.59837 16.0284ZM6.16845 17.4048L7.12095 19.6923L7.32404 19.6077L6.37154 17.3202L6.16845 17.4048ZM7.11988 19.6896C7.18271 19.8524 7.30181 19.9871 7.45555 20.0695L7.55944 19.8756C7.45212 19.8181 7.36897 19.724 7.32511 19.6104L7.11988 19.6896ZM7.46664 20.0747L7.56039 20.1122L7.6421 19.9079L7.54835 19.8704L7.46664 20.0747ZM7.60125 20.12H7.63875V19.9H7.60125V20.12ZM7.63875 20.12H7.6725V19.9H7.63875V20.12ZM7.66178 20.1195C7.70632 20.1239 7.75117 20.1239 7.79571 20.1195L7.77428 19.9005C7.744 19.9035 7.7135 19.9035 7.68321 19.9005L7.66178 20.1195ZM7.785 20.12H7.8225V19.9H7.785V20.12ZM7.83079 20.1197C7.88384 20.1157 7.93645 20.1072 7.98804 20.0942L7.93445 19.8808C7.895 19.8907 7.85477 19.8973 7.8142 19.9003L7.83079 20.1197ZM7.96125 20.0975H8.01V19.8775H7.96125V20.0975ZM8.05126 20.0895C8.11457 20.0639 8.17438 20.0303 8.22926 19.9896L8.09824 19.8129C8.05832 19.8425 8.0148 19.8669 7.96873 19.8856L8.05126 20.0895ZM8.23031 19.9888L8.60531 19.7038L8.47219 19.5287L8.09719 19.8137L8.23031 19.9888ZM8.6058 19.7035L9.83955 18.7547L9.70544 18.5803L8.47169 19.5291L8.6058 19.7035ZM9.6625 18.6675V23.25H9.8825V18.6675H9.6625ZM9.7725 23.14H4.5V23.36H9.7725V23.14ZM4.61 23.25V21.9H4.39V23.25H4.61ZM4.6067 21.8733C4.58041 21.7684 4.51985 21.6753 4.43461 21.6088L4.29927 21.7823C4.34584 21.8186 4.37894 21.8695 4.3933 21.9268L4.6067 21.8733ZM4.43461 21.6088C4.34937 21.5423 4.24436 21.5062 4.13625 21.5062V21.7262C4.19532 21.7262 4.2527 21.7459 4.29927 21.7823L4.43461 21.6088ZM4.13625 21.5062C4.02813 21.5062 3.92312 21.5423 3.83788 21.6088L3.97322 21.7823C4.01979 21.7459 4.07717 21.7262 4.13625 21.7262V21.5062ZM3.83788 21.6088C3.75265 21.6753 3.69208 21.7684 3.6658 21.8733L3.8792 21.9268C3.89356 21.8695 3.92665 21.8186 3.97322 21.7823L3.83788 21.6088ZM3.6625 21.9V23.25H3.8825V21.9H3.6625ZM3.7725 23.14H1.17V23.36H3.7725V23.14ZM1.2798 23.2565L1.54605 18.7565L1.32644 18.7435L1.06019 23.2435L1.2798 23.2565ZM18.915 23.14H16.29V23.36H18.915V23.14ZM16.4 23.25V21.915H16.18V23.25H16.4ZM16.3961 21.8862C16.3682 21.7834 16.3073 21.6927 16.2227 21.6281L16.0891 21.8028C16.1353 21.8382 16.1686 21.8877 16.1838 21.9439L16.3961 21.8862ZM16.2227 21.6281C16.1381 21.5634 16.0346 21.5284 15.9281 21.5284V21.7484C15.9863 21.7484 16.0429 21.7675 16.0891 21.8028L16.2227 21.6281ZM15.9281 21.5284C15.8217 21.5284 15.7181 21.5634 15.6336 21.6281L15.7672 21.8028C15.8134 21.7675 15.8699 21.7484 15.9281 21.7484V21.5284ZM15.6336 21.6281C15.549 21.6927 15.488 21.7834 15.4601 21.8862L15.6724 21.9439C15.6877 21.8877 15.721 21.8382 15.7672 21.8028L15.6336 21.6281ZM15.4562 21.915V23.2688H15.6762V21.915H15.4562ZM15.5662 23.1588H10.5V23.3788H15.5662V23.1588ZM10.61 23.2688V18.6675H10.39V23.2688H10.61ZM10.433 18.7547L12.0042 19.9622L12.1383 19.7878L10.567 18.5803L10.433 18.7547ZM12.0042 19.9622L12.0529 19.9997L12.1871 19.8253L12.1383 19.7878L12.0042 19.9622ZM12.0533 20C12.1091 20.0426 12.1714 20.076 12.2377 20.099L12.3098 19.8911C12.2655 19.8757 12.2239 19.8535 12.1867 19.825L12.0533 20ZM12.2737 20.105H12.315V19.885H12.2737V20.105ZM12.2862 20.1012C12.3419 20.1163 12.3991 20.1251 12.4568 20.1274L12.4657 19.9076C12.4245 19.9059 12.3836 19.8997 12.3438 19.8889L12.2862 20.1012ZM12.4612 20.1275H12.4912V19.9075H12.4612V20.1275ZM12.4924 20.1275C12.5455 20.127 12.5983 20.1192 12.6493 20.1044L12.5882 19.8931C12.5563 19.9023 12.5233 19.9072 12.4901 19.9075L12.4924 20.1275ZM12.6187 20.1088H12.6412V19.8888H12.6187V20.1088ZM12.6705 20.1048C12.7177 20.0918 12.7636 20.074 12.8073 20.0519L12.7077 19.8557C12.6771 19.8712 12.6451 19.8836 12.612 19.8927L12.6705 20.1048ZM12.8094 20.0507C12.9632 19.9684 13.0823 19.8336 13.1451 19.6709L12.9399 19.5916C12.896 19.7052 12.8129 19.7993 12.7056 19.8568L12.8094 20.0507ZM13.144 19.6736L13.8078 18.0798L13.6047 17.9952L12.941 19.589L13.144 19.6736ZM13.8079 18.0797L14.6666 16.0097L14.4634 15.9254L13.6046 17.9954L13.8079 18.0797ZM14.527 16.0708L15.067 16.2695L15.143 16.063L14.603 15.8643L14.527 16.0708ZM15.039 16.0783C14.9781 16.1239 14.9288 16.1833 14.8951 16.2515L15.0924 16.3489C15.1108 16.3117 15.1377 16.2792 15.171 16.2543L15.039 16.0783ZM14.8951 16.2515C14.8614 16.3198 14.8442 16.395 14.845 16.4711L15.065 16.4689C15.0646 16.4273 15.074 16.3862 15.0924 16.3489L14.8951 16.2515ZM14.845 16.47V17.6588H15.065V16.47H14.845ZM14.845 17.6557C14.8431 17.7262 14.8555 17.7964 14.8816 17.862L15.086 17.7806C15.071 17.7429 15.0638 17.7025 15.065 17.6618L14.845 17.6557ZM14.8816 17.862C14.9077 17.9275 14.9469 17.9871 14.9968 18.037L15.1523 17.8814C15.1236 17.8527 15.101 17.8184 15.086 17.7806L14.8816 17.862ZM14.9968 18.037C15.0467 18.0869 15.1062 18.1261 15.1718 18.1522L15.2531 17.9478C15.2154 17.9327 15.1811 17.9102 15.1523 17.8814L14.9968 18.037ZM15.1718 18.1522C15.2373 18.1783 15.3075 18.1907 15.3781 18.1887L15.3719 17.9688C15.3313 17.9699 15.2909 17.9628 15.2531 17.9478L15.1718 18.1522ZM15.375 18.1888H15.7837V17.9688H15.375V18.1888ZM15.6785 18.1108C15.7597 18.3781 15.8682 18.6364 16.0022 18.8815L16.1953 18.776C16.0685 18.5441 15.9659 18.2997 15.889 18.0468L15.6785 18.1108ZM16.021 18.751L15.7322 19.0397L15.8878 19.1953L16.1765 18.9066L16.021 18.751ZM15.7316 19.0403C15.636 19.1374 15.5824 19.2682 15.5824 19.4044H15.8024C15.8024 19.3259 15.8333 19.2506 15.8884 19.1947L15.7316 19.0403ZM15.5824 19.4044C15.5824 19.5406 15.636 19.6714 15.7316 19.7685L15.8884 19.6141C15.8333 19.5582 15.8024 19.4829 15.8024 19.4044H15.5824ZM15.7322 19.7691L16.5722 20.6091L16.7278 20.4535L15.8878 19.6135L15.7322 19.7691ZM16.5735 20.6103C16.6709 20.7046 16.8013 20.7574 16.9369 20.7574V20.5374C16.8584 20.5374 16.7829 20.5068 16.7265 20.4522L16.5735 20.6103ZM16.9369 20.7574C17.0725 20.7574 17.2028 20.7046 17.3002 20.6103L17.1472 20.4522C17.0908 20.5068 17.0154 20.5374 16.9369 20.5374V20.7574ZM17.3015 20.6091L17.5903 20.3203L17.4347 20.1647L17.146 20.4535L17.3015 20.6091ZM17.4583 20.3382C17.7026 20.4765 17.9623 20.5856 18.2321 20.6632L18.2929 20.4518C18.0397 20.379 17.796 20.2766 17.5667 20.1468L17.4583 20.3382ZM18.1525 20.5575V20.9663H18.3725V20.5575H18.1525ZM18.1525 20.9651C18.1518 21.0352 18.1654 21.1047 18.1924 21.1694L18.3954 21.0844C18.3799 21.0474 18.3721 21.0076 18.3725 20.9674L18.1525 20.9651ZM18.1924 21.1694C18.2195 21.234 18.2595 21.2925 18.3099 21.3411L18.4627 21.1828C18.4338 21.1549 18.4109 21.1214 18.3954 21.0844L18.1924 21.1694ZM18.3099 21.3411C18.3604 21.3898 18.4202 21.4276 18.4858 21.4524L18.5634 21.2465C18.5258 21.2323 18.4916 21.2106 18.4627 21.1828L18.3099 21.3411ZM18.4858 21.4524C18.5514 21.4771 18.6213 21.4882 18.6913 21.4849L18.6812 21.2651C18.641 21.267 18.601 21.2607 18.5634 21.2465L18.4858 21.4524ZM18.6862 21.485H18.915V21.265H18.6862V21.485ZM18.805 21.375V23.25H19.025V21.375H18.805ZM22.8525 17.2188H22.5V17.4388H22.8525V17.2188ZM22.5001 17.2188C22.3818 17.2187 22.2672 17.2596 22.1757 17.3345L22.3151 17.5047C22.3673 17.462 22.4326 17.4387 22.4999 17.4388L22.5001 17.2188ZM22.1757 17.3345C22.0843 17.4094 22.0216 17.5137 21.9984 17.6297L22.2141 17.6729C22.2273 17.6068 22.263 17.5474 22.3151 17.5047L22.1757 17.3345ZM21.9986 17.6287C21.9272 17.9694 21.7926 18.2936 21.6018 18.5847L21.7857 18.7053C21.9917 18.3913 22.1369 18.0414 22.2139 17.6738L21.9986 17.6287ZM21.6041 18.5813C21.5318 18.683 21.4991 18.8076 21.5123 18.9317L21.7311 18.9084C21.7236 18.8377 21.7422 18.7667 21.7834 18.7088L21.6041 18.5813ZM21.5123 18.9317C21.5255 19.0558 21.5837 19.1708 21.6758 19.255L21.8242 19.0926C21.7717 19.0446 21.7386 18.9791 21.7311 18.9084L21.5123 18.9317ZM21.6722 19.2516L21.9122 19.4916L22.0678 19.336L21.8278 19.096L21.6722 19.2516ZM21.9122 19.336L21.5372 19.711L21.6928 19.8666L22.0678 19.4916L21.9122 19.336ZM21.6915 19.7098L21.4515 19.4773L21.2985 19.6353L21.5385 19.8678L21.6915 19.7098ZM21.4513 19.4771C21.367 19.3958 21.2581 19.3447 21.1416 19.3319L21.1175 19.5506C21.1856 19.5581 21.2493 19.5879 21.2987 19.6355L21.4513 19.4771ZM21.1416 19.3319C21.0252 19.319 20.9078 19.3451 20.8078 19.4061L20.9222 19.594C20.9807 19.5583 21.0494 19.543 21.1175 19.5506L21.1416 19.3319ZM20.8043 19.4083C20.5146 19.6 20.1916 19.7358 19.8519 19.8087L19.8981 20.0238C20.2646 19.9452 20.6131 19.7986 20.9257 19.5918L20.8043 19.4083ZM19.8518 19.8087C19.7363 19.8337 19.6328 19.8973 19.5584 19.989L19.7292 20.1276C19.7721 20.0748 19.8317 20.0381 19.8982 20.0238L19.8518 19.8087ZM19.5584 19.989C19.484 20.0807 19.4431 20.1951 19.4425 20.3132L19.6625 20.3143C19.6628 20.2463 19.6864 20.1804 19.7292 20.1276L19.5584 19.989ZM19.4425 20.3138V20.6513H19.6625V20.3138H19.4425ZM19.5525 20.5413H19.0087V20.7613H19.5525V20.5413ZM19.1187 20.6513V20.3138H18.8987V20.6513H19.1187ZM19.1187 20.3132C19.1182 20.1951 19.0773 20.0807 19.0028 19.989L18.832 20.1276C18.8749 20.1804 18.8984 20.2463 18.8987 20.3143L19.1187 20.3132ZM19.0028 19.989C18.9284 19.8973 18.8249 19.8337 18.7095 19.8087L18.663 20.0238C18.7295 20.0381 18.7891 20.0748 18.832 20.1276L19.0028 19.989ZM18.7091 19.8087C18.3682 19.7362 18.0439 19.6004 17.7531 19.4082L17.6319 19.5918C17.9456 19.7991 18.2955 19.9457 18.6634 20.0239L18.7091 19.8087ZM17.7504 19.4065C17.6508 19.3449 17.5337 19.318 17.4173 19.33L17.4398 19.5488C17.5079 19.5418 17.5764 19.5576 17.6346 19.5936L17.7504 19.4065ZM17.4173 19.33C17.3009 19.342 17.1917 19.3922 17.1068 19.4727L17.2582 19.6323C17.3079 19.5852 17.3717 19.5559 17.4398 19.5488L17.4173 19.33ZM17.1047 19.4747L16.8647 19.7147L17.0203 19.8703L17.2603 19.6303L17.1047 19.4747ZM17.0203 19.7147L16.6453 19.3397L16.4897 19.4953L16.8647 19.8703L17.0203 19.7147ZM16.6453 19.4953L16.8853 19.2553L16.7297 19.0997L16.4897 19.3397L16.6453 19.4953ZM16.8849 19.2557C16.9689 19.1725 17.0215 19.0627 17.0337 18.9451L16.8149 18.9224C16.8079 18.9894 16.778 19.052 16.7301 19.0994L16.8849 19.2557ZM17.0337 18.9451C17.0459 18.8275 17.0169 18.7093 16.9518 18.6107L16.7682 18.7319C16.8053 18.7881 16.8218 18.8554 16.8149 18.9224L17.0337 18.9451ZM16.952 18.611C16.7605 18.319 16.6259 17.9934 16.5552 17.6515L16.3398 17.696C16.4161 18.0651 16.5614 18.4164 16.768 18.7316L16.952 18.611ZM16.5551 17.6512C16.531 17.5361 16.4679 17.4329 16.3765 17.3589L16.2381 17.5299C16.2901 17.572 16.3261 17.6308 16.3398 17.6964L16.5551 17.6512ZM16.3765 17.3589C16.2851 17.2849 16.171 17.2447 16.0535 17.245L16.054 17.465C16.121 17.4648 16.186 17.4878 16.2381 17.5299L16.3765 17.3589ZM16.0537 17.245H15.7125V17.465H16.0537V17.245ZM15.8225 17.355V16.8075H15.6025V17.355H15.8225ZM15.7125 16.9175H16.0537V16.6975H15.7125V16.9175ZM16.0548 16.9175C16.1688 16.9164 16.2791 16.8773 16.3683 16.8063L16.2312 16.6341C16.1805 16.6746 16.1176 16.6969 16.0527 16.6975L16.0548 16.9175ZM16.3683 16.8063C16.4574 16.7353 16.5203 16.6365 16.547 16.5257L16.333 16.4743C16.3179 16.5375 16.282 16.5937 16.2312 16.6341L16.3683 16.8063ZM16.5477 16.5226C16.619 16.1819 16.7536 15.8577 16.9445 15.5666L16.7605 15.446C16.5546 15.76 16.4093 16.1099 16.3323 16.4775L16.5477 16.5226ZM16.9443 15.5669C17.0094 15.4682 17.0384 15.35 17.0262 15.2324L16.8074 15.2551C16.8143 15.3221 16.7978 15.3894 16.7607 15.4457L16.9443 15.5669ZM17.0262 15.2324C17.014 15.1148 16.9614 15.0051 16.8774 14.9219L16.7226 15.0782C16.7705 15.1256 16.8004 15.1881 16.8074 15.2551L17.0262 15.2324ZM16.8778 14.9222L16.6378 14.6822L16.4822 14.8378L16.7222 15.0778L16.8778 14.9222ZM16.6378 14.8378L17.0128 14.4628L16.8572 14.3072L16.4822 14.6822L16.6378 14.8378ZM16.8572 14.4628L17.0972 14.7028L17.2528 14.5472L17.0128 14.3072L16.8572 14.4628ZM17.0982 14.7038C17.1829 14.7863 17.2932 14.8375 17.4109 14.8487L17.4319 14.6297C17.3641 14.6232 17.3005 14.5938 17.2518 14.5463L17.0982 14.7038ZM17.4109 14.8487C17.5287 14.86 17.6467 14.8307 17.7455 14.7657L17.6245 14.5819C17.5676 14.6193 17.4997 14.6362 17.4319 14.6297L17.4109 14.8487ZM17.7462 14.7652C18.0376 14.5702 18.3632 14.4319 18.7058 14.3575L18.6592 14.1425C18.2895 14.2227 17.9382 14.372 17.6238 14.5824L17.7462 14.7652ZM18.7047 14.3578C18.821 14.3338 18.9256 14.2706 19.001 14.1788L18.8309 14.0392C18.7875 14.0921 18.7273 14.1285 18.6603 14.1423L18.7047 14.3578ZM19.001 14.1788C19.0764 14.087 19.1179 13.9721 19.1187 13.8533L18.8988 13.8518C18.8983 13.9202 18.8743 13.9863 18.8309 14.0392L19.001 14.1788ZM19.1187 13.8525V13.5H18.8987V13.8525H19.1187ZM19.0087 13.61H19.5487V13.39H19.0087V13.61ZM19.4387 13.5V13.8375H19.6587V13.5H19.4387ZM19.4388 13.8343C19.4352 13.9563 19.4747 14.0757 19.5504 14.1714L19.723 14.035C19.6794 13.9798 19.6566 13.9111 19.6587 13.8408L19.4388 13.8343ZM19.5504 14.1714C19.6262 14.2672 19.7333 14.3332 19.8528 14.3578L19.8972 14.1423C19.8283 14.1281 19.7666 14.0901 19.723 14.035L19.5504 14.1714ZM19.8528 14.3578C20.1932 14.4279 20.5175 14.5612 20.8087 14.7509L20.9288 14.5666C20.6145 14.3619 20.2646 14.2179 19.8972 14.1423L19.8528 14.3578ZM20.8101 14.7519C20.9095 14.8144 21.0271 14.8414 21.1439 14.8285L21.1196 14.6098C21.0523 14.6173 20.9846 14.6017 20.9274 14.5657L20.8101 14.7519ZM21.1439 14.8285C21.2606 14.8155 21.3694 14.7633 21.4526 14.6805L21.2974 14.5246C21.2495 14.5723 21.1868 14.6023 21.1196 14.6098L21.1439 14.8285ZM21.4528 14.6803L21.6928 14.4403L21.5372 14.2847L21.2972 14.5247L21.4528 14.6803ZM21.5372 14.4403L21.9122 14.8153L22.0678 14.6597L21.6928 14.2847L21.5372 14.4403ZM21.9088 14.6633L21.6688 14.9258L21.8312 15.0742L22.0712 14.8117L21.9088 14.6633ZM21.6726 14.9219C21.5886 15.0051 21.536 15.1148 21.5238 15.2324L21.7426 15.2551C21.7496 15.1881 21.7795 15.1256 21.8274 15.0782L21.6726 14.9219ZM21.5238 15.2324C21.5116 15.35 21.5405 15.4682 21.6057 15.5669L21.7893 15.4457C21.7522 15.3894 21.7357 15.3221 21.7426 15.2551L21.5238 15.2324ZM21.6067 15.5683C21.804 15.8571 21.9435 16.1814 22.0175 16.5233L22.2325 16.4768C22.1526 16.1071 22.0017 15.7565 21.7883 15.4442L21.6067 15.5683ZM22.0175 16.5232C22.0424 16.6387 22.106 16.7422 22.1977 16.8166L22.3363 16.6458C22.2835 16.6029 22.2469 16.5433 22.2325 16.4768L22.0175 16.5232ZM22.1977 16.8166C22.2894 16.891 22.4038 16.9319 22.5219 16.9325L22.523 16.7125C22.455 16.7122 22.3891 16.6886 22.3363 16.6458L22.1977 16.8166ZM22.5225 16.9325H22.8637V16.7125H22.5225V16.9325ZM22.7538 16.8201L22.7425 17.3263L22.9625 17.3312L22.9737 16.825L22.7538 16.8201Z" fill="#F9F9F9" mask="url(#path-1-outside-1_3_3049)"/>
<path d="M19.2787 14.5837C18.7846 14.583 18.3014 14.7288 17.8902 15.0028C17.479 15.2768 17.1583 15.6666 16.9687 16.1229C16.7791 16.5792 16.7291 17.0815 16.825 17.5662C16.921 18.0509 17.1585 18.4963 17.5077 18.8459C17.8568 19.1956 18.3018 19.4338 18.7864 19.5305C19.2709 19.6271 19.7733 19.5779 20.2299 19.389C20.6865 19.2001 21.0767 18.88 21.3513 18.4692C21.6259 18.0584 21.7725 17.5754 21.7725 17.0812C21.7725 16.4195 21.5099 15.7848 21.0423 15.3166C20.5748 14.8483 19.9405 14.5847 19.2787 14.5837ZM19.2787 18.8475C18.9284 18.8482 18.5856 18.745 18.294 18.5508C18.0023 18.3566 17.7749 18.0802 17.6405 17.7566C17.506 17.433 17.4707 17.0768 17.5388 16.7331C17.607 16.3894 17.7757 16.0737 18.0234 15.8259C18.2712 15.5782 18.5869 15.4095 18.9306 15.3413C19.2743 15.2731 19.6305 15.3085 19.9541 15.4429C20.2777 15.5774 20.5541 15.8048 20.7483 16.0965C20.9425 16.3881 21.0457 16.7309 21.045 17.0812C21.044 17.5494 20.8576 17.9981 20.5266 18.3291C20.1956 18.6601 19.7469 18.8465 19.2787 18.8475Z" fill="#F9F9F9"/>
</g>
<defs>
<clipPath id="clip0_3_3049">
<rect width="24" height="24" fill="white"/>
</clipPath>
</defs>
</svg>
