<svg width="24" height="24" viewBox="0 0 24 24" fill="none" xmlns="http://www.w3.org/2000/svg">
<g clip-path="url(#clip0_3_1595)">
<mask id="path-1-outside-1_3_1595" maskUnits="userSpaceOnUse" x="-0.580322" y="-1.01147" width="25" height="26" fill="black">
<rect fill="white" x="-0.580322" y="-1.01147" width="25" height="26"/>
<path d="M23.1751 16.08H22.7663C22.6879 15.8197 22.5823 15.5683 22.4513 15.33L22.7401 15.0413C22.8154 14.9648 22.8576 14.8618 22.8576 14.7544C22.8576 14.647 22.8154 14.544 22.7401 14.4675L21.9001 13.6163C21.8231 13.5418 21.7203 13.5002 21.6132 13.5002C21.5061 13.5002 21.4032 13.5418 21.3263 13.6163L21.0376 13.905C20.8008 13.771 20.5491 13.6652 20.2876 13.59V13.185C20.2876 13.1312 20.2769 13.0779 20.256 13.0283C20.2352 12.9787 20.2047 12.9337 20.1663 12.896C20.1279 12.8583 20.0824 12.8286 20.0324 12.8087C19.9824 12.7888 19.9289 12.779 19.8751 12.78H18.6863C18.5789 12.78 18.4759 12.8227 18.3999 12.8986C18.324 12.9746 18.2813 13.0776 18.2813 13.185V13.5938C18.0198 13.669 17.7681 13.7747 17.5313 13.9088L17.2501 13.62C17.1736 13.5447 17.0705 13.5024 16.9632 13.5024C16.8558 13.5024 16.7528 13.5447 16.6763 13.62L15.8363 14.46C15.7987 14.4973 15.7688 14.5417 15.7484 14.5906C15.728 14.6396 15.7175 14.692 15.7175 14.745C15.7175 14.798 15.728 14.8505 15.7484 14.8994C15.7688 14.9483 15.7987 14.9927 15.8363 15.03L16.1251 15.3188C16.0584 15.4405 15.9983 15.5656 15.9451 15.6938L14.5763 15.195L14.0326 14.4075V12.825L14.0926 12.765C14.4402 12.3502 14.651 11.8381 14.6963 11.2988L14.7226 11.0363C15.1763 10.8788 15.4013 10.1438 15.5063 9.53627C15.5663 9.21002 15.7126 8.21627 15.4051 7.70627C15.4076 7.5165 15.4564 7.33021 15.5472 7.16356C15.638 6.99692 15.7682 6.85497 15.9263 6.75002C15.9784 6.7157 16.0212 6.66892 16.0506 6.61391C16.0801 6.55891 16.0954 6.49742 16.0951 6.43502C16.0501 3.39377 15.3451 1.73252 13.9313 1.36127C11.3063 -1.33873 6.05632 0.761271 5.83507 0.851271C5.7807 0.876757 5.73326 0.914924 5.69671 0.962561C5.66017 1.0102 5.6356 1.06591 5.62507 1.12502C5.61552 1.18592 5.62113 1.24824 5.64141 1.30645C5.66168 1.36466 5.696 1.41698 5.74132 1.45877L5.91007 1.60502C4.78507 2.50877 4.20007 4.09502 4.20382 6.33752C4.20423 6.4359 4.24329 6.53017 4.31257 6.60002C4.60885 6.94401 4.79213 7.37081 4.83757 7.82252C4.56757 8.29877 4.68757 9.15377 4.76257 9.53627C4.85257 10.02 5.08507 10.8525 5.57632 11.0363H5.59507L5.62132 11.2913C5.66346 11.827 5.87044 12.3366 6.21382 12.75C6.27757 12.825 6.34881 12.9 6.42381 12.975V14.2163C6.39227 14.2435 6.36339 14.2736 6.33757 14.3063L5.72632 15.1875L2.32507 16.4363H2.27257C1.82292 16.6209 1.43616 16.9314 1.15875 17.3306C0.881351 17.7297 0.725112 18.2005 0.708815 18.6863L0.420065 23.5613C0.417787 23.6114 0.425573 23.6614 0.442964 23.7084C0.460355 23.7554 0.486997 23.7985 0.521315 23.835C0.590552 23.9057 0.684902 23.9461 0.783815 23.9475L10.1251 24H19.2788C19.3783 24 19.4737 23.9605 19.544 23.8902C19.6143 23.8199 19.6538 23.7245 19.6538 23.625V21.375H19.8751C19.9825 21.375 20.0855 21.3324 20.1614 21.2564C20.2374 21.1804 20.2801 21.0774 20.2801 20.97V20.565C20.5416 20.4898 20.7933 20.3841 21.0301 20.25L21.3188 20.5425C21.3958 20.617 21.4986 20.6586 21.6057 20.6586C21.7128 20.6586 21.8156 20.617 21.8926 20.5425L22.7288 19.7063C22.7673 19.6688 22.7978 19.6238 22.8184 19.5742C22.839 19.5246 22.8494 19.4713 22.8488 19.4175C22.8454 19.3117 22.8042 19.2105 22.7326 19.1325L22.4438 18.8438C22.5742 18.6052 22.6798 18.3539 22.7588 18.0938H23.1751C23.2822 18.0928 23.3846 18.0498 23.4604 17.9741C23.5361 17.8983 23.5791 17.7959 23.5801 17.6888V16.5C23.5816 16.4457 23.5722 16.3917 23.5526 16.341C23.5329 16.2904 23.5034 16.2441 23.4657 16.205C23.428 16.1659 23.3829 16.1347 23.333 16.1133C23.2831 16.0918 23.2294 16.0805 23.1751 16.08ZM7.15132 13.6125C7.5578 13.9122 7.98654 14.1805 8.43382 14.415C8.61314 14.5094 8.81243 14.5595 9.01507 14.5613H11.2651C11.4666 14.56 11.6647 14.5098 11.8426 14.415C12.349 14.1518 12.8321 13.8457 13.2863 13.5V14.2125L13.2526 14.2388L13.2151 14.2763L13.0613 14.4713L10.1476 17.415L7.26382 14.445L7.15132 14.3438V13.6125ZM12.4426 19.2375L10.6913 17.8875L13.5488 15L13.9538 15.5888L13.0163 17.8388L12.4426 19.2375ZM6.67507 1.96877C6.72359 1.93894 6.76468 1.89845 6.79522 1.85036C6.82576 1.80228 6.84494 1.74787 6.85132 1.69127C6.85563 1.63396 6.84672 1.57642 6.82526 1.52311C6.8038 1.46979 6.77038 1.42212 6.72757 1.38377L6.67507 1.33502C8.07007 0.888771 11.6738 2.12193e-05 13.4738 1.94627C13.5265 2.00195 13.5943 2.04105 13.6688 2.05877C14.7301 2.27627 15.3001 3.69377 15.3638 6.26627C15.0313 6.53721 14.8054 6.91717 14.7263 7.33877C14.7263 7.24877 14.7263 7.16252 14.7038 7.07627C14.6813 6.99002 14.7038 6.90752 14.6851 6.82877C14.6663 6.75002 14.6551 6.63752 14.6401 6.54377C14.6251 6.45002 14.6401 6.39002 14.6063 6.31502C14.5726 6.24002 14.5613 6.14252 14.5388 6.05627C14.5258 5.98647 14.5082 5.91758 14.4863 5.85002C14.4601 5.76377 14.4301 5.68877 14.4001 5.60627C14.3701 5.52377 14.3551 5.48252 14.3288 5.42252C14.3026 5.36252 14.2538 5.27252 14.2163 5.20127C14.1788 5.13002 14.1638 5.09252 14.1338 5.04002C14.1038 4.98752 14.0363 4.89752 13.9876 4.82627C13.9388 4.75502 13.9313 4.73627 13.8976 4.69502C13.8365 4.62024 13.7714 4.54888 13.7026 4.48127C13.6763 4.45127 13.6501 4.41752 13.6201 4.38752C13.52 4.29048 13.4135 4.20028 13.3013 4.11752C13.2435 4.07609 13.175 4.05197 13.104 4.04798C13.0329 4.044 12.9622 4.06031 12.9001 4.09502C12.9001 4.09502 11.6513 4.80377 9.19507 4.50002C8.80748 4.44933 8.41457 4.45564 8.02882 4.51877C6.99007 4.69502 5.76007 5.35127 5.60632 7.43252H5.49382C5.40686 6.97924 5.20983 6.55427 4.92007 6.19502C4.94257 4.06877 5.53131 2.64377 6.67507 1.96877ZM6.27382 10.5938C6.26436 10.5294 6.23829 10.4685 6.19819 10.4172C6.15808 10.3659 6.10531 10.326 6.04507 10.3013C6.00228 10.2835 5.95637 10.2746 5.91007 10.275C5.8629 10.2749 5.81602 10.2825 5.77132 10.2975C5.58893 9.97127 5.47415 9.61161 5.43382 9.24002C5.35216 8.90112 5.35216 8.54767 5.43382 8.20877L5.46757 8.17877C5.59313 8.16506 5.72014 8.17395 5.84257 8.20502C5.89584 8.21594 5.95085 8.21514 6.00378 8.20268C6.05671 8.19022 6.1063 8.1664 6.14911 8.13287C6.19192 8.09934 6.22692 8.05689 6.25169 8.00848C6.27646 7.96007 6.29041 7.90686 6.29257 7.85252C6.29257 6.28502 6.88507 5.45627 8.12257 5.22752C8.44067 5.17824 8.76446 5.17824 9.08257 5.22752C11.1863 5.47877 12.5026 5.04752 13.0088 4.82627C13.6763 5.42252 13.9801 6.32627 13.9801 7.74002C13.9792 7.83102 14.0114 7.91923 14.0707 7.98823C14.1301 8.05722 14.2125 8.10229 14.3026 8.11502L14.7863 8.17127C14.8864 8.89571 14.7811 9.63368 14.4826 10.3013C14.4301 10.283 14.3742 10.2766 14.3189 10.2826C14.2637 10.2885 14.2104 10.3067 14.163 10.3358C14.1157 10.3648 14.0753 10.4041 14.045 10.4506C14.0146 10.4972 13.995 10.5499 13.9876 10.605L13.9276 11.235C13.8937 11.6259 13.742 11.9972 13.4926 12.3C13.3605 12.4514 13.2176 12.593 13.0651 12.7238C12.579 13.1347 12.0482 13.4894 11.4826 13.7813C11.4098 13.8199 11.3287 13.8405 11.2463 13.8413H9.00006C8.9165 13.8401 8.83434 13.8196 8.76007 13.7813C8.21931 13.4996 7.70911 13.1628 7.23757 12.7763C7.06353 12.6297 6.90175 12.4692 6.75382 12.2963C6.50152 11.9966 6.34941 11.6255 6.31882 11.235L6.27382 10.5938ZM6.75007 14.9775L9.58506 17.895L9.50257 17.9588L7.84132 19.2338L6.89632 16.9838L6.32632 15.6075L6.75007 14.9775ZM1.43632 18.75C1.44247 18.4079 1.54541 18.0745 1.73323 17.7884C1.92105 17.5024 2.18606 17.2754 2.49757 17.1338H2.55007L5.70007 15.9863L6.27007 17.3625L7.22257 19.65C7.27591 19.7882 7.37703 19.9026 7.50757 19.9725L7.60132 20.01H7.63882H7.67256C7.70998 20.0137 7.74765 20.0137 7.78507 20.01H7.82257C7.86937 20.0065 7.91579 19.999 7.96132 19.9875H8.01007C8.06476 19.9654 8.11642 19.9364 8.16382 19.9013L8.53882 19.6163L9.77256 18.6675V23.25H4.50007V21.9C4.47974 21.8189 4.43291 21.747 4.36701 21.6955C4.3011 21.6441 4.21991 21.6162 4.13632 21.6162C4.05272 21.6162 3.97153 21.6441 3.90562 21.6955C3.83972 21.747 3.79289 21.8189 3.77257 21.9V23.25H1.17007L1.43632 18.75ZM18.9151 23.25H16.2901V21.915C16.2685 21.8356 16.2213 21.7655 16.1559 21.7155C16.0905 21.6655 16.0105 21.6384 15.9282 21.6384C15.8459 21.6384 15.7658 21.6655 15.7004 21.7155C15.635 21.7655 15.5879 21.8356 15.5663 21.915V23.2688H10.5001V18.6675L12.0713 19.875L12.1201 19.9125C12.1666 19.948 12.2185 19.9759 12.2738 19.995H12.3151C12.3628 20.008 12.4119 20.0155 12.4613 20.0175H12.4913C12.5345 20.0171 12.5774 20.0108 12.6188 19.9988H12.6413C12.6815 19.9877 12.7204 19.9726 12.7576 19.9538C12.8881 19.8838 12.9892 19.7694 13.0426 19.6313L13.7063 18.0375L14.5651 15.9675L15.1051 16.1663C15.058 16.2016 15.0199 16.2475 14.9938 16.3002C14.9678 16.353 14.9545 16.4112 14.9551 16.47V17.6588C14.9535 17.7143 14.9633 17.7697 14.9839 17.8213C15.0044 17.873 15.0353 17.9199 15.0746 17.9592C15.1139 17.9985 15.1609 18.0294 15.2125 18.05C15.2642 18.0705 15.3195 18.0803 15.3751 18.0788H15.7838C15.8629 18.3389 15.9684 18.5902 16.0988 18.8288L15.8101 19.1175C15.7347 19.194 15.6925 19.297 15.6925 19.4044C15.6925 19.5118 15.7347 19.6148 15.8101 19.6913L16.6501 20.5313C16.727 20.6057 16.8299 20.6474 16.9369 20.6474C17.044 20.6474 17.1469 20.6057 17.2238 20.5313L17.5126 20.2425C17.7493 20.3766 18.0011 20.4823 18.2626 20.5575V20.9663C18.262 21.0214 18.2727 21.076 18.294 21.1269C18.3153 21.1777 18.3467 21.2237 18.3864 21.2619C18.426 21.3002 18.4731 21.33 18.5247 21.3494C18.5763 21.3689 18.6313 21.3776 18.6863 21.375H18.9151V23.25ZM22.8526 17.3288H22.5001C22.4073 17.3287 22.3173 17.3608 22.2455 17.4196C22.1737 17.4784 22.1245 17.5603 22.1063 17.6513C22.0321 18.0054 21.8922 18.3425 21.6938 18.645C21.637 18.7248 21.6114 18.8227 21.6218 18.9201C21.6321 19.0174 21.6778 19.1077 21.7501 19.1738L21.9901 19.4138L21.6151 19.7888L21.3751 19.5563C21.3082 19.4919 21.2219 19.4514 21.1297 19.4412C21.0374 19.431 20.9443 19.4517 20.8651 19.5C20.5639 19.6993 20.2281 19.8405 19.8751 19.9163C19.7841 19.9359 19.7025 19.986 19.6439 20.0583C19.5852 20.1306 19.553 20.2207 19.5526 20.3138V20.6513H19.0088V20.3138C19.0084 20.2207 18.9761 20.1306 18.9175 20.0583C18.8588 19.986 18.7773 19.9359 18.6863 19.9163C18.3319 19.8409 17.9949 19.6997 17.6926 19.5C17.6137 19.4512 17.5209 19.4299 17.4286 19.4394C17.3364 19.4489 17.2498 19.4887 17.1826 19.5525L16.9426 19.7925L16.5676 19.4175L16.8076 19.1775C16.8735 19.1122 16.9148 19.0261 16.9244 18.9338C16.9339 18.8415 16.9112 18.7487 16.8601 18.6713C16.661 18.3677 16.5211 18.0293 16.4476 17.6738C16.4286 17.5835 16.3791 17.5025 16.3074 17.4444C16.2356 17.3863 16.1461 17.3548 16.0538 17.355H15.7126V16.8075H16.0538C16.1433 16.8067 16.2299 16.7759 16.2998 16.7202C16.3698 16.6645 16.4192 16.587 16.4401 16.5C16.5143 16.1459 16.6542 15.8088 16.8526 15.5063C16.9037 15.4288 16.9264 15.3361 16.9169 15.2438C16.9073 15.1515 16.866 15.0653 16.8001 15L16.5601 14.76L16.9351 14.385L17.1751 14.625C17.2418 14.6901 17.3287 14.7303 17.4215 14.7392C17.5142 14.7481 17.6072 14.725 17.6851 14.6738C17.988 14.4711 18.3264 14.3273 18.6826 14.25C18.7742 14.2311 18.8567 14.1814 18.916 14.109C18.9754 14.0367 19.0082 13.9461 19.0088 13.8525V13.5H19.5488V13.8375C19.546 13.9337 19.5771 14.0278 19.6368 14.1032C19.6965 14.1787 19.7808 14.2306 19.8751 14.25C20.229 14.3229 20.5661 14.4615 20.8688 14.6588C20.9471 14.7081 21.0398 14.7294 21.1318 14.7191C21.2237 14.7089 21.3095 14.6678 21.3751 14.6025L21.6151 14.3625L21.9901 14.7375L21.7501 15C21.6841 15.0653 21.6429 15.1515 21.6333 15.2438C21.6237 15.3361 21.6464 15.4288 21.6976 15.5063C21.9029 15.8068 22.0481 16.1443 22.1251 16.5C22.1447 16.591 22.1948 16.6726 22.2671 16.7312C22.3394 16.7898 22.4295 16.8221 22.5226 16.8225H22.8638L22.8526 17.3288Z"/>
</mask>
<path d="M23.1751 16.08H22.7663C22.6879 15.8197 22.5823 15.5683 22.4513 15.33L22.7401 15.0413C22.8154 14.9648 22.8576 14.8618 22.8576 14.7544C22.8576 14.647 22.8154 14.544 22.7401 14.4675L21.9001 13.6163C21.8231 13.5418 21.7203 13.5002 21.6132 13.5002C21.5061 13.5002 21.4032 13.5418 21.3263 13.6163L21.0376 13.905C20.8008 13.771 20.5491 13.6652 20.2876 13.59V13.185C20.2876 13.1312 20.2769 13.0779 20.256 13.0283C20.2352 12.9787 20.2047 12.9337 20.1663 12.896C20.1279 12.8583 20.0824 12.8286 20.0324 12.8087C19.9824 12.7888 19.9289 12.779 19.8751 12.78H18.6863C18.5789 12.78 18.4759 12.8227 18.3999 12.8986C18.324 12.9746 18.2813 13.0776 18.2813 13.185V13.5938C18.0198 13.669 17.7681 13.7747 17.5313 13.9088L17.2501 13.62C17.1736 13.5447 17.0705 13.5024 16.9632 13.5024C16.8558 13.5024 16.7528 13.5447 16.6763 13.62L15.8363 14.46C15.7987 14.4973 15.7688 14.5417 15.7484 14.5906C15.728 14.6396 15.7175 14.692 15.7175 14.745C15.7175 14.798 15.728 14.8505 15.7484 14.8994C15.7688 14.9483 15.7987 14.9927 15.8363 15.03L16.1251 15.3188C16.0584 15.4405 15.9983 15.5656 15.9451 15.6938L14.5763 15.195L14.0326 14.4075V12.825L14.0926 12.765C14.4402 12.3502 14.651 11.8381 14.6963 11.2988L14.7226 11.0363C15.1763 10.8788 15.4013 10.1438 15.5063 9.53627C15.5663 9.21002 15.7126 8.21627 15.4051 7.70627C15.4076 7.5165 15.4564 7.33021 15.5472 7.16356C15.638 6.99692 15.7682 6.85497 15.9263 6.75002C15.9784 6.7157 16.0212 6.66892 16.0506 6.61391C16.0801 6.55891 16.0954 6.49742 16.0951 6.43502C16.0501 3.39377 15.3451 1.73252 13.9313 1.36127C11.3063 -1.33873 6.05632 0.761271 5.83507 0.851271C5.7807 0.876757 5.73326 0.914924 5.69671 0.962561C5.66017 1.0102 5.6356 1.06591 5.62507 1.12502C5.61552 1.18592 5.62113 1.24824 5.64141 1.30645C5.66168 1.36466 5.696 1.41698 5.74132 1.45877L5.91007 1.60502C4.78507 2.50877 4.20007 4.09502 4.20382 6.33752C4.20423 6.4359 4.24329 6.53017 4.31257 6.60002C4.60885 6.94401 4.79213 7.37081 4.83757 7.82252C4.56757 8.29877 4.68757 9.15377 4.76257 9.53627C4.85257 10.02 5.08507 10.8525 5.57632 11.0363H5.59507L5.62132 11.2913C5.66346 11.827 5.87044 12.3366 6.21382 12.75C6.27757 12.825 6.34881 12.9 6.42381 12.975V14.2163C6.39227 14.2435 6.36339 14.2736 6.33757 14.3063L5.72632 15.1875L2.32507 16.4363H2.27257C1.82292 16.6209 1.43616 16.9314 1.15875 17.3306C0.881351 17.7297 0.725112 18.2005 0.708815 18.6863L0.420065 23.5613C0.417787 23.6114 0.425573 23.6614 0.442964 23.7084C0.460355 23.7554 0.486997 23.7985 0.521315 23.835C0.590552 23.9057 0.684902 23.9461 0.783815 23.9475L10.1251 24H19.2788C19.3783 24 19.4737 23.9605 19.544 23.8902C19.6143 23.8199 19.6538 23.7245 19.6538 23.625V21.375H19.8751C19.9825 21.375 20.0855 21.3324 20.1614 21.2564C20.2374 21.1804 20.2801 21.0774 20.2801 20.97V20.565C20.5416 20.4898 20.7933 20.3841 21.0301 20.25L21.3188 20.5425C21.3958 20.617 21.4986 20.6586 21.6057 20.6586C21.7128 20.6586 21.8156 20.617 21.8926 20.5425L22.7288 19.7063C22.7673 19.6688 22.7978 19.6238 22.8184 19.5742C22.839 19.5246 22.8494 19.4713 22.8488 19.4175C22.8454 19.3117 22.8042 19.2105 22.7326 19.1325L22.4438 18.8438C22.5742 18.6052 22.6798 18.3539 22.7588 18.0938H23.1751C23.2822 18.0928 23.3846 18.0498 23.4604 17.9741C23.5361 17.8983 23.5791 17.7959 23.5801 17.6888V16.5C23.5816 16.4457 23.5722 16.3917 23.5526 16.341C23.5329 16.2904 23.5034 16.2441 23.4657 16.205C23.428 16.1659 23.3829 16.1347 23.333 16.1133C23.2831 16.0918 23.2294 16.0805 23.1751 16.08ZM7.15132 13.6125C7.5578 13.9122 7.98654 14.1805 8.43382 14.415C8.61314 14.5094 8.81243 14.5595 9.01507 14.5613H11.2651C11.4666 14.56 11.6647 14.5098 11.8426 14.415C12.349 14.1518 12.8321 13.8457 13.2863 13.5V14.2125L13.2526 14.2388L13.2151 14.2763L13.0613 14.4713L10.1476 17.415L7.26382 14.445L7.15132 14.3438V13.6125ZM12.4426 19.2375L10.6913 17.8875L13.5488 15L13.9538 15.5888L13.0163 17.8388L12.4426 19.2375ZM6.67507 1.96877C6.72359 1.93894 6.76468 1.89845 6.79522 1.85036C6.82576 1.80228 6.84494 1.74787 6.85132 1.69127C6.85563 1.63396 6.84672 1.57642 6.82526 1.52311C6.8038 1.46979 6.77038 1.42212 6.72757 1.38377L6.67507 1.33502C8.07007 0.888771 11.6738 2.12193e-05 13.4738 1.94627C13.5265 2.00195 13.5943 2.04105 13.6688 2.05877C14.7301 2.27627 15.3001 3.69377 15.3638 6.26627C15.0313 6.53721 14.8054 6.91717 14.7263 7.33877C14.7263 7.24877 14.7263 7.16252 14.7038 7.07627C14.6813 6.99002 14.7038 6.90752 14.6851 6.82877C14.6663 6.75002 14.6551 6.63752 14.6401 6.54377C14.6251 6.45002 14.6401 6.39002 14.6063 6.31502C14.5726 6.24002 14.5613 6.14252 14.5388 6.05627C14.5258 5.98647 14.5082 5.91758 14.4863 5.85002C14.4601 5.76377 14.4301 5.68877 14.4001 5.60627C14.3701 5.52377 14.3551 5.48252 14.3288 5.42252C14.3026 5.36252 14.2538 5.27252 14.2163 5.20127C14.1788 5.13002 14.1638 5.09252 14.1338 5.04002C14.1038 4.98752 14.0363 4.89752 13.9876 4.82627C13.9388 4.75502 13.9313 4.73627 13.8976 4.69502C13.8365 4.62024 13.7714 4.54888 13.7026 4.48127C13.6763 4.45127 13.6501 4.41752 13.6201 4.38752C13.52 4.29048 13.4135 4.20028 13.3013 4.11752C13.2435 4.07609 13.175 4.05197 13.104 4.04798C13.0329 4.044 12.9622 4.06031 12.9001 4.09502C12.9001 4.09502 11.6513 4.80377 9.19507 4.50002C8.80748 4.44933 8.41457 4.45564 8.02882 4.51877C6.99007 4.69502 5.76007 5.35127 5.60632 7.43252H5.49382C5.40686 6.97924 5.20983 6.55427 4.92007 6.19502C4.94257 4.06877 5.53131 2.64377 6.67507 1.96877ZM6.27382 10.5938C6.26436 10.5294 6.23829 10.4685 6.19819 10.4172C6.15808 10.3659 6.10531 10.326 6.04507 10.3013C6.00228 10.2835 5.95637 10.2746 5.91007 10.275C5.8629 10.2749 5.81602 10.2825 5.77132 10.2975C5.58893 9.97127 5.47415 9.61161 5.43382 9.24002C5.35216 8.90112 5.35216 8.54767 5.43382 8.20877L5.46757 8.17877C5.59313 8.16506 5.72014 8.17395 5.84257 8.20502C5.89584 8.21594 5.95085 8.21514 6.00378 8.20268C6.05671 8.19022 6.1063 8.1664 6.14911 8.13287C6.19192 8.09934 6.22692 8.05689 6.25169 8.00848C6.27646 7.96007 6.29041 7.90686 6.29257 7.85252C6.29257 6.28502 6.88507 5.45627 8.12257 5.22752C8.44067 5.17824 8.76446 5.17824 9.08257 5.22752C11.1863 5.47877 12.5026 5.04752 13.0088 4.82627C13.6763 5.42252 13.9801 6.32627 13.9801 7.74002C13.9792 7.83102 14.0114 7.91923 14.0707 7.98823C14.1301 8.05722 14.2125 8.10229 14.3026 8.11502L14.7863 8.17127C14.8864 8.89571 14.7811 9.63368 14.4826 10.3013C14.4301 10.283 14.3742 10.2766 14.3189 10.2826C14.2637 10.2885 14.2104 10.3067 14.163 10.3358C14.1157 10.3648 14.0753 10.4041 14.045 10.4506C14.0146 10.4972 13.995 10.5499 13.9876 10.605L13.9276 11.235C13.8937 11.6259 13.742 11.9972 13.4926 12.3C13.3605 12.4514 13.2176 12.593 13.0651 12.7238C12.579 13.1347 12.0482 13.4894 11.4826 13.7813C11.4098 13.8199 11.3287 13.8405 11.2463 13.8413H9.00006C8.9165 13.8401 8.83434 13.8196 8.76007 13.7813C8.21931 13.4996 7.70911 13.1628 7.23757 12.7763C7.06353 12.6297 6.90175 12.4692 6.75382 12.2963C6.50152 11.9966 6.34941 11.6255 6.31882 11.235L6.27382 10.5938ZM6.75007 14.9775L9.58506 17.895L9.50257 17.9588L7.84132 19.2338L6.89632 16.9838L6.32632 15.6075L6.75007 14.9775ZM1.43632 18.75C1.44247 18.4079 1.54541 18.0745 1.73323 17.7884C1.92105 17.5024 2.18606 17.2754 2.49757 17.1338H2.55007L5.70007 15.9863L6.27007 17.3625L7.22257 19.65C7.27591 19.7882 7.37703 19.9026 7.50757 19.9725L7.60132 20.01H7.63882H7.67256C7.70998 20.0137 7.74765 20.0137 7.78507 20.01H7.82257C7.86937 20.0065 7.91579 19.999 7.96132 19.9875H8.01007C8.06476 19.9654 8.11642 19.9364 8.16382 19.9013L8.53882 19.6163L9.77256 18.6675V23.25H4.50007V21.9C4.47974 21.8189 4.43291 21.747 4.36701 21.6955C4.3011 21.6441 4.21991 21.6162 4.13632 21.6162C4.05272 21.6162 3.97153 21.6441 3.90562 21.6955C3.83972 21.747 3.79289 21.8189 3.77257 21.9V23.25H1.17007L1.43632 18.75ZM18.9151 23.25H16.2901V21.915C16.2685 21.8356 16.2213 21.7655 16.1559 21.7155C16.0905 21.6655 16.0105 21.6384 15.9282 21.6384C15.8459 21.6384 15.7658 21.6655 15.7004 21.7155C15.635 21.7655 15.5879 21.8356 15.5663 21.915V23.2688H10.5001V18.6675L12.0713 19.875L12.1201 19.9125C12.1666 19.948 12.2185 19.9759 12.2738 19.995H12.3151C12.3628 20.008 12.4119 20.0155 12.4613 20.0175H12.4913C12.5345 20.0171 12.5774 20.0108 12.6188 19.9988H12.6413C12.6815 19.9877 12.7204 19.9726 12.7576 19.9538C12.8881 19.8838 12.9892 19.7694 13.0426 19.6313L13.7063 18.0375L14.5651 15.9675L15.1051 16.1663C15.058 16.2016 15.0199 16.2475 14.9938 16.3002C14.9678 16.353 14.9545 16.4112 14.9551 16.47V17.6588C14.9535 17.7143 14.9633 17.7697 14.9839 17.8213C15.0044 17.873 15.0353 17.9199 15.0746 17.9592C15.1139 17.9985 15.1609 18.0294 15.2125 18.05C15.2642 18.0705 15.3195 18.0803 15.3751 18.0788H15.7838C15.8629 18.3389 15.9684 18.5902 16.0988 18.8288L15.8101 19.1175C15.7347 19.194 15.6925 19.297 15.6925 19.4044C15.6925 19.5118 15.7347 19.6148 15.8101 19.6913L16.6501 20.5313C16.727 20.6057 16.8299 20.6474 16.9369 20.6474C17.044 20.6474 17.1469 20.6057 17.2238 20.5313L17.5126 20.2425C17.7493 20.3766 18.0011 20.4823 18.2626 20.5575V20.9663C18.262 21.0214 18.2727 21.076 18.294 21.1269C18.3153 21.1777 18.3467 21.2237 18.3864 21.2619C18.426 21.3002 18.4731 21.33 18.5247 21.3494C18.5763 21.3689 18.6313 21.3776 18.6863 21.375H18.9151V23.25ZM22.8526 17.3288H22.5001C22.4073 17.3287 22.3173 17.3608 22.2455 17.4196C22.1737 17.4784 22.1245 17.5603 22.1063 17.6513C22.0321 18.0054 21.8922 18.3425 21.6938 18.645C21.637 18.7248 21.6114 18.8227 21.6218 18.9201C21.6321 19.0174 21.6778 19.1077 21.7501 19.1738L21.9901 19.4138L21.6151 19.7888L21.3751 19.5563C21.3082 19.4919 21.2219 19.4514 21.1297 19.4412C21.0374 19.431 20.9443 19.4517 20.8651 19.5C20.5639 19.6993 20.2281 19.8405 19.8751 19.9163C19.7841 19.9359 19.7025 19.986 19.6439 20.0583C19.5852 20.1306 19.553 20.2207 19.5526 20.3138V20.6513H19.0088V20.3138C19.0084 20.2207 18.9761 20.1306 18.9175 20.0583C18.8588 19.986 18.7773 19.9359 18.6863 19.9163C18.3319 19.8409 17.9949 19.6997 17.6926 19.5C17.6137 19.4512 17.5209 19.4299 17.4286 19.4394C17.3364 19.4489 17.2498 19.4887 17.1826 19.5525L16.9426 19.7925L16.5676 19.4175L16.8076 19.1775C16.8735 19.1122 16.9148 19.0261 16.9244 18.9338C16.9339 18.8415 16.9112 18.7487 16.8601 18.6713C16.661 18.3677 16.5211 18.0293 16.4476 17.6738C16.4286 17.5835 16.3791 17.5025 16.3074 17.4444C16.2356 17.3863 16.1461 17.3548 16.0538 17.355H15.7126V16.8075H16.0538C16.1433 16.8067 16.2299 16.7759 16.2998 16.7202C16.3698 16.6645 16.4192 16.587 16.4401 16.5C16.5143 16.1459 16.6542 15.8088 16.8526 15.5063C16.9037 15.4288 16.9264 15.3361 16.9169 15.2438C16.9073 15.1515 16.866 15.0653 16.8001 15L16.5601 14.76L16.9351 14.385L17.1751 14.625C17.2418 14.6901 17.3287 14.7303 17.4215 14.7392C17.5142 14.7481 17.6072 14.725 17.6851 14.6738C17.988 14.4711 18.3264 14.3273 18.6826 14.25C18.7742 14.2311 18.8567 14.1814 18.916 14.109C18.9754 14.0367 19.0082 13.9461 19.0088 13.8525V13.5H19.5488V13.8375C19.546 13.9337 19.5771 14.0278 19.6368 14.1032C19.6965 14.1787 19.7808 14.2306 19.8751 14.25C20.229 14.3229 20.5661 14.4615 20.8688 14.6588C20.9471 14.7081 21.0398 14.7294 21.1318 14.7191C21.2237 14.7089 21.3095 14.6678 21.3751 14.6025L21.6151 14.3625L21.9901 14.7375L21.7501 15C21.6841 15.0653 21.6429 15.1515 21.6333 15.2438C21.6237 15.3361 21.6464 15.4288 21.6976 15.5063C21.9029 15.8068 22.0481 16.1443 22.1251 16.5C22.1447 16.591 22.1948 16.6726 22.2671 16.7312C22.3394 16.7898 22.4295 16.8221 22.5226 16.8225H22.8638L22.8526 17.3288Z" fill="#818181"/>
<path d="M14.4187 10.6491L14.6587 10.3791L14.5765 10.306L14.3365 10.576L14.4187 10.6491ZM23.1751 16.08L23.176 15.97H23.1751V16.08ZM22.7663 16.08L22.661 16.1117L22.6846 16.19H22.7663V16.08ZM22.4513 15.33L22.3735 15.2522L22.3151 15.3106L22.3549 15.383L22.4513 15.33ZM22.7401 15.0413L22.8179 15.1191L22.8184 15.1185L22.7401 15.0413ZM22.8576 14.7544H22.7476H22.8576ZM22.7401 14.4675L22.8184 14.3903L22.8184 14.3903L22.7401 14.4675ZM21.9001 13.6163L21.9784 13.539L21.9766 13.5372L21.9001 13.6163ZM21.3263 13.6163L21.2498 13.5372L21.2485 13.5385L21.3263 13.6163ZM21.0376 13.905L20.9834 14.0007L21.0562 14.042L21.1153 13.9828L21.0376 13.905ZM20.2876 13.59H20.1776V13.6728L20.2572 13.6957L20.2876 13.59ZM20.2876 13.185L20.1776 13.185V13.185H20.2876ZM19.8751 12.78V12.89L19.8771 12.89L19.8751 12.78ZM18.2813 13.185H18.1713H18.2813ZM18.2813 13.5938L18.3117 13.6995L18.3913 13.6766V13.5938H18.2813ZM17.5313 13.9088L17.4525 13.9855L17.5117 14.0463L17.5855 14.0045L17.5313 13.9088ZM17.2501 13.62L17.3289 13.5433L17.3273 13.5417L17.2501 13.62ZM16.9632 13.5024V13.6124V13.5024ZM16.6763 13.62L16.5991 13.5417L16.5985 13.5422L16.6763 13.62ZM15.8363 14.46L15.9137 14.5382L15.9141 14.5378L15.8363 14.46ZM15.8363 15.03L15.9141 14.9522L15.9137 14.9519L15.8363 15.03ZM16.1251 15.3188L16.2215 15.3716L16.2612 15.2993L16.2028 15.241L16.1251 15.3188ZM15.9451 15.6938L15.9074 15.7971L16.0063 15.8331L16.0466 15.736L15.9451 15.6938ZM14.5763 15.195L14.4858 15.2575L14.5057 15.2864L14.5387 15.2984L14.5763 15.195ZM14.0326 14.4075H13.9226V14.4418L13.942 14.47L14.0326 14.4075ZM14.0326 12.825L13.9548 12.7472L13.9226 12.7795V12.825H14.0326ZM14.0926 12.765L14.1706 12.8431L14.1769 12.8357L14.0926 12.765ZM14.6963 11.2988L14.5868 11.2878L14.5867 11.2896L14.6963 11.2988ZM14.7226 11.0363L14.6865 10.9324L14.6201 10.9554L14.6131 11.0253L14.7226 11.0363ZM15.5063 9.53627L15.3981 9.51637L15.3979 9.51754L15.5063 9.53627ZM15.4051 7.70627L15.2951 7.70481L15.2947 7.73619L15.3109 7.76307L15.4051 7.70627ZM15.9263 6.75002L15.8658 6.65815L15.8655 6.65837L15.9263 6.75002ZM16.0951 6.43502L16.2051 6.43449L16.2051 6.43339L16.0951 6.43502ZM13.9313 1.36127L13.8524 1.43795L13.8738 1.45989L13.9034 1.46766L13.9313 1.36127ZM5.83507 0.851271L5.79356 0.74924L5.78837 0.751674L5.83507 0.851271ZM5.62507 1.12502L5.51675 1.10572L5.51639 1.10798L5.62507 1.12502ZM5.74132 1.45877L5.66671 1.53967L5.66927 1.5419L5.74132 1.45877ZM5.91007 1.60502L5.97896 1.69078L6.08172 1.60822L5.98211 1.5219L5.91007 1.60502ZM4.20382 6.33752L4.09382 6.33771L4.09382 6.33798L4.20382 6.33752ZM4.31257 6.60002L4.39612 6.52806L4.39066 6.52256L4.31257 6.60002ZM4.83757 7.82252L4.93326 7.87677L4.95051 7.84633L4.94701 7.81151L4.83757 7.82252ZM4.76257 9.53627L4.87072 9.51615L4.87051 9.51511L4.76257 9.53627ZM5.57632 11.0363L5.53778 11.1393L5.55642 11.1463H5.57632V11.0363ZM5.59507 11.0363L5.70449 11.025L5.69432 10.9263H5.59507V11.0363ZM5.62132 11.2913L5.73101 11.2826L5.73074 11.28L5.62132 11.2913ZM6.21382 12.75L6.12919 12.8203L6.13 12.8213L6.21382 12.75ZM6.42381 12.975H6.53381V12.9295L6.5016 12.8972L6.42381 12.975ZM6.42381 14.2163L6.49565 14.2996L6.53381 14.2667V14.2163H6.42381ZM6.33757 14.3063L6.25111 14.2379L6.24718 14.2436L6.33757 14.3063ZM5.72632 15.1875L5.76423 15.2908L5.79688 15.2788L5.8167 15.2502L5.72632 15.1875ZM2.32507 16.4363V16.5463H2.34462L2.36298 16.5395L2.32507 16.4363ZM2.27257 16.4363V16.3263H2.25086L2.23078 16.3345L2.27257 16.4363ZM0.708815 18.6863L0.818659 18.6928L0.818753 18.69L0.708815 18.6863ZM0.420065 23.5613L0.310247 23.5548L0.310179 23.5563L0.420065 23.5613ZM0.521315 23.835L0.441111 23.9103L0.442749 23.912L0.521315 23.835ZM0.783815 23.9475L0.782249 24.0575L0.783197 24.0575L0.783815 23.9475ZM10.1251 24L10.1244 24.11H10.1251V24ZM19.6538 21.375V21.265H19.5438V21.375H19.6538ZM19.8751 21.375V21.485V21.375ZM20.2801 20.565L20.2497 20.4593L20.1701 20.4822V20.565H20.2801ZM21.0301 20.25L21.1083 20.1727L21.0492 20.1128L20.9759 20.1543L21.0301 20.25ZM21.3188 20.5425L21.2405 20.6198L21.2423 20.6216L21.3188 20.5425ZM21.8926 20.5425L21.9691 20.6216L21.9703 20.6203L21.8926 20.5425ZM22.7288 19.7063L22.652 19.6275L22.651 19.6285L22.7288 19.7063ZM22.8488 19.4175L22.9588 19.4164L22.9588 19.414L22.8488 19.4175ZM22.7326 19.1325L22.8137 19.0581L22.8103 19.0547L22.7326 19.1325ZM22.4438 18.8438L22.3473 18.791L22.3078 18.8633L22.366 18.9216L22.4438 18.8438ZM22.7588 18.0938V17.9838H22.6773L22.6536 18.0618L22.7588 18.0938ZM23.1751 18.0938V18.2038L23.1761 18.2038L23.1751 18.0938ZM23.5801 17.6888L23.6901 17.6898V17.6888H23.5801ZM23.5801 16.5L23.4701 16.497V16.5H23.5801ZM7.15132 13.6125L7.21659 13.524L7.04132 13.3948V13.6125H7.15132ZM8.43382 14.415L8.48505 14.3177L8.4849 14.3176L8.43382 14.415ZM9.01507 14.5613L9.01413 14.6713H9.01507V14.5613ZM11.2651 14.5613V14.6713L11.2658 14.6713L11.2651 14.5613ZM11.8426 14.415L11.7918 14.3174L11.7908 14.3179L11.8426 14.415ZM13.2863 13.5H13.3963V13.2781L13.2197 13.4125L13.2863 13.5ZM13.2863 14.2125L13.3538 14.2993L13.3963 14.2663V14.2125H13.2863ZM13.2526 14.2388L13.1845 14.1513L13.1748 14.161L13.2526 14.2388ZM13.2151 14.2763L13.1367 14.1979L13.1287 14.2082L13.2151 14.2763ZM13.0613 14.4713L13.14 14.5491L13.1477 14.5394L13.0613 14.4713ZM10.1476 17.415L10.0686 17.4916L10.1468 17.5721L10.2257 17.4924L10.1476 17.415ZM7.26382 14.445L7.34291 14.3682L7.3374 14.3633L7.26382 14.445ZM7.15132 14.3438H7.04132V14.3928L7.07773 14.4255L7.15132 14.3438ZM12.4426 19.2375L12.3754 19.3246L12.4896 19.4127L12.5443 19.2793L12.4426 19.2375ZM10.6913 17.8875L10.6131 17.8101L10.5256 17.8986L10.6242 17.9746L10.6913 17.8875ZM13.5488 15L13.6394 14.9377L13.5641 14.8282L13.4706 14.9226L13.5488 15ZM13.9538 15.5888L14.0554 15.6311L14.0784 15.5758L14.0444 15.5264L13.9538 15.5888ZM13.0163 17.8388L12.9148 17.7965L12.9145 17.797L13.0163 17.8388ZM6.67507 1.96877L6.73098 2.06352L6.73267 2.06248L6.67507 1.96877ZM6.85132 1.69127L6.9607 1.70359L6.961 1.69953L6.85132 1.69127ZM6.72757 1.38377L6.6527 1.46439L6.65418 1.46571L6.72757 1.38377ZM6.67507 1.33502L6.64155 1.23025L6.46232 1.28758L6.60022 1.41563L6.67507 1.33502ZM13.4738 1.94627L13.3931 2.02096L13.3939 2.02186L13.4738 1.94627ZM13.6688 2.05877L13.6434 2.16584L13.6467 2.16653L13.6688 2.05877ZM15.3638 6.26627L15.4333 6.35155L15.4751 6.31748L15.4738 6.26355L15.3638 6.26627ZM14.7263 7.33877H14.6163L14.8344 7.35905L14.7263 7.33877ZM14.5388 6.05627L14.4304 6.07656L14.4324 6.08404L14.5388 6.05627ZM14.4863 5.85002L14.3811 5.88205L14.3817 5.88394L14.4863 5.85002ZM13.8976 4.69502L13.8123 4.76457L13.8124 4.76468L13.8976 4.69502ZM13.7026 4.48127L13.6195 4.55392L13.6255 4.55977L13.7026 4.48127ZM13.6201 4.38752L13.6979 4.30973L13.6966 4.30855L13.6201 4.38752ZM13.3013 4.11752L13.3666 4.029L13.3654 4.02809L13.3013 4.11752ZM12.9001 4.09502L12.8464 3.99899L12.8458 3.99936L12.9001 4.09502ZM9.19507 4.50002L9.1808 4.6091L9.18157 4.60919L9.19507 4.50002ZM8.02882 4.51877L8.01105 4.41021L8.01041 4.41032L8.02882 4.51877ZM5.60632 7.43252V7.54252H5.70849L5.71602 7.44062L5.60632 7.43252ZM5.49382 7.43252L5.38579 7.45324L5.40291 7.54252H5.49382V7.43252ZM4.92007 6.19502L4.81007 6.19386L4.80965 6.23334L4.83445 6.26408L4.92007 6.19502ZM6.27382 10.5938L6.38386 10.586L6.38265 10.5778L6.27382 10.5938ZM6.04507 10.3013L6.00297 10.4029L6.00333 10.403L6.04507 10.3013ZM5.91007 10.275L5.90974 10.385L5.91101 10.385L5.91007 10.275ZM5.77132 10.2975L5.6753 10.3512L5.71985 10.4309L5.80638 10.4018L5.77132 10.2975ZM5.43382 9.24002L5.54408 9.22805L5.54076 9.21425L5.43382 9.24002ZM5.43382 8.20877L5.36074 8.12656L5.33496 8.14947L5.32688 8.183L5.43382 8.20877ZM5.46757 8.17877L5.45562 8.06942L5.42072 8.07323L5.39449 8.09656L5.46757 8.17877ZM5.84257 8.20502L5.81547 8.31176L5.82048 8.31278L5.84257 8.20502ZM6.29257 7.85252L6.40257 7.85688V7.85252H6.29257ZM8.12257 5.22752L8.10572 5.11877L8.10257 5.11935L8.12257 5.22752ZM9.08257 5.22752L9.06571 5.33629L9.06952 5.33675L9.08257 5.22752ZM13.0088 4.82627L13.0821 4.74423L13.0294 4.69721L12.9648 4.72548L13.0088 4.82627ZM13.9801 7.74002L14.0901 7.7411V7.74002H13.9801ZM14.3026 8.11502L14.2872 8.22397L14.2899 8.22428L14.3026 8.11502ZM14.7863 8.17127L14.8953 8.15622L14.8836 8.07185L14.799 8.06201L14.7863 8.17127ZM14.4826 10.3013L14.4464 10.4051L14.5417 10.4384L14.583 10.3462L14.4826 10.3013ZM13.9876 10.605L13.8785 10.5902L13.8781 10.5946L13.9876 10.605ZM13.9276 11.235L13.8181 11.2246L13.818 11.2255L13.9276 11.235ZM13.4926 12.3L13.5755 12.3724L13.5775 12.37L13.4926 12.3ZM13.0651 12.7238L13.1361 12.8078L13.1366 12.8073L13.0651 12.7238ZM11.4826 13.7813L11.4321 13.6835L11.431 13.6841L11.4826 13.7813ZM11.2463 13.8413V13.9513L11.2473 13.9513L11.2463 13.8413ZM9.00006 13.8413L8.99854 13.9513H9.00006V13.8413ZM8.76007 13.7813L8.70925 13.8788L8.70965 13.879L8.76007 13.7813ZM7.23757 12.7763L7.1667 12.8604L7.16783 12.8613L7.23757 12.7763ZM6.75382 12.2963L6.66967 12.3671L6.67024 12.3678L6.75382 12.2963ZM6.31882 11.235L6.20908 11.2427L6.20915 11.2436L6.31882 11.235ZM6.75007 14.9775L6.82895 14.9009L6.73446 14.8036L6.65879 14.9161L6.75007 14.9775ZM9.58506 17.895L9.65232 17.9821L9.74982 17.9067L9.66395 17.8184L9.58506 17.895ZM9.50257 17.9588L9.56954 18.046L9.56982 18.0458L9.50257 17.9588ZM7.84132 19.2338L7.7399 19.2764L7.79513 19.4079L7.90829 19.321L7.84132 19.2338ZM6.89632 16.9838L6.79469 17.0259L6.7949 17.0264L6.89632 16.9838ZM6.32632 15.6075L6.23504 15.5461L6.20211 15.5951L6.22469 15.6496L6.32632 15.6075ZM1.43632 18.75L1.54622 18.7565L1.5463 18.752L1.43632 18.75ZM2.49757 17.1338V17.0238H2.47373L2.45203 17.0336L2.49757 17.1338ZM2.55007 17.1338V17.2438H2.56948L2.58772 17.2371L2.55007 17.1338ZM5.70007 15.9863L5.80169 15.9442L5.76139 15.8469L5.66241 15.8829L5.70007 15.9863ZM6.27007 17.3625L6.16844 17.4046L6.16852 17.4048L6.27007 17.3625ZM7.22257 19.65L7.32521 19.6104L7.32411 19.6077L7.22257 19.65ZM7.50757 19.9725L7.45529 20.0701L7.46671 20.0747L7.50757 19.9725ZM7.60132 20.01L7.56046 20.1122L7.58013 20.12H7.60132V20.01ZM7.67256 20.01L7.68333 19.9H7.67256V20.01ZM7.78507 20.01V19.8995L7.77435 19.9005L7.78507 20.01ZM7.82257 20.01V20.1203L7.83086 20.1197L7.82257 20.01ZM7.96132 19.9875V19.8775H7.94771L7.93452 19.8808L7.96132 19.9875ZM8.01007 19.9875V20.0975H8.03148L8.05133 20.0895L8.01007 19.9875ZM8.16382 19.9013L8.22933 19.9896L8.23037 19.9888L8.16382 19.9013ZM8.53882 19.6163L8.60538 19.7039L8.60587 19.7035L8.53882 19.6163ZM9.77256 18.6675H9.88256V18.4442L9.70551 18.5803L9.77256 18.6675ZM9.77256 23.25V23.36H9.88256V23.25H9.77256ZM4.50007 23.25H4.39007V23.36H4.50007V23.25ZM4.50007 21.9H4.61007V21.8864L4.60677 21.8733L4.50007 21.9ZM3.77257 21.9L3.66587 21.8733L3.66257 21.8864V21.9H3.77257ZM3.77257 23.25V23.36H3.88257V23.25H3.77257ZM1.17007 23.25L1.06026 23.2435L1.05336 23.36H1.17007V23.25ZM18.9151 23.25V23.36H19.0251V23.25H18.9151ZM16.2901 23.25H16.1801V23.36H16.2901V23.25ZM16.2901 21.915H16.4001V21.9003L16.3962 21.8862L16.2901 21.915ZM15.5663 21.915L15.4602 21.8862L15.4563 21.9003V21.915H15.5663ZM15.5663 23.2688V23.3788H15.6763V23.2688H15.5663ZM10.5001 23.2688H10.3901V23.3788H10.5001V23.2688ZM10.5001 18.6675L10.5671 18.5803L10.3901 18.4443V18.6675H10.5001ZM12.0713 19.875L12.1384 19.7878L12.1383 19.7878L12.0713 19.875ZM12.1201 19.9125L12.053 19.9997L12.0534 20L12.1201 19.9125ZM12.2738 19.995L12.2378 20.099L12.2553 20.105H12.2738V19.995ZM12.3151 19.995L12.3439 19.8889L12.3297 19.885H12.3151V19.995ZM12.4613 20.0175L12.4569 20.1275H12.4613V20.0175ZM12.4913 20.0175V20.1275L12.4924 20.1275L12.4913 20.0175ZM12.6188 19.9988V19.8888H12.6032L12.5882 19.8931L12.6188 19.9988ZM12.6413 19.9988V20.1088H12.6562L12.6706 20.1048L12.6413 19.9988ZM12.7576 19.9538L12.8074 20.0519L12.8095 20.0507L12.7576 19.9538ZM13.0426 19.6313L12.941 19.589L12.94 19.5916L13.0426 19.6313ZM13.7063 18.0375L13.8079 18.0798L13.8079 18.0797L13.7063 18.0375ZM14.5651 15.9675L14.6031 15.8643L14.5039 15.8278L14.4635 15.9254L14.5651 15.9675ZM15.1051 16.1663L15.1711 16.2543L15.3329 16.1329L15.1431 16.063L15.1051 16.1663ZM14.9551 16.47H15.0651L15.0651 16.4689L14.9551 16.47ZM14.9551 17.6588L15.0651 17.6618V17.6588H14.9551ZM15.3751 18.0788V17.9687L15.372 17.9688L15.3751 18.0788ZM15.7838 18.0788L15.8891 18.0468L15.8654 17.9688H15.7838V18.0788ZM16.0988 18.8288L16.1766 18.9066L16.2348 18.8483L16.1953 18.776L16.0988 18.8288ZM15.8101 19.1175L15.7323 19.0397L15.7317 19.0403L15.8101 19.1175ZM15.6925 19.4044H15.8025H15.6925ZM15.8101 19.6913L15.7317 19.7685L15.7323 19.7691L15.8101 19.6913ZM16.6501 20.5313L16.5723 20.6091L16.5736 20.6103L16.6501 20.5313ZM17.2238 20.5313L17.3003 20.6103L17.3016 20.6091L17.2238 20.5313ZM17.5126 20.2425L17.5668 20.1468L17.4939 20.1056L17.4348 20.1647L17.5126 20.2425ZM18.2626 20.5575H18.3726V20.4747L18.293 20.4518L18.2626 20.5575ZM18.2626 20.9663L18.3726 20.9674V20.9663H18.2626ZM18.6863 21.375V21.2649L18.6812 21.2651L18.6863 21.375ZM18.9151 21.375H19.0251V21.265H18.9151V21.375ZM22.8526 17.3288V17.4388H22.9601L22.9625 17.3312L22.8526 17.3288ZM22.5001 17.3288L22.5 17.4388H22.5001V17.3288ZM22.1063 17.6513L22.214 17.6738L22.2142 17.6729L22.1063 17.6513ZM21.6938 18.645L21.7835 18.7088L21.7858 18.7053L21.6938 18.645ZM21.7501 19.1738L21.8279 19.0959L21.8243 19.0926L21.7501 19.1738ZM21.9901 19.4138L22.0678 19.4916L22.1456 19.4138L22.0678 19.336L21.9901 19.4138ZM21.6151 19.7888L21.5385 19.8678L21.6163 19.9431L21.6928 19.8666L21.6151 19.7888ZM21.3751 19.5563L21.4516 19.4773L21.4514 19.4771L21.3751 19.5563ZM20.8651 19.5L20.8078 19.406L20.8044 19.4083L20.8651 19.5ZM19.8751 19.9163L19.852 19.8087L19.8519 19.8087L19.8751 19.9163ZM19.5526 20.3138L19.4426 20.3132V20.3138H19.5526ZM19.5526 20.6513V20.7613H19.6626V20.6513H19.5526ZM19.0088 20.6513H18.8988V20.7613H19.0088V20.6513ZM19.0088 20.3138H19.1188L19.1188 20.3132L19.0088 20.3138ZM18.6863 19.9163L18.7095 19.8087L18.7092 19.8087L18.6863 19.9163ZM17.6926 19.5L17.7532 19.4082L17.7504 19.4065L17.6926 19.5ZM17.1826 19.5525L17.1068 19.4727L17.1048 19.4747L17.1826 19.5525ZM16.9426 19.7925L16.8648 19.8703L16.9426 19.9481L17.0203 19.8703L16.9426 19.7925ZM16.5676 19.4175L16.4898 19.3397L16.412 19.4175L16.4898 19.4953L16.5676 19.4175ZM16.8076 19.1775L16.7302 19.0994L16.7298 19.0997L16.8076 19.1775ZM16.8601 18.6713L16.7681 18.7316L16.7683 18.7319L16.8601 18.6713ZM16.4476 17.6738L16.5553 17.6515L16.5552 17.6512L16.4476 17.6738ZM16.0538 17.355V17.465L16.0541 17.465L16.0538 17.355ZM15.7126 17.355H15.6026V17.465H15.7126V17.355ZM15.7126 16.8075V16.6975H15.6026V16.8075H15.7126ZM16.0538 16.8075V16.9175L16.0549 16.9175L16.0538 16.8075ZM16.4401 16.5L16.5471 16.5257L16.5477 16.5226L16.4401 16.5ZM16.8526 15.5063L16.7608 15.4457L16.7606 15.446L16.8526 15.5063ZM16.8001 15L16.7223 15.0778L16.7227 15.0782L16.8001 15ZM16.5601 14.76L16.4823 14.6822L16.4045 14.76L16.4823 14.8378L16.5601 14.76ZM16.9351 14.385L17.0128 14.3072L16.9351 14.2295L16.8573 14.3072L16.9351 14.385ZM17.1751 14.625L17.0973 14.7028L17.0983 14.7038L17.1751 14.625ZM17.6851 14.6738L17.7455 14.7657L17.7462 14.7652L17.6851 14.6738ZM18.6826 14.25L18.6604 14.1423L18.6592 14.1425L18.6826 14.25ZM19.0088 13.8525L19.1188 13.8533V13.8525H19.0088ZM19.0088 13.5V13.39H18.8988V13.5H19.0088ZM19.5488 13.5H19.6588V13.39H19.5488V13.5ZM19.5488 13.8375L19.6588 13.8408V13.8375H19.5488ZM19.8751 14.25L19.8973 14.1423L19.8972 14.1423L19.8751 14.25ZM20.8688 14.6588L20.8088 14.751L20.8102 14.7519L20.8688 14.6588ZM21.3751 14.6025L21.4527 14.6805L21.4528 14.6803L21.3751 14.6025ZM21.6151 14.3625L21.6928 14.2847L21.6151 14.207L21.5373 14.2847L21.6151 14.3625ZM21.9901 14.7375L22.0712 14.8117L22.1422 14.7341L22.0678 14.6597L21.9901 14.7375ZM21.7501 15L21.8276 15.0783L21.8312 15.0742L21.7501 15ZM21.6976 15.5063L21.6058 15.5669L21.6068 15.5683L21.6976 15.5063ZM22.1251 16.5L22.2326 16.4768L22.2326 16.4768L22.1251 16.5ZM22.5226 16.8225L22.522 16.9325H22.5226V16.8225ZM22.8638 16.8225L22.9738 16.825L22.9763 16.7125H22.8638V16.8225ZM23.1751 15.97H22.7663V16.19H23.1751V15.97ZM22.8716 16.0483C22.791 15.7806 22.6825 15.522 22.5477 15.277L22.3549 15.383C22.4822 15.6145 22.5848 15.8588 22.661 16.1117L22.8716 16.0483ZM22.5291 15.4078L22.8178 15.1191L22.6623 14.9635L22.3735 15.2522L22.5291 15.4078ZM22.8184 15.1185C22.914 15.0214 22.9676 14.8906 22.9676 14.7544H22.7476C22.7476 14.8329 22.7168 14.9082 22.6617 14.9641L22.8184 15.1185ZM22.9676 14.7544C22.9676 14.6182 22.914 14.4874 22.8184 14.3903L22.6617 14.5447C22.7168 14.6006 22.7476 14.6759 22.7476 14.7544H22.9676ZM22.8184 14.3903L21.9784 13.539L21.8218 13.6935L22.6618 14.5448L22.8184 14.3903ZM21.9766 13.5372C21.8791 13.4429 21.7488 13.3902 21.6132 13.3902V13.6102C21.6917 13.6102 21.7671 13.6407 21.8236 13.6953L21.9766 13.5372ZM21.6132 13.3902C21.4776 13.3902 21.3473 13.4429 21.2498 13.5372L21.4028 13.6953C21.4592 13.6407 21.5347 13.6102 21.6132 13.6102V13.3902ZM21.2485 13.5385L20.9598 13.8272L21.1153 13.9828L21.4041 13.6941L21.2485 13.5385ZM21.0918 13.8093C20.8475 13.671 20.5878 13.5619 20.318 13.4843L20.2572 13.6957C20.5104 13.7686 20.7541 13.8709 20.9834 14.0007L21.0918 13.8093ZM20.3976 13.59V13.185H20.1776V13.59H20.3976ZM20.3976 13.185C20.3976 13.1166 20.3839 13.0488 20.3575 12.9857L20.1546 13.0708C20.1698 13.107 20.1776 13.1458 20.1776 13.185L20.3976 13.185ZM20.3575 12.9857C20.331 12.9226 20.2922 12.8654 20.2434 12.8175L20.0892 12.9745C20.1172 13.0019 20.1394 13.0347 20.1546 13.0708L20.3575 12.9857ZM20.2434 12.8175C20.1945 12.7695 20.1366 12.7318 20.073 12.7065L19.9917 12.9109C20.0281 12.9254 20.0613 12.947 20.0892 12.9745L20.2434 12.8175ZM20.073 12.7065C20.0095 12.6812 19.9415 12.6688 19.873 12.67L19.8771 12.89C19.9163 12.8893 19.9552 12.8964 19.9917 12.9109L20.073 12.7065ZM19.8751 12.67H18.6863V12.89H19.8751V12.67ZM18.6863 12.67C18.5497 12.67 18.4187 12.7243 18.3222 12.8209L18.4777 12.9764C18.533 12.9211 18.6081 12.89 18.6863 12.89V12.67ZM18.3222 12.8209C18.2256 12.9174 18.1713 13.0484 18.1713 13.185H18.3913C18.3913 13.1068 18.4224 13.0317 18.4777 12.9764L18.3222 12.8209ZM18.1713 13.185V13.5938H18.3913V13.185H18.1713ZM18.2509 13.4881C17.9811 13.5657 17.7214 13.6747 17.4771 13.813L17.5855 14.0045C17.8148 13.8747 18.0585 13.7723 18.3117 13.6995L18.2509 13.4881ZM17.6101 13.832L17.3289 13.5433L17.1713 13.6968L17.4525 13.9855L17.6101 13.832ZM17.3273 13.5417C17.2302 13.446 17.0994 13.3924 16.9632 13.3924V13.6124C17.0417 13.6124 17.117 13.6433 17.1729 13.6984L17.3273 13.5417ZM16.9632 13.3924C16.8269 13.3924 16.6962 13.446 16.5991 13.5417L16.7535 13.6984C16.8094 13.6433 16.8847 13.6124 16.9632 13.6124V13.3924ZM16.5985 13.5422L15.7585 14.3822L15.9141 14.5378L16.7541 13.6978L16.5985 13.5422ZM15.7589 14.3819C15.7109 14.4294 15.6729 14.486 15.6469 14.5483L15.8499 14.633C15.8647 14.5975 15.8864 14.5652 15.9137 14.5382L15.7589 14.3819ZM15.6469 14.5483C15.6209 14.6106 15.6075 14.6775 15.6075 14.745H15.8275C15.8275 14.7066 15.8351 14.6685 15.8499 14.633L15.6469 14.5483ZM15.6075 14.745C15.6075 14.8125 15.6209 14.8794 15.6469 14.9417L15.8499 14.8571C15.8351 14.8216 15.8275 14.7835 15.8275 14.745H15.6075ZM15.6469 14.9417C15.6729 15.0041 15.7109 15.0606 15.7589 15.1082L15.9137 14.9519C15.8864 14.9248 15.8647 14.8926 15.8499 14.8571L15.6469 14.9417ZM15.7585 15.1078L16.0473 15.3966L16.2028 15.241L15.9141 14.9522L15.7585 15.1078ZM16.0286 15.2659C15.96 15.3911 15.8982 15.5198 15.8435 15.6516L16.0466 15.736C16.0984 15.6115 16.1567 15.4899 16.2215 15.3716L16.0286 15.2659ZM15.9827 15.5904L14.614 15.0917L14.5387 15.2984L15.9074 15.7971L15.9827 15.5904ZM14.6668 15.1325L14.1231 14.345L13.942 14.47L14.4858 15.2575L14.6668 15.1325ZM14.1426 14.4075V12.825H13.9226V14.4075H14.1426ZM14.1103 12.9028L14.1703 12.8428L14.0148 12.6872L13.9548 12.7472L14.1103 12.9028ZM14.1769 12.8357C14.539 12.4035 14.7587 11.8699 14.8059 11.308L14.5867 11.2896C14.5433 11.8063 14.3413 12.2969 14.0083 12.6944L14.1769 12.8357ZM14.8058 11.3097L14.832 11.0472L14.6131 11.0253L14.5869 11.2878L14.8058 11.3097ZM14.7586 11.1402C15.0296 11.0462 15.2159 10.7874 15.3455 10.5003C15.477 10.2089 15.5615 9.86298 15.6147 9.55501L15.3979 9.51754C15.3462 9.81706 15.2656 10.1424 15.145 10.4098C15.0224 10.6814 14.8693 10.8689 14.6865 10.9324L14.7586 11.1402ZM15.6145 9.55617C15.6451 9.39003 15.6977 9.05341 15.7035 8.69193C15.7092 8.33556 15.67 7.93261 15.4993 7.64947L15.3109 7.76307C15.4476 7.98993 15.4891 8.33886 15.4835 8.68842C15.478 9.03288 15.4276 9.35626 15.3981 9.51637L15.6145 9.55617ZM15.5151 7.70773C15.5173 7.53586 15.5615 7.36714 15.6438 7.21621L15.4506 7.11092C15.3512 7.29328 15.2978 7.49714 15.2951 7.70481L15.5151 7.70773ZM15.6438 7.21621C15.7261 7.06529 15.8439 6.93672 15.9871 6.84167L15.8655 6.65837C15.6924 6.77321 15.55 6.92856 15.4506 7.11092L15.6438 7.21621ZM15.9868 6.84189C16.0542 6.7975 16.1095 6.737 16.1476 6.66586L15.9537 6.56197C15.9328 6.60084 15.9026 6.6339 15.8658 6.65815L15.9868 6.84189ZM16.1476 6.66586C16.1857 6.59472 16.2055 6.51519 16.2051 6.43449L15.9851 6.43555C15.9853 6.47965 15.9745 6.5231 15.9537 6.56197L16.1476 6.66586ZM16.2051 6.43339C16.1825 4.90687 15.9944 3.71476 15.6277 2.85379C15.2594 1.9891 14.707 1.45124 13.9593 1.25488L13.9034 1.46766C14.5694 1.64256 15.0764 2.12094 15.4253 2.94C15.7757 3.76279 15.9627 4.92193 15.9851 6.43665L16.2051 6.43339ZM14.0102 1.28459C12.6607 -0.103493 10.6465 -0.249081 8.96877 -0.0492063C7.28616 0.151251 5.90779 0.702937 5.79362 0.749379L5.87651 0.953164C5.98359 0.909606 7.34084 0.366292 8.9948 0.169249C10.6536 -0.0283764 12.577 0.126035 13.8524 1.43795L14.0102 1.28459ZM5.78837 0.751674C5.71806 0.784636 5.6567 0.833997 5.60944 0.895608L5.78399 1.02951C5.80981 0.99585 5.84334 0.968879 5.88176 0.950869L5.78837 0.751674ZM5.60944 0.895608C5.56217 0.957219 5.53039 1.02928 5.51677 1.10572L5.73336 1.14432C5.7408 1.10255 5.75817 1.06318 5.78399 1.02951L5.60944 0.895608ZM5.51639 1.10798C5.50405 1.18675 5.5113 1.26734 5.53753 1.34263L5.74529 1.27027C5.73096 1.22913 5.72699 1.18509 5.73374 1.14206L5.51639 1.10798ZM5.53753 1.34263C5.56375 1.41792 5.60813 1.48559 5.66674 1.53963L5.81589 1.37791C5.78386 1.34838 5.75962 1.3114 5.74529 1.27027L5.53753 1.34263ZM5.66927 1.5419L5.83802 1.68815L5.98211 1.5219L5.81336 1.37565L5.66927 1.5419ZM5.84118 1.51927C4.67896 2.45291 4.09004 4.07941 4.09382 6.33771L4.31382 6.33734C4.31009 4.11063 4.89117 2.56463 5.97896 1.69078L5.84118 1.51927ZM4.09382 6.33798C4.09435 6.46522 4.14487 6.58715 4.23447 6.67748L4.39066 6.52256C4.34171 6.4732 4.31411 6.40658 4.31381 6.33706L4.09382 6.33798ZM4.22922 6.67181C4.51077 6.99869 4.68495 7.40427 4.72812 7.83353L4.94701 7.81151C4.89932 7.33734 4.70692 6.88932 4.39591 6.52823L4.22922 6.67181ZM4.74187 7.76827C4.59186 8.03288 4.555 8.39039 4.56071 8.71648C4.56649 9.04643 4.61644 9.36273 4.65462 9.55744L4.87051 9.51511C4.83369 9.32731 4.78614 9.02487 4.78067 8.71263C4.77514 8.39653 4.81327 8.08842 4.93326 7.87677L4.74187 7.76827ZM4.65442 9.55639C4.7002 9.80245 4.7828 10.141 4.91861 10.4438C5.05204 10.7413 5.24878 11.0312 5.53778 11.1393L5.61485 10.9332C5.4126 10.8576 5.24747 10.6394 5.11934 10.3538C4.99358 10.0734 4.91493 9.75384 4.87071 9.51615L4.65442 9.55639ZM5.57632 11.1463H5.59507V10.9263H5.57632V11.1463ZM5.48564 11.0475L5.51189 11.3025L5.73074 11.28L5.70449 11.025L5.48564 11.0475ZM5.51165 11.2999C5.55558 11.8583 5.7713 12.3894 6.1292 12.8203L6.29843 12.6797C5.96957 12.2838 5.77134 11.7958 5.73098 11.2826L5.51165 11.2999ZM6.13 12.8213C6.19637 12.8993 6.26987 12.9766 6.34603 13.0528L6.5016 12.8972C6.42776 12.8234 6.35876 12.7507 6.29763 12.6788L6.13 12.8213ZM6.31381 12.975V14.2163H6.53381V12.975H6.31381ZM6.35198 14.133C6.31516 14.1647 6.28144 14.1999 6.25128 14.238L6.42385 14.3745C6.44535 14.3473 6.46939 14.3222 6.49565 14.2996L6.35198 14.133ZM6.24718 14.2436L5.63593 15.1248L5.8167 15.2502L6.42795 14.369L6.24718 14.2436ZM5.6884 15.0843L2.28715 16.333L2.36298 16.5395L5.76423 15.2908L5.6884 15.0843ZM2.32507 16.3263H2.27257V16.5463H2.32507V16.3263ZM2.23078 16.3345C1.76154 16.5272 1.35792 16.8513 1.06843 17.2678L1.24908 17.3934C1.51439 17.0116 1.8843 16.7146 2.31435 16.538L2.23078 16.3345ZM1.06843 17.2678C0.778933 17.6843 0.615885 18.1756 0.598877 18.6826L0.818753 18.69C0.83434 18.2253 0.983769 17.7751 1.24908 17.3934L1.06843 17.2678ZM0.599008 18.6798L0.310258 23.5548L0.529873 23.5678L0.818623 18.6928L0.599008 18.6798ZM0.310179 23.5563C0.307232 23.621 0.317302 23.6857 0.339794 23.7466L0.546133 23.6702C0.533844 23.637 0.528341 23.6017 0.529952 23.5663L0.310179 23.5563ZM0.339794 23.7466C0.362286 23.8074 0.396743 23.8631 0.441129 23.9103L0.601502 23.7597C0.577251 23.7339 0.558423 23.7035 0.546133 23.6702L0.339794 23.7466ZM0.442749 23.912C0.532295 24.0034 0.654321 24.0557 0.782249 24.0575L0.785382 23.8375C0.715482 23.8365 0.648809 23.808 0.599882 23.758L0.442749 23.912ZM0.783197 24.0575L10.1244 24.11L10.1257 23.89L0.784433 23.8375L0.783197 24.0575ZM10.1251 24.11H19.2788V23.89H10.1251V24.11ZM19.2788 24.11C19.4074 24.11 19.5308 24.0589 19.6218 23.968L19.4662 23.8124C19.4165 23.8621 19.3491 23.89 19.2788 23.89V24.11ZM19.6218 23.968C19.7127 23.877 19.7638 23.7537 19.7638 23.625H19.5438C19.5438 23.6953 19.5159 23.7627 19.4662 23.8124L19.6218 23.968ZM19.7638 23.625V21.375H19.5438V23.625H19.7638ZM19.6538 21.485H19.8751V21.265H19.6538V21.485ZM19.8751 21.485C20.0117 21.485 20.1426 21.4308 20.2392 21.3342L20.0837 21.1786C20.0283 21.2339 19.9533 21.265 19.8751 21.265V21.485ZM20.2392 21.3342C20.3358 21.2376 20.3901 21.1066 20.3901 20.97H20.1701C20.1701 21.0483 20.139 21.1233 20.0837 21.1786L20.2392 21.3342ZM20.3901 20.97V20.565H20.1701V20.97H20.3901ZM20.3105 20.6707C20.5803 20.5931 20.84 20.484 21.0843 20.3457L20.9759 20.1543C20.7466 20.2841 20.5029 20.3865 20.2497 20.4593L20.3105 20.6707ZM20.9518 20.3273L21.2405 20.6198L21.3971 20.4652L21.1083 20.1727L20.9518 20.3273ZM21.2423 20.6216C21.3398 20.7159 21.4701 20.7686 21.6057 20.7686V20.5486C21.5272 20.5486 21.4517 20.5181 21.3953 20.4635L21.2423 20.6216ZM21.6057 20.7686C21.7413 20.7686 21.8716 20.7159 21.9691 20.6216L21.8161 20.4635C21.7596 20.5181 21.6842 20.5486 21.6057 20.5486V20.7686ZM21.9703 20.6203L22.8066 19.7841L22.651 19.6285L21.8148 20.4647L21.9703 20.6203ZM22.8056 19.785C22.8547 19.7371 22.8936 19.6798 22.92 19.6164L22.7168 19.532C22.7019 19.5679 22.6799 19.6004 22.652 19.6275L22.8056 19.785ZM22.92 19.6164C22.9463 19.553 22.9595 19.485 22.9588 19.4164L22.7388 19.4187C22.7392 19.4575 22.7317 19.4961 22.7168 19.532L22.92 19.6164ZM22.9588 19.414C22.9545 19.2818 22.903 19.1556 22.8136 19.0581L22.6515 19.2069C22.7053 19.2655 22.7363 19.3415 22.7389 19.421L22.9588 19.414ZM22.8103 19.0547L22.5216 18.766L22.366 18.9216L22.6548 19.2103L22.8103 19.0547ZM22.5403 18.8965C22.6743 18.6514 22.7828 18.3931 22.8641 18.1258L22.6536 18.0618C22.5767 18.3147 22.4741 18.5591 22.3473 18.791L22.5403 18.8965ZM22.7588 18.2038H23.1751V17.9838H22.7588V18.2038ZM23.1761 18.2038C23.312 18.2025 23.442 18.148 23.5381 18.0518L23.3826 17.8963C23.3272 17.9516 23.2523 17.9831 23.1741 17.9838L23.1761 18.2038ZM23.5381 18.0518C23.6343 17.9557 23.6888 17.8257 23.6901 17.6898L23.4701 17.6878C23.4694 17.7661 23.4379 17.8409 23.3826 17.8963L23.5381 18.0518ZM23.6901 17.6888V16.5H23.4701V17.6888H23.6901ZM23.69 16.5031C23.6919 16.4341 23.6801 16.3655 23.6551 16.3013L23.45 16.3808C23.4644 16.4178 23.4712 16.4573 23.4701 16.497L23.69 16.5031ZM23.6551 16.3013C23.6302 16.237 23.5927 16.1783 23.5449 16.1287L23.3865 16.2814C23.4141 16.31 23.4357 16.3438 23.45 16.3808L23.6551 16.3013ZM23.5449 16.1287C23.497 16.079 23.4398 16.0395 23.3764 16.0122L23.2895 16.2143C23.326 16.23 23.359 16.2528 23.3865 16.2814L23.5449 16.1287ZM23.3764 16.0122C23.3131 15.985 23.245 15.9706 23.176 15.97L23.1741 16.19C23.2138 16.1904 23.253 16.1986 23.2895 16.2143L23.3764 16.0122ZM7.08604 13.7011C7.49702 14.0041 7.93051 14.2753 8.38273 14.5124L8.4849 14.3176C8.04258 14.0857 7.61858 13.8204 7.21659 13.524L7.08604 13.7011ZM8.38258 14.5124C8.57742 14.6149 8.79396 14.6694 9.01413 14.6713L9.016 14.4513C8.8309 14.4497 8.64885 14.4039 8.48505 14.3177L8.38258 14.5124ZM9.01507 14.6713H11.2651V14.4513H9.01507V14.6713ZM11.2658 14.6713C11.4851 14.6699 11.7008 14.6152 11.8943 14.5121L11.7908 14.3179C11.6287 14.4043 11.4481 14.4501 11.2644 14.4513L11.2658 14.6713ZM11.8933 14.5126C12.4053 14.2465 12.8937 13.937 13.3529 13.5876L13.2197 13.4125C12.7704 13.7543 12.2927 14.0571 11.7918 14.3174L11.8933 14.5126ZM13.1763 13.5V14.2125H13.3963V13.5H13.1763ZM13.2188 14.1257L13.185 14.1519L13.3201 14.3256L13.3538 14.2993L13.2188 14.1257ZM13.1748 14.161L13.1373 14.1985L13.2928 14.3541L13.3303 14.3166L13.1748 14.161ZM13.1287 14.2082L12.9749 14.4032L13.1477 14.5394L13.3014 14.3444L13.1287 14.2082ZM12.9831 14.3939L10.0694 17.3376L10.2257 17.4924L13.1395 14.5487L12.9831 14.3939ZM10.2265 17.3384L7.34273 14.3684L7.1849 14.5216L10.0686 17.4916L10.2265 17.3384ZM7.3374 14.3633L7.2249 14.262L7.07773 14.4255L7.19023 14.5268L7.3374 14.3633ZM7.26132 14.3438V13.6125H7.04132V14.3438H7.26132ZM12.5097 19.1504L10.7585 17.8004L10.6242 17.9746L12.3754 19.3246L12.5097 19.1504ZM10.7695 17.9649L13.627 15.0774L13.4706 14.9226L10.6131 17.8101L10.7695 17.9649ZM13.4582 15.0624L13.8632 15.6511L14.0444 15.5264L13.6394 14.9377L13.4582 15.0624ZM13.8523 15.5465L12.9148 17.7965L13.1179 17.8811L14.0554 15.6311L13.8523 15.5465ZM12.9145 17.797L12.3408 19.1958L12.5443 19.2793L13.1181 17.8805L12.9145 17.797ZM6.73267 2.06248C6.79543 2.0239 6.84858 1.97153 6.88807 1.90934L6.70236 1.79139C6.68078 1.82537 6.65175 1.85398 6.61746 1.87506L6.73267 2.06248ZM6.88807 1.90934C6.92757 1.84715 6.95238 1.77679 6.96062 1.70358L6.74201 1.67896C6.7375 1.71896 6.72395 1.75741 6.70236 1.79139L6.88807 1.90934ZM6.961 1.69953C6.96659 1.62541 6.95506 1.551 6.92731 1.48204L6.72321 1.56417C6.73838 1.60185 6.74468 1.64251 6.74163 1.68301L6.961 1.69953ZM6.92731 1.48204C6.89955 1.41308 6.85633 1.35143 6.80095 1.30183L6.65418 1.46571C6.68443 1.49281 6.70805 1.5265 6.72321 1.56417L6.92731 1.48204ZM6.80241 1.30316L6.74991 1.25441L6.60022 1.41563L6.65272 1.46438L6.80241 1.30316ZM6.70858 1.43979C7.40169 1.21807 8.6401 0.887709 9.9255 0.85342C11.2136 0.819059 12.525 1.08233 13.3931 2.02096L13.5546 1.87158C12.6227 0.863966 11.2322 0.598484 9.91963 0.633498C8.60441 0.668583 7.34344 1.00572 6.64155 1.23025L6.70858 1.43979ZM13.3939 2.02186C13.4613 2.09309 13.548 2.14312 13.6434 2.16579L13.6943 1.95175C13.6405 1.93898 13.5917 1.9108 13.5537 1.87068L13.3939 2.02186ZM13.6467 2.16653C14.1277 2.26511 14.5129 2.63648 14.7883 3.32048C15.0643 4.0058 15.2221 4.98809 15.2538 6.269L15.4738 6.26355C15.4418 4.97196 15.2827 3.95925 14.9924 3.23831C14.7016 2.51606 14.2711 2.06993 13.6909 1.95101L13.6467 2.16653ZM15.2943 6.18099C14.9416 6.46835 14.7021 6.87134 14.6182 7.31849L14.8344 7.35905C14.9087 6.963 15.1209 6.60607 15.4333 6.35155L15.2943 6.18099ZM14.8363 7.33877C14.8363 7.25103 14.8369 7.15063 14.8103 7.04851L14.5974 7.10404C14.6157 7.17442 14.6163 7.24651 14.6163 7.33877H14.8363ZM14.8103 7.04851C14.8032 7.02136 14.8026 6.99288 14.803 6.95096C14.8035 6.91344 14.8052 6.85847 14.7921 6.80329L14.5781 6.85425C14.5837 6.87782 14.5836 6.90348 14.583 6.94846C14.5826 6.98904 14.582 7.04493 14.5974 7.10404L14.8103 7.04851ZM14.7921 6.80329C14.7745 6.72928 14.7655 6.63145 14.7487 6.52639L14.5314 6.56115C14.5446 6.6436 14.5582 6.77076 14.5781 6.85425L14.7921 6.80329ZM14.7487 6.52639C14.7423 6.4863 14.7428 6.4592 14.74 6.41524C14.7373 6.37333 14.7313 6.32463 14.7066 6.26988L14.506 6.36016C14.5151 6.38042 14.5185 6.39921 14.5205 6.42949C14.5223 6.45772 14.5229 6.50749 14.5314 6.56115L14.7487 6.52639ZM14.7066 6.26988C14.6946 6.24322 14.6853 6.20932 14.6758 6.16612C14.6672 6.12722 14.6571 6.07399 14.6453 6.0285L14.4324 6.08404C14.443 6.12481 14.4499 6.16345 14.4609 6.21361C14.4711 6.25947 14.4843 6.31183 14.506 6.36016L14.7066 6.26988ZM14.6469 6.03604C14.633 5.9616 14.6143 5.88814 14.591 5.8161L14.3817 5.88394C14.4021 5.94701 14.4185 6.01133 14.4307 6.07651L14.6469 6.03604ZM14.5916 5.81799C14.5642 5.728 14.532 5.64724 14.5034 5.56868L14.2967 5.64386C14.3281 5.7303 14.356 5.79954 14.3811 5.88205L14.5916 5.81799ZM14.5034 5.56868C14.4735 5.48645 14.4574 5.44208 14.4296 5.37843L14.228 5.46661C14.2527 5.52297 14.2666 5.5611 14.2967 5.64386L14.5034 5.56868ZM14.4296 5.37843C14.4013 5.31367 14.3495 5.21822 14.3137 5.15004L14.119 5.2525C14.1581 5.32683 14.2039 5.41138 14.228 5.46661L14.4296 5.37843ZM14.3137 5.15004C14.2958 5.1161 14.2834 5.09048 14.271 5.06517C14.2586 5.03984 14.2461 5.01481 14.2293 4.98545L14.0383 5.0946C14.0515 5.11773 14.0615 5.1377 14.0735 5.16206C14.0855 5.18644 14.0993 5.2152 14.119 5.2525L14.3137 5.15004ZM14.2293 4.98545C14.1965 4.92806 14.1214 4.82706 14.0784 4.76416L13.8968 4.88839C13.9512 4.96798 14.0111 5.04698 14.0383 5.0946L14.2293 4.98545ZM14.0784 4.76416C14.0376 4.70462 14.0198 4.67074 13.9827 4.62537L13.8124 4.76468C13.8428 4.80181 13.84 4.80543 13.8968 4.88839L14.0784 4.76416ZM13.9828 4.62548C13.9192 4.54756 13.8514 4.47321 13.7796 4.40277L13.6255 4.55977C13.6915 4.62455 13.7539 4.69292 13.8123 4.76457L13.9828 4.62548ZM13.7853 4.40884C13.765 4.38556 13.7311 4.34294 13.6978 4.30974L13.5423 4.4653C13.5691 4.4921 13.5876 4.51698 13.6198 4.55371L13.7853 4.40884ZM13.6966 4.30855C13.593 4.20808 13.4828 4.11469 13.3666 4.029L13.236 4.20604C13.3442 4.28587 13.4469 4.37289 13.5435 4.4665L13.6966 4.30855ZM13.3654 4.02809C13.2905 3.9745 13.202 3.94331 13.1101 3.93816L13.0978 4.15781C13.148 4.16063 13.1964 4.17767 13.2373 4.20695L13.3654 4.02809ZM13.1101 3.93816C13.0182 3.933 12.9268 3.9541 12.8464 3.99899L12.9537 4.19105C12.9976 4.16652 13.0476 4.15499 13.0978 4.15781L13.1101 3.93816ZM12.9001 4.09502C12.8458 3.99936 12.8458 3.99933 12.8459 3.99931C12.8459 3.99931 12.8459 3.99929 12.8459 3.99928C12.8459 3.99926 12.8459 3.99926 12.8459 3.99927C12.8459 3.99928 12.8458 3.99934 12.8456 3.99943C12.8453 3.99963 12.8446 3.99999 12.8437 4.00051C12.8418 4.00156 12.8386 4.00324 12.8343 4.00551C12.8256 4.01006 12.8121 4.01697 12.7938 4.02581C12.7572 4.04349 12.7012 4.06893 12.626 4.09878C12.4756 4.15847 12.2482 4.23582 11.9445 4.30411C11.3373 4.44062 10.4238 4.54114 9.20857 4.39085L9.18157 4.60919C10.4226 4.76266 11.3615 4.66067 11.9928 4.51875C12.3083 4.44781 12.5466 4.36696 12.7072 4.30326C12.7874 4.27141 12.8482 4.24385 12.8894 4.22396C12.91 4.21401 12.9257 4.20598 12.9366 4.2003C12.942 4.19746 12.9462 4.1952 12.9491 4.19358C12.9506 4.19277 12.9518 4.19212 12.9527 4.19163C12.9531 4.19139 12.9535 4.19119 12.9537 4.19103C12.9539 4.19095 12.954 4.19089 12.9541 4.19083C12.9542 4.1908 12.9542 4.19076 12.9543 4.19075C12.9543 4.19072 12.9544 4.19069 12.9001 4.09502ZM9.20933 4.39095C8.8111 4.33886 8.4074 4.34535 8.01105 4.41022L8.04658 4.62733C8.42174 4.56593 8.80386 4.55979 9.1808 4.60909L9.20933 4.39095ZM8.01041 4.41032C7.47676 4.50087 6.88622 4.71597 6.4088 5.18261C5.92984 5.65074 5.5751 6.36193 5.49661 7.42442L5.71602 7.44062C5.79128 6.42186 6.12841 5.7643 6.56258 5.33994C6.99828 4.91407 7.54212 4.71292 8.04722 4.62722L8.01041 4.41032ZM5.60632 7.32252H5.49382V7.54252H5.60632V7.32252ZM5.60185 7.4118C5.51149 6.94081 5.30677 6.49925 5.00569 6.12596L4.83445 6.26408C5.11289 6.6093 5.30223 7.01767 5.38579 7.45324L5.60185 7.4118ZM5.03006 6.19619C5.05241 4.0839 5.63712 2.70905 6.73097 2.0635L6.61916 1.87404C5.42551 2.57849 4.83272 4.05365 4.81007 6.19386L5.03006 6.19619ZM6.38265 10.5778C6.37042 10.4945 6.33671 10.4158 6.28483 10.3495L6.11154 10.485C6.13988 10.5212 6.1583 10.5642 6.16498 10.6097L6.38265 10.5778ZM6.28483 10.3495C6.23296 10.2831 6.16471 10.2314 6.0868 10.1995L6.00333 10.403C6.0459 10.4205 6.08319 10.4487 6.11154 10.485L6.28483 10.3495ZM6.08716 10.1996C6.03074 10.1763 5.97019 10.1645 5.90912 10.165L5.91101 10.385C5.94255 10.3847 5.97383 10.3908 6.00297 10.4029L6.08716 10.1996ZM5.91039 10.165C5.85119 10.1648 5.79236 10.1744 5.73625 10.1933L5.80638 10.4018C5.83969 10.3906 5.8746 10.3849 5.90974 10.385L5.91039 10.165ZM5.86733 10.2438C5.69216 9.93049 5.58191 9.58505 5.54317 9.22815L5.32446 9.25189C5.36638 9.63817 5.4857 10.012 5.6753 10.3512L5.86733 10.2438ZM5.54076 9.21425C5.46318 8.89229 5.46318 8.5565 5.54076 8.23454L5.32688 8.183C5.24114 8.53884 5.24114 8.90995 5.32688 9.26579L5.54076 9.21425ZM5.5069 8.29099L5.54065 8.26099L5.39449 8.09656L5.36074 8.12656L5.5069 8.29099ZM5.47951 8.28812C5.59201 8.27583 5.70581 8.2838 5.8155 8.31164L5.86963 8.0984C5.73446 8.06409 5.59425 8.05428 5.45562 8.06942L5.47951 8.28812ZM5.82048 8.31278C5.88938 8.3269 5.96052 8.32587 6.02898 8.30976L5.97858 8.09561C5.94117 8.10441 5.9023 8.10498 5.86465 8.09726L5.82048 8.31278ZM6.02898 8.30976C6.09744 8.29364 6.16158 8.26283 6.21694 8.21946L6.08128 8.04627C6.05102 8.06997 6.01598 8.0868 5.97858 8.09561L6.02898 8.30976ZM6.21694 8.21946C6.27231 8.17609 6.31758 8.1212 6.34962 8.05859L6.15377 7.95837C6.13626 7.99258 6.11153 8.02258 6.08128 8.04627L6.21694 8.21946ZM6.34962 8.05859C6.38165 7.99598 6.39969 7.92716 6.40248 7.85688L6.18265 7.84816C6.18113 7.88656 6.17127 7.92417 6.15377 7.95837L6.34962 8.05859ZM6.40257 7.85252C6.40257 7.08081 6.5487 6.50728 6.83356 6.10116C7.11624 5.69814 7.54537 5.44608 8.14256 5.33569L8.10257 5.11935C7.46226 5.23771 6.97639 5.5144 6.65345 5.97482C6.33268 6.43214 6.18257 7.05673 6.18257 7.85252H6.40257ZM8.13941 5.33622C8.44635 5.28867 8.75878 5.28867 9.06572 5.33622L9.09941 5.11882C8.77014 5.0678 8.43499 5.0678 8.10572 5.11882L8.13941 5.33622ZM9.06952 5.33675C11.1943 5.59051 12.5302 5.15548 13.0529 4.92707L12.9648 4.72548C12.4749 4.93956 11.1783 5.36703 9.09561 5.1183L9.06952 5.33675ZM12.9355 4.90831C13.5692 5.47432 13.8701 6.34005 13.8701 7.74002H14.0901C14.0901 6.31249 13.7834 5.37072 13.0821 4.74423L12.9355 4.90831ZM13.8701 7.73894C13.8689 7.85663 13.9106 7.97072 13.9873 8.05995L14.1541 7.9165C14.1122 7.86775 14.0894 7.80541 14.0901 7.7411L13.8701 7.73894ZM13.9873 8.05995C14.0641 8.14918 14.1706 8.20747 14.2872 8.22394L14.318 8.0061C14.2543 7.9971 14.1961 7.96526 14.1541 7.9165L13.9873 8.05995ZM14.2899 8.22428L14.7736 8.28053L14.799 8.06201L14.3153 8.00576L14.2899 8.22428ZM14.6774 8.18632C14.7746 8.89036 14.6723 9.60757 14.3822 10.2564L14.583 10.3462C14.89 9.6598 14.9982 8.90105 14.8953 8.15622L14.6774 8.18632ZM14.5188 10.1974C14.4509 10.1737 14.3786 10.1655 14.3071 10.1732L14.3307 10.3919C14.3698 10.3877 14.4093 10.3922 14.4464 10.4051L14.5188 10.1974ZM14.3071 10.1732C14.2356 10.1809 14.1668 10.2044 14.1055 10.242L14.2206 10.4295C14.254 10.409 14.2917 10.3961 14.3307 10.3919L14.3071 10.1732ZM14.1055 10.242C14.0442 10.2796 13.9921 10.3304 13.9528 10.3906L14.1372 10.5107C14.1586 10.4778 14.1871 10.4501 14.2206 10.4295L14.1055 10.242ZM13.9528 10.3906C13.9136 10.4508 13.8882 10.519 13.8786 10.5902L14.0966 10.6198C14.1018 10.5809 14.1157 10.5436 14.1372 10.5107L13.9528 10.3906ZM13.8781 10.5946L13.8181 11.2246L14.0371 11.2455L14.0971 10.6155L13.8781 10.5946ZM13.818 11.2255C13.786 11.5942 13.6429 11.9445 13.4077 12.2301L13.5775 12.37C13.841 12.05 14.0013 11.6575 14.0372 11.2445L13.818 11.2255ZM13.4097 12.2277C13.2811 12.3751 13.142 12.513 12.9935 12.6402L13.1366 12.8073C13.2932 12.6731 13.4399 12.5277 13.5755 12.3723L13.4097 12.2277ZM12.994 12.6398C12.5143 13.0454 11.9904 13.3955 11.4321 13.6835L11.533 13.879C12.106 13.5834 12.6437 13.224 13.1361 12.8078L12.994 12.6398ZM11.431 13.6841C11.3738 13.7145 11.3101 13.7307 11.2453 13.7313L11.2473 13.9513C11.3474 13.9503 11.4458 13.9254 11.5342 13.8784L11.431 13.6841ZM11.2463 13.7313H9.00006V13.9513H11.2463V13.7313ZM9.00159 13.7313C8.93505 13.7304 8.86963 13.714 8.81048 13.6835L8.70965 13.879C8.79906 13.9251 8.89795 13.9499 8.99854 13.9513L9.00159 13.7313ZM8.81088 13.6837C8.27685 13.4055 7.77298 13.0729 7.3073 12.6912L7.16783 12.8613C7.64523 13.2527 8.16178 13.5936 8.70925 13.8788L8.81088 13.6837ZM7.30843 12.6921C7.13897 12.5494 6.98144 12.3931 6.83739 12.2248L6.67024 12.3678C6.82206 12.5452 6.9881 12.71 7.1667 12.8604L7.30843 12.6921ZM6.83796 12.2254C6.60047 11.9434 6.45727 11.594 6.42848 11.2264L6.20915 11.2436C6.24154 11.657 6.40258 12.0499 6.66967 12.3671L6.83796 12.2254ZM6.42855 11.2273L6.38355 10.5861L6.16408 10.6015L6.20909 11.2427L6.42855 11.2273ZM6.67118 15.0542L9.50618 17.9717L9.66395 17.8184L6.82895 14.9009L6.67118 15.0542ZM9.51781 17.808L9.43531 17.8717L9.56982 18.0458L9.65232 17.9821L9.51781 17.808ZM9.43559 17.8715L7.77434 19.1465L7.90829 19.321L9.56954 18.046L9.43559 17.8715ZM7.94273 19.1912L6.99773 16.9412L6.7949 17.0264L7.7399 19.2764L7.94273 19.1912ZM6.99794 16.9417L6.42794 15.5654L6.22469 15.6496L6.79469 17.0259L6.99794 16.9417ZM6.41759 15.6689L6.84134 15.0389L6.65879 14.9161L6.23504 15.5461L6.41759 15.6689ZM1.5463 18.752C1.55207 18.4306 1.64877 18.1175 1.82518 17.8488L1.64128 17.7281C1.44206 18.0315 1.33286 18.3851 1.32633 18.748L1.5463 18.752ZM1.82518 17.8488C2.0016 17.5801 2.25051 17.3669 2.5431 17.2339L2.45203 17.0336C2.12161 17.1839 1.84051 17.4247 1.64128 17.7281L1.82518 17.8488ZM2.49757 17.2438H2.55007V17.0238H2.49757V17.2438ZM2.58772 17.2371L5.73772 16.0896L5.66241 15.8829L2.51241 17.0304L2.58772 17.2371ZM5.59844 16.0284L6.16844 17.4046L6.37169 17.3204L5.80169 15.9442L5.59844 16.0284ZM6.16852 17.4048L7.12102 19.6923L7.32411 19.6077L6.37161 17.3202L6.16852 17.4048ZM7.11995 19.6896C7.18278 19.8524 7.30188 19.9871 7.45562 20.0695L7.55951 19.8756C7.45219 19.8181 7.36904 19.724 7.32518 19.6104L7.11995 19.6896ZM7.46671 20.0747L7.56046 20.1122L7.64217 19.9079L7.54842 19.8704L7.46671 20.0747ZM7.60132 20.12H7.63882V19.9H7.60132V20.12ZM7.63882 20.12H7.67256V19.9H7.63882V20.12ZM7.66185 20.1195C7.70639 20.1239 7.75124 20.1239 7.79578 20.1195L7.77435 19.9005C7.74407 19.9035 7.71356 19.9035 7.68328 19.9005L7.66185 20.1195ZM7.78507 20.12H7.82257V19.9H7.78507V20.12ZM7.83086 20.1197C7.88391 20.1157 7.93651 20.1072 7.98811 20.0942L7.93452 19.8808C7.89506 19.8907 7.85484 19.8973 7.81427 19.9003L7.83086 20.1197ZM7.96132 20.0975H8.01007V19.8775H7.96132V20.0975ZM8.05133 20.0895C8.11464 20.0639 8.17445 20.0303 8.22933 19.9896L8.09831 19.8129C8.05839 19.8425 8.01487 19.8669 7.9688 19.8856L8.05133 20.0895ZM8.23037 19.9888L8.60537 19.7038L8.47226 19.5287L8.09726 19.8137L8.23037 19.9888ZM8.60587 19.7035L9.83962 18.7547L9.70551 18.5803L8.47176 19.5291L8.60587 19.7035ZM9.66257 18.6675V23.25H9.88256V18.6675H9.66257ZM9.77256 23.14H4.50007V23.36H9.77256V23.14ZM4.61007 23.25V21.9H4.39007V23.25H4.61007ZM4.60677 21.8733C4.58048 21.7684 4.51991 21.6753 4.43468 21.6088L4.29934 21.7823C4.34591 21.8186 4.379 21.8695 4.39337 21.9268L4.60677 21.8733ZM4.43468 21.6088C4.34944 21.5423 4.24443 21.5062 4.13632 21.5062V21.7262C4.19539 21.7262 4.25277 21.7459 4.29934 21.7823L4.43468 21.6088ZM4.13632 21.5062C4.0282 21.5062 3.92319 21.5423 3.83795 21.6088L3.97329 21.7823C4.01986 21.7459 4.07724 21.7262 4.13632 21.7262V21.5062ZM3.83795 21.6088C3.75272 21.6753 3.69215 21.7684 3.66587 21.8733L3.87927 21.9268C3.89363 21.8695 3.92672 21.8186 3.97329 21.7823L3.83795 21.6088ZM3.66257 21.9V23.25H3.88257V21.9H3.66257ZM3.77257 23.14H1.17007V23.36H3.77257V23.14ZM1.27987 23.2565L1.54612 18.7565L1.32651 18.7435L1.06026 23.2435L1.27987 23.2565ZM18.9151 23.14H16.2901V23.36H18.9151V23.14ZM16.4001 23.25V21.915H16.1801V23.25H16.4001ZM16.3962 21.8862C16.3683 21.7834 16.3073 21.6927 16.2228 21.6281L16.0891 21.8028C16.1354 21.8382 16.1687 21.8877 16.1839 21.9439L16.3962 21.8862ZM16.2228 21.6281C16.1382 21.5634 16.0347 21.5284 15.9282 21.5284V21.7484C15.9864 21.7484 16.0429 21.7675 16.0891 21.8028L16.2228 21.6281ZM15.9282 21.5284C15.8217 21.5284 15.7182 21.5634 15.6336 21.6281L15.7672 21.8028C15.8135 21.7675 15.87 21.7484 15.9282 21.7484V21.5284ZM15.6336 21.6281C15.549 21.6927 15.4881 21.7834 15.4602 21.8862L15.6725 21.9439C15.6877 21.8877 15.721 21.8382 15.7672 21.8028L15.6336 21.6281ZM15.4563 21.915V23.2688H15.6763V21.915H15.4563ZM15.5663 23.1588H10.5001V23.3788H15.5663V23.1588ZM10.6101 23.2688V18.6675H10.3901V23.2688H10.6101ZM10.433 18.7547L12.0043 19.9622L12.1383 19.7878L10.5671 18.5803L10.433 18.7547ZM12.0042 19.9622L12.053 19.9997L12.1871 19.8253L12.1384 19.7878L12.0042 19.9622ZM12.0534 20C12.1092 20.0426 12.1715 20.076 12.2378 20.099L12.3098 19.8911C12.2656 19.8757 12.224 19.8535 12.1868 19.825L12.0534 20ZM12.2738 20.105H12.3151V19.885H12.2738V20.105ZM12.2863 20.1012C12.342 20.1163 12.3992 20.1251 12.4569 20.1274L12.4657 19.9076C12.4245 19.9059 12.3837 19.8997 12.3439 19.8889L12.2863 20.1012ZM12.4613 20.1275H12.4913V19.9075H12.4613V20.1275ZM12.4924 20.1275C12.5456 20.127 12.5984 20.1192 12.6494 20.1044L12.5882 19.8931C12.5564 19.9023 12.5234 19.9072 12.4902 19.9075L12.4924 20.1275ZM12.6188 20.1088H12.6413V19.8888H12.6188V20.1088ZM12.6706 20.1048C12.7178 20.0918 12.7636 20.074 12.8073 20.0519L12.7078 19.8557C12.6772 19.8712 12.6451 19.8836 12.6121 19.8927L12.6706 20.1048ZM12.8095 20.0507C12.9633 19.9684 13.0823 19.8336 13.1452 19.6709L12.94 19.5916C12.8961 19.7052 12.8129 19.7993 12.7056 19.8568L12.8095 20.0507ZM13.1441 19.6736L13.8079 18.0798L13.6048 17.9952L12.941 19.589L13.1441 19.6736ZM13.8079 18.0797L14.6667 16.0097L14.4635 15.9254L13.6047 17.9954L13.8079 18.0797ZM14.5271 16.0708L15.0671 16.2695L15.1431 16.063L14.6031 15.8643L14.5271 16.0708ZM15.0391 16.0783C14.9782 16.1239 14.9289 16.1833 14.8952 16.2515L15.0924 16.3489C15.1109 16.3117 15.1378 16.2792 15.1711 16.2543L15.0391 16.0783ZM14.8952 16.2515C14.8615 16.3198 14.8443 16.395 14.8451 16.4711L15.0651 16.4689C15.0646 16.4273 15.074 16.3862 15.0924 16.3489L14.8952 16.2515ZM14.8451 16.47V17.6588H15.0651V16.47H14.8451ZM14.8451 17.6557C14.8431 17.7262 14.8556 17.7964 14.8817 17.862L15.0861 17.7806C15.0711 17.7429 15.0639 17.7025 15.065 17.6618L14.8451 17.6557ZM14.8817 17.862C14.9078 17.9275 14.947 17.9871 14.9968 18.037L15.1524 17.8814C15.1237 17.8527 15.1011 17.8184 15.0861 17.7806L14.8817 17.862ZM14.9968 18.037C15.0467 18.0869 15.1063 18.1261 15.1718 18.1522L15.2532 17.9478C15.2154 17.9327 15.1811 17.9102 15.1524 17.8814L14.9968 18.037ZM15.1718 18.1522C15.2374 18.1783 15.3076 18.1907 15.3781 18.1887L15.372 17.9688C15.3314 17.9699 15.291 17.9628 15.2532 17.9478L15.1718 18.1522ZM15.3751 18.1888H15.7838V17.9688H15.3751V18.1888ZM15.6786 18.1108C15.7598 18.3781 15.8683 18.6364 16.0023 18.8815L16.1953 18.776C16.0686 18.5441 15.9659 18.2997 15.8891 18.0468L15.6786 18.1108ZM16.021 18.751L15.7323 19.0397L15.8878 19.1953L16.1766 18.9066L16.021 18.751ZM15.7317 19.0403C15.6361 19.1374 15.5825 19.2682 15.5825 19.4044H15.8025C15.8025 19.3259 15.8334 19.2506 15.8884 19.1947L15.7317 19.0403ZM15.5825 19.4044C15.5825 19.5406 15.6361 19.6714 15.7317 19.7685L15.8884 19.6141C15.8334 19.5582 15.8025 19.4829 15.8025 19.4044H15.5825ZM15.7323 19.7691L16.5723 20.6091L16.7278 20.4535L15.8878 19.6135L15.7323 19.7691ZM16.5736 20.6103C16.671 20.7046 16.8013 20.7574 16.9369 20.7574V20.5374C16.8584 20.5374 16.783 20.5068 16.7266 20.4522L16.5736 20.6103ZM16.9369 20.7574C17.0726 20.7574 17.2029 20.7046 17.3003 20.6103L17.1473 20.4522C17.0909 20.5068 17.0155 20.5374 16.9369 20.5374V20.7574ZM17.3016 20.6091L17.5903 20.3203L17.4348 20.1647L17.146 20.4535L17.3016 20.6091ZM17.4584 20.3382C17.7027 20.4765 17.9624 20.5856 18.2322 20.6632L18.293 20.4518C18.0398 20.379 17.796 20.2766 17.5668 20.1468L17.4584 20.3382ZM18.1526 20.5575V20.9663H18.3726V20.5575H18.1526ZM18.1526 20.9651C18.1518 21.0352 18.1654 21.1047 18.1925 21.1694L18.3954 21.0844C18.3799 21.0474 18.3721 21.0076 18.3726 20.9674L18.1526 20.9651ZM18.1925 21.1694C18.2196 21.234 18.2596 21.2925 18.31 21.3411L18.4627 21.1828C18.4338 21.1549 18.4109 21.1214 18.3954 21.0844L18.1925 21.1694ZM18.31 21.3411C18.3604 21.3898 18.4203 21.4276 18.4859 21.4524L18.5635 21.2465C18.5259 21.2323 18.4916 21.2106 18.4627 21.1828L18.31 21.3411ZM18.4859 21.4524C18.5515 21.4771 18.6214 21.4882 18.6914 21.4849L18.6812 21.2651C18.6411 21.267 18.601 21.2607 18.5635 21.2465L18.4859 21.4524ZM18.6863 21.485H18.9151V21.265H18.6863V21.485ZM18.8051 21.375V23.25H19.0251V21.375H18.8051ZM22.8526 17.2188H22.5001V17.4388H22.8526V17.2188ZM22.5002 17.2188C22.3819 17.2187 22.2673 17.2596 22.1758 17.3345L22.3152 17.5047C22.3673 17.462 22.4326 17.4387 22.5 17.4388L22.5002 17.2188ZM22.1758 17.3345C22.0843 17.4094 22.0217 17.5137 21.9985 17.6297L22.2142 17.6729C22.2274 17.6068 22.2631 17.5474 22.3152 17.5047L22.1758 17.3345ZM21.9987 17.6287C21.9273 17.9694 21.7927 18.2936 21.6018 18.5847L21.7858 18.7053C21.9917 18.3913 22.137 18.0414 22.214 17.6738L21.9987 17.6287ZM21.6042 18.5813C21.5318 18.683 21.4992 18.8076 21.5124 18.9317L21.7312 18.9084C21.7236 18.8377 21.7422 18.7667 21.7835 18.7088L21.6042 18.5813ZM21.5124 18.9317C21.5256 19.0558 21.5837 19.1708 21.6759 19.255L21.8243 19.0926C21.7718 19.0446 21.7387 18.9791 21.7312 18.9084L21.5124 18.9317ZM21.6723 19.2516L21.9123 19.4916L22.0678 19.336L21.8278 19.096L21.6723 19.2516ZM21.9123 19.336L21.5373 19.711L21.6928 19.8666L22.0678 19.4916L21.9123 19.336ZM21.6916 19.7098L21.4516 19.4773L21.2985 19.6353L21.5385 19.8678L21.6916 19.7098ZM21.4514 19.4771C21.3671 19.3958 21.2582 19.3447 21.1417 19.3319L21.1176 19.5506C21.1857 19.5581 21.2494 19.5879 21.2987 19.6355L21.4514 19.4771ZM21.1417 19.3319C21.0253 19.319 20.9079 19.3451 20.8078 19.4061L20.9223 19.594C20.9808 19.5583 21.0495 19.543 21.1176 19.5506L21.1417 19.3319ZM20.8044 19.4083C20.5147 19.6 20.1916 19.7358 19.852 19.8087L19.8982 20.0238C20.2646 19.9452 20.6132 19.7986 20.9258 19.5918L20.8044 19.4083ZM19.8519 19.8087C19.7364 19.8337 19.6329 19.8973 19.5585 19.989L19.7293 20.1276C19.7722 20.0748 19.8318 20.0381 19.8983 20.0238L19.8519 19.8087ZM19.5585 19.989C19.484 20.0807 19.4432 20.1951 19.4426 20.3132L19.6626 20.3143C19.6629 20.2463 19.6865 20.1804 19.7293 20.1276L19.5585 19.989ZM19.4426 20.3138V20.6513H19.6626V20.3138H19.4426ZM19.5526 20.5413H19.0088V20.7613H19.5526V20.5413ZM19.1188 20.6513V20.3138H18.8988V20.6513H19.1188ZM19.1188 20.3132C19.1182 20.1951 19.0773 20.0807 19.0029 19.989L18.8321 20.1276C18.8749 20.1804 18.8985 20.2463 18.8988 20.3143L19.1188 20.3132ZM19.0029 19.989C18.9285 19.8973 18.825 19.8337 18.7095 19.8087L18.6631 20.0238C18.7296 20.0381 18.7892 20.0748 18.8321 20.1276L19.0029 19.989ZM18.7092 19.8087C18.3683 19.7362 18.044 19.6004 17.7532 19.4082L17.6319 19.5918C17.9457 19.7991 18.2956 19.9457 18.6634 20.0239L18.7092 19.8087ZM17.7504 19.4065C17.6509 19.3449 17.5338 19.318 17.4174 19.33L17.4399 19.5488C17.508 19.5418 17.5765 19.5576 17.6347 19.5936L17.7504 19.4065ZM17.4174 19.33C17.3009 19.342 17.1918 19.3922 17.1069 19.4727L17.2583 19.6323C17.3079 19.5852 17.3718 19.5559 17.4399 19.5488L17.4174 19.33ZM17.1048 19.4747L16.8648 19.7147L17.0203 19.8703L17.2603 19.6303L17.1048 19.4747ZM17.0203 19.7147L16.6453 19.3397L16.4898 19.4953L16.8648 19.8703L17.0203 19.7147ZM16.6453 19.4953L16.8853 19.2553L16.7298 19.0997L16.4898 19.3397L16.6453 19.4953ZM16.885 19.2557C16.969 19.1725 17.0216 19.0627 17.0338 18.9451L16.8149 18.9224C16.808 18.9894 16.778 19.052 16.7302 19.0994L16.885 19.2557ZM17.0338 18.9451C17.046 18.8275 17.017 18.7093 16.9519 18.6107L16.7683 18.7319C16.8054 18.7881 16.8219 18.8554 16.8149 18.9224L17.0338 18.9451ZM16.9521 18.611C16.7606 18.319 16.626 17.9934 16.5553 17.6515L16.3398 17.696C16.4161 18.0651 16.5614 18.4164 16.7681 18.7316L16.9521 18.611ZM16.5552 17.6512C16.531 17.5361 16.4679 17.4329 16.3766 17.3589L16.2381 17.5299C16.2902 17.572 16.3261 17.6308 16.3399 17.6964L16.5552 17.6512ZM16.3766 17.3589C16.2852 17.2849 16.1711 17.2447 16.0535 17.245L16.0541 17.465C16.1211 17.4648 16.1861 17.4878 16.2381 17.5299L16.3766 17.3589ZM16.0538 17.245H15.7126V17.465H16.0538V17.245ZM15.8226 17.355V16.8075H15.6026V17.355H15.8226ZM15.7126 16.9175H16.0538V16.6975H15.7126V16.9175ZM16.0549 16.9175C16.1689 16.9164 16.2792 16.8773 16.3683 16.8063L16.2313 16.6341C16.1805 16.6746 16.1177 16.6969 16.0527 16.6975L16.0549 16.9175ZM16.3683 16.8063C16.4575 16.7353 16.5204 16.6365 16.547 16.5257L16.3331 16.4743C16.3179 16.5375 16.2821 16.5937 16.2313 16.6341L16.3683 16.8063ZM16.5477 16.5226C16.6191 16.1819 16.7537 15.8577 16.9446 15.5666L16.7606 15.446C16.5546 15.76 16.4094 16.1099 16.3324 16.4775L16.5477 16.5226ZM16.9444 15.5669C17.0095 15.4682 17.0385 15.35 17.0263 15.2324L16.8074 15.2551C16.8144 15.3221 16.7979 15.3894 16.7608 15.4457L16.9444 15.5669ZM17.0263 15.2324C17.0141 15.1148 16.9615 15.0051 16.8775 14.9219L16.7227 15.0782C16.7705 15.1256 16.8005 15.1881 16.8074 15.2551L17.0263 15.2324ZM16.8778 14.9222L16.6378 14.6822L16.4823 14.8378L16.7223 15.0778L16.8778 14.9222ZM16.6378 14.8378L17.0128 14.4628L16.8573 14.3072L16.4823 14.6822L16.6378 14.8378ZM16.8573 14.4628L17.0973 14.7028L17.2528 14.5472L17.0128 14.3072L16.8573 14.4628ZM17.0983 14.7038C17.183 14.7863 17.2933 14.8375 17.411 14.8487L17.4319 14.6297C17.3642 14.6232 17.3006 14.5938 17.2518 14.5463L17.0983 14.7038ZM17.411 14.8487C17.5287 14.86 17.6468 14.8307 17.7455 14.7657L17.6246 14.5819C17.5677 14.6193 17.4997 14.6362 17.4319 14.6297L17.411 14.8487ZM17.7462 14.7652C18.0377 14.5702 18.3632 14.4319 18.7059 14.3575L18.6592 14.1425C18.2895 14.2227 17.9383 14.372 17.6239 14.5824L17.7462 14.7652ZM18.7048 14.3578C18.8211 14.3338 18.9257 14.2706 19.0011 14.1788L18.831 14.0392C18.7876 14.0921 18.7274 14.1285 18.6604 14.1423L18.7048 14.3578ZM19.0011 14.1788C19.0764 14.087 19.118 13.9721 19.1188 13.8533L18.8988 13.8518C18.8983 13.9202 18.8744 13.9863 18.831 14.0392L19.0011 14.1788ZM19.1188 13.8525V13.5H18.8988V13.8525H19.1188ZM19.0088 13.61H19.5488V13.39H19.0088V13.61ZM19.4388 13.5V13.8375H19.6588V13.5H19.4388ZM19.4389 13.8343C19.4352 13.9563 19.4748 14.0757 19.5505 14.1714L19.7231 14.035C19.6795 13.9798 19.6567 13.9111 19.6588 13.8408L19.4389 13.8343ZM19.5505 14.1714C19.6262 14.2672 19.7333 14.3332 19.8529 14.3578L19.8972 14.1423C19.8284 14.1281 19.7667 14.0901 19.7231 14.035L19.5505 14.1714ZM19.8529 14.3578C20.1933 14.4279 20.5176 14.5612 20.8088 14.7509L20.9289 14.5666C20.6146 14.3619 20.2646 14.2179 19.8973 14.1423L19.8529 14.3578ZM20.8102 14.7519C20.9096 14.8144 21.0272 14.8414 21.1439 14.8285L21.1196 14.6098C21.0524 14.6173 20.9847 14.6017 20.9274 14.5657L20.8102 14.7519ZM21.1439 14.8285C21.2606 14.8155 21.3695 14.7633 21.4527 14.6805L21.2974 14.5246C21.2495 14.5723 21.1868 14.6023 21.1196 14.6098L21.1439 14.8285ZM21.4528 14.6803L21.6928 14.4403L21.5373 14.2847L21.2973 14.5247L21.4528 14.6803ZM21.5373 14.4403L21.9123 14.8153L22.0678 14.6597L21.6928 14.2847L21.5373 14.4403ZM21.9089 14.6633L21.6689 14.9258L21.8312 15.0742L22.0712 14.8117L21.9089 14.6633ZM21.6727 14.9219C21.5886 15.0051 21.5361 15.1148 21.5239 15.2324L21.7427 15.2551C21.7496 15.1881 21.7796 15.1256 21.8275 15.0782L21.6727 14.9219ZM21.5239 15.2324C21.5117 15.35 21.5406 15.4682 21.6058 15.5669L21.7894 15.4457C21.7522 15.3894 21.7357 15.3221 21.7427 15.2551L21.5239 15.2324ZM21.6068 15.5683C21.8041 15.8571 21.9436 16.1814 22.0176 16.5233L22.2326 16.4768C22.1526 16.1071 22.0018 15.7565 21.7884 15.4442L21.6068 15.5683ZM22.0175 16.5232C22.0425 16.6387 22.106 16.7422 22.1978 16.8166L22.3364 16.6458C22.2836 16.6029 22.2469 16.5433 22.2326 16.4768L22.0175 16.5232ZM22.1978 16.8166C22.2895 16.891 22.4039 16.9319 22.522 16.9325L22.5231 16.7125C22.4551 16.7122 22.3892 16.6886 22.3364 16.6458L22.1978 16.8166ZM22.5226 16.9325H22.8638V16.7125H22.5226V16.9325ZM22.7538 16.8201L22.7426 17.3263L22.9625 17.3312L22.9738 16.825L22.7538 16.8201Z" fill="#818181" mask="url(#path-1-outside-1_3_1595)"/>
<path d="M19.2788 14.5837C18.7847 14.583 18.3015 14.7288 17.8903 15.0028C17.4791 15.2768 17.1584 15.6666 16.9688 16.1229C16.7792 16.5792 16.7292 17.0815 16.8251 17.5662C16.9211 18.0509 17.1586 18.4963 17.5078 18.8459C17.8569 19.1956 18.3019 19.4338 18.7865 19.5305C19.271 19.6271 19.7734 19.5779 20.23 19.389C20.6866 19.2001 21.0768 18.88 21.3514 18.4692C21.626 18.0584 21.7726 17.5754 21.7726 17.0812C21.7726 16.4195 21.51 15.7848 21.0424 15.3166C20.5749 14.8483 19.9406 14.5847 19.2788 14.5837ZM19.2788 18.8475C18.9284 18.8482 18.5857 18.745 18.2941 18.5508C18.0024 18.3566 17.775 18.0802 17.6405 17.7566C17.5061 17.433 17.4707 17.0768 17.5389 16.7331C17.6071 16.3894 17.7757 16.0737 18.0235 15.8259C18.2713 15.5782 18.587 15.4095 18.9307 15.3413C19.2744 15.2731 19.6306 15.3085 19.9542 15.4429C20.2778 15.5774 20.5541 15.8048 20.7484 16.0965C20.9426 16.3881 21.0458 16.7309 21.0451 17.0812C21.0441 17.5494 20.8577 17.9981 20.5267 18.3291C20.1957 18.6601 19.747 18.8465 19.2788 18.8475Z" fill="#818181"/>
</g>
<defs>
<clipPath id="clip0_3_1595">
<rect width="24" height="24" fill="white"/>
</clipPath>
</defs>
</svg>
